<svg width="242" height="81" viewBox="0 0 242 81" fill="none" xmlns="http://www.w3.org/2000/svg">
<path d="M13.1218 1.52148L16.2195 11.0534H26.2411L18.1338 16.9463L21.2315 26.4782L13.1218 20.5878L5.01201 26.4782L8.10977 16.9463L0 11.0534H10.024L13.1218 1.52148Z" fill="#FFA400"/>
<path d="M42.5614 1.52148L45.6591 11.0534H55.6807L47.5734 16.9463L50.6711 26.4782L42.5614 20.5878L34.4516 26.4782L37.5493 16.9463L29.4396 11.0534H39.4636L42.5614 1.52148Z" fill="#FFA400"/>
<path d="M72.0012 1.52148L75.0989 11.0534H85.1205L77.0132 16.9463L80.1109 26.4782L72.0012 20.5878L63.8914 26.4782L66.9892 16.9463L58.8794 11.0534H68.9034L72.0012 1.52148Z" fill="#FFA400"/>
<path d="M101.441 1.52148L104.539 11.0534H114.56L106.453 16.9463L109.551 26.4782L101.441 20.5878L93.3312 26.4782L96.429 16.9463L88.3192 11.0534H98.3432L101.441 1.52148Z" fill="#FFA400"/>
<path d="M130.881 1.52148L133.978 11.0534H144L135.893 16.9463L138.99 26.4782L130.881 20.5878L122.771 26.4782L125.869 16.9463L117.759 11.0534H127.783L130.881 1.52148Z" fill="#FFA400"/>
<path d="M161.28 8.766V19H159.586V8.766H161.28ZM154.392 15.486L159.026 8.766H160.916L156.212 15.598L154.392 15.486ZM162.526 17.054H154.392V15.486H162.526V17.054ZM167.519 19.168C166.809 19.168 166.184 19.028 165.643 18.748C165.111 18.4587 164.695 18.0573 164.397 17.544C164.107 17.0213 163.963 16.4147 163.963 15.724H165.727C165.727 16.3027 165.89 16.7553 166.217 17.082C166.543 17.4087 166.991 17.572 167.561 17.572C167.962 17.572 168.307 17.4927 168.597 17.334C168.895 17.166 169.124 16.928 169.283 16.62C169.451 16.312 169.535 15.9527 169.535 15.542C169.535 15.15 169.455 14.8047 169.297 14.506C169.147 14.198 168.928 13.96 168.639 13.792C168.349 13.624 167.999 13.54 167.589 13.54C167.197 13.54 166.833 13.6287 166.497 13.806C166.17 13.974 165.913 14.1933 165.727 14.464L164.145 14.128L165.405 8.766H170.739V10.418H166.231L166.833 9.858L166.007 13.12L165.405 13.372C165.629 12.9427 165.965 12.616 166.413 12.392C166.87 12.1587 167.383 12.042 167.953 12.042C168.634 12.042 169.227 12.1867 169.731 12.476C170.244 12.7653 170.641 13.1667 170.921 13.68C171.21 14.184 171.355 14.772 171.355 15.444C171.355 16.1813 171.191 16.83 170.865 17.39C170.547 17.95 170.099 18.3887 169.521 18.706C168.951 19.014 168.284 19.168 167.519 19.168ZM179.323 19H177.531V8.766H181.437C182.594 8.766 183.495 9.046 184.139 9.606C184.792 10.166 185.119 10.95 185.119 11.958C185.119 12.6393 184.96 13.2227 184.643 13.708C184.335 14.184 183.877 14.548 183.271 14.8L185.217 19H183.257L181.521 15.178H179.323V19ZM179.323 10.362V13.596H181.437C182.006 13.596 182.449 13.4513 182.767 13.162C183.084 12.8727 183.243 12.4713 183.243 11.958C183.243 11.4447 183.084 11.0527 182.767 10.782C182.449 10.502 182.006 10.362 181.437 10.362H179.323ZM193.686 19H187.33V8.766H193.686V10.418H188.492L189.122 9.844V13.05H193.21V14.632H189.122V17.922L188.492 17.348H193.686V19ZM198.905 19L195.041 8.766H196.945L199.185 14.66C199.297 14.9587 199.404 15.2713 199.507 15.598C199.609 15.9247 199.717 16.2933 199.829 16.704C199.95 16.256 200.067 15.8687 200.179 15.542C200.291 15.2153 200.393 14.9213 200.487 14.66L202.699 8.766H204.561L200.753 19H198.905ZM208.05 8.766V19H206.258V8.766H208.05ZM217.094 19H210.738V8.766H217.094V10.418H211.9L212.53 9.844V13.05H216.618V14.632H212.53V17.922L211.9 17.348H217.094V19ZM221.571 19L218.519 8.766H220.381L222.005 14.17C222.089 14.45 222.169 14.7487 222.243 15.066C222.318 15.374 222.393 15.752 222.467 16.2C222.551 15.7427 222.631 15.3647 222.705 15.066C222.789 14.758 222.873 14.4593 222.957 14.17L224.581 8.766H226.555L228.137 14.17C228.221 14.4593 228.301 14.7627 228.375 15.08C228.459 15.3973 228.543 15.7707 228.627 16.2C228.721 15.724 228.805 15.3367 228.879 15.038C228.963 14.73 229.043 14.45 229.117 14.198L230.769 8.766H232.589L229.481 19H227.745L225.561 11.552L223.321 19H221.571ZM233.672 11.622C233.672 11.0247 233.826 10.4973 234.134 10.04C234.442 9.58267 234.866 9.228 235.408 8.976C235.958 8.71467 236.593 8.584 237.312 8.584C238.002 8.584 238.6 8.70533 239.104 8.948C239.617 9.19067 240.014 9.536 240.294 9.984C240.583 10.432 240.737 10.964 240.756 11.58H238.964C238.945 11.1413 238.786 10.8007 238.488 10.558C238.189 10.306 237.788 10.18 237.284 10.18C236.733 10.18 236.29 10.306 235.954 10.558C235.627 10.8007 235.464 11.1367 235.464 11.566C235.464 11.93 235.562 12.2193 235.758 12.434C235.963 12.6393 236.28 12.7933 236.71 12.896L238.32 13.26C239.197 13.4467 239.85 13.7687 240.28 14.226C240.709 14.674 240.924 15.2807 240.924 16.046C240.924 16.6713 240.77 17.222 240.462 17.698C240.154 18.174 239.715 18.5427 239.146 18.804C238.586 19.056 237.928 19.182 237.172 19.182C236.453 19.182 235.823 19.0607 235.282 18.818C234.74 18.566 234.316 18.216 234.008 17.768C233.709 17.32 233.55 16.7927 233.532 16.186H235.324C235.333 16.6153 235.501 16.956 235.828 17.208C236.164 17.4507 236.616 17.572 237.186 17.572C237.783 17.572 238.254 17.4507 238.6 17.208C238.954 16.956 239.132 16.6247 239.132 16.214C239.132 15.8593 239.038 15.5793 238.852 15.374C238.665 15.1593 238.362 15.01 237.942 14.926L236.318 14.562C235.45 14.3753 234.792 14.0393 234.344 13.554C233.896 13.0593 233.672 12.4153 233.672 11.622Z" fill="#666666"/>
<g clip-path="url(#clip0_0_453)">
<path d="M31.7441 46.1826H37.3604V80.857H31.7441V46.1826Z" fill="white"/>
<path d="M56.8953 69.8685C56.8953 75.2406 52.5 75.729 51.0349 75.729C47.6162 75.729 47.1279 72.5546 47.1279 70.8453V57.415H41.5116V70.6011C41.5116 73.7755 42.4883 76.7057 44.4418 78.415C46.1511 80.1243 48.3488 80.8569 51.0349 80.8569C52.9883 80.8569 55.4302 80.3685 56.8953 78.9034V80.8569H62.5116V57.415H56.8953V69.8685Z" fill="white"/>
<path d="M73.5 48.8691H67.8837V57.4157H63.7325V62.7877H67.8837V80.8575H73.5V62.7877H77.6511V57.4157H73.5V48.8691Z" fill="white"/>
<path d="M95.2326 73.7756C94.0117 74.7523 92.3024 75.4849 90.593 75.4849C86.6861 75.4849 84 72.5547 84 68.6477C84 64.7407 86.6861 62.0547 90.593 62.0547C92.3024 62.0547 94.0117 62.543 95.2326 63.764L95.9651 64.4965L99.8721 60.8337L98.8954 60.1012C96.6977 58.1477 93.7675 56.9268 90.593 56.9268C83.7558 56.9268 78.6279 62.0547 78.6279 68.8919C78.6279 75.7291 83.7558 80.857 90.593 80.857C93.7675 80.857 96.6977 79.6361 98.8954 77.6826L99.8721 76.95L95.9651 73.043L95.2326 73.7756Z" fill="white"/>
<path d="M119.651 59.3687C117.942 57.6594 116.233 56.9268 113.546 56.9268C111.593 56.9268 109.639 57.4152 108.174 58.8803V46.1826H102.558V80.857H108.174V67.9152C108.174 62.5431 111.837 62.0547 113.302 62.0547C116.721 62.0547 116.477 65.2291 116.477 66.9384V80.6129H122.093V67.1826C122.093 64.0082 121.36 61.078 119.651 59.3687Z" fill="white"/>
<path d="M90.3489 72.7993C92.5066 72.7993 94.2559 71.0501 94.2559 68.8923C94.2559 66.7346 92.5066 64.9854 90.3489 64.9854C88.1911 64.9854 86.4419 66.7346 86.4419 68.8923C86.4419 71.0501 88.1911 72.7993 90.3489 72.7993Z" fill="white"/>
<path d="M23.9302 72.3104C21.9767 74.2639 19.0465 75.4848 15.8721 75.4848C9.76744 75.4848 5.37209 70.6011 5.37209 64.008C5.37209 57.415 9.76744 52.5313 16.1163 52.5313C19.0465 52.5313 21.9767 53.7522 24.1744 55.9499L24.907 56.6825L28.5698 53.0197L27.8372 52.2871C24.6628 49.1127 20.5116 47.4034 16.1163 47.4034C6.83721 47.1592 0 54.4848 0 64.008C0 73.5313 6.83721 80.8569 15.8721 80.8569C20.2674 80.8569 24.6628 79.1476 27.593 75.9732L28.3256 75.2406L24.6628 71.5778L23.9302 72.3104Z" fill="white"/>
</g>
<defs>
<clipPath id="clip0_0_453">
<rect width="122.093" height="35" fill="white" transform="translate(0 46)"/>
</clipPath>
</defs>
</svg>
