<svg width="242" height="88" viewBox="0 0 242 88" fill="none" xmlns="http://www.w3.org/2000/svg">
<path d="M13.1218 1.52148L16.2195 11.0534H26.2411L18.1338 16.9463L21.2315 26.4782L13.1218 20.5878L5.01201 26.4782L8.10977 16.9463L0 11.0534H10.024L13.1218 1.52148Z" fill="#FFA400"/>
<path d="M42.5612 1.52148L45.659 11.0534H55.6805L47.5732 16.9463L50.671 26.4782L42.5612 20.5878L34.4515 26.4782L37.5492 16.9463L29.4395 11.0534H39.4635L42.5612 1.52148Z" fill="#FFA400"/>
<path d="M72.0012 1.52148L75.0989 11.0534H85.1205L77.0132 16.9463L80.1109 26.4782L72.0012 20.5878L63.8914 26.4782L66.9892 16.9463L58.8794 11.0534H68.9034L72.0012 1.52148Z" fill="#FFA400"/>
<path d="M101.441 1.52148L104.539 11.0534H114.56L106.453 16.9463L109.551 26.4782L101.441 20.5878L93.3313 26.4782L96.4291 16.9463L88.3193 11.0534H98.3434L101.441 1.52148Z" fill="#FFA400"/>
<path d="M130.881 1.52148L133.978 11.0534H144L135.893 16.9463L138.99 26.4782L130.881 20.5878L122.771 26.4782L125.869 16.9463L117.759 11.0534H127.783L130.881 1.52148Z" fill="#FFA400"/>
<path d="M154.588 16.102C154.588 15.402 154.793 14.8047 155.204 14.31C155.624 13.806 156.17 13.4887 156.842 13.358L156.856 13.68C156.249 13.5213 155.778 13.2367 155.442 12.826C155.115 12.4153 154.952 11.916 154.952 11.328C154.952 10.7867 155.101 10.3107 155.4 9.9C155.699 9.48933 156.114 9.16733 156.646 8.934C157.187 8.70067 157.808 8.584 158.508 8.584C159.208 8.584 159.819 8.70067 160.342 8.934C160.874 9.158 161.285 9.48 161.574 9.9C161.873 10.3107 162.022 10.796 162.022 11.356C162.022 11.944 161.854 12.4433 161.518 12.854C161.182 13.2553 160.711 13.526 160.104 13.666L160.09 13.372C160.547 13.4373 160.949 13.6007 161.294 13.862C161.639 14.114 161.905 14.4313 162.092 14.814C162.288 15.1967 162.386 15.626 162.386 16.102C162.386 16.718 162.223 17.2593 161.896 17.726C161.579 18.1833 161.126 18.538 160.538 18.79C159.959 19.042 159.273 19.168 158.48 19.168C157.696 19.168 157.01 19.042 156.422 18.79C155.843 18.538 155.391 18.1833 155.064 17.726C154.747 17.2593 154.588 16.718 154.588 16.102ZM156.338 15.976C156.338 16.3027 156.422 16.5873 156.59 16.83C156.767 17.0727 157.015 17.2593 157.332 17.39C157.659 17.5207 158.046 17.586 158.494 17.586C158.923 17.586 159.297 17.5207 159.614 17.39C159.941 17.2593 160.188 17.0773 160.356 16.844C160.533 16.6013 160.622 16.312 160.622 15.976C160.622 15.4813 160.426 15.0893 160.034 14.8C159.651 14.5107 159.133 14.366 158.48 14.366C157.827 14.366 157.304 14.5107 156.912 14.8C156.529 15.0893 156.338 15.4813 156.338 15.976ZM156.576 11.482C156.576 11.902 156.749 12.2427 157.094 12.504C157.439 12.756 157.901 12.882 158.48 12.882C159.049 12.882 159.502 12.756 159.838 12.504C160.183 12.252 160.356 11.916 160.356 11.496C160.356 11.0667 160.183 10.7307 159.838 10.488C159.502 10.236 159.049 10.11 158.48 10.11C157.901 10.11 157.439 10.236 157.094 10.488C156.749 10.7307 156.576 11.062 156.576 11.482ZM163.35 8.766H170.7V10.418H163.35V8.766ZM169.3 9.522L170.7 10.418L166.99 19H165.128L169.3 9.522ZM178.325 19H176.533V8.766H180.439C181.596 8.766 182.497 9.046 183.141 9.606C183.794 10.166 184.121 10.95 184.121 11.958C184.121 12.6393 183.962 13.2227 183.645 13.708C183.337 14.184 182.879 14.548 182.273 14.8L184.219 19H182.259L180.523 15.178H178.325V19ZM178.325 10.362V13.596H180.439C181.008 13.596 181.451 13.4513 181.769 13.162C182.086 12.8727 182.245 12.4713 182.245 11.958C182.245 11.4447 182.086 11.0527 181.769 10.782C181.451 10.502 181.008 10.362 180.439 10.362H178.325ZM192.688 19H186.332V8.766H192.688V10.418H187.494L188.124 9.844V13.05H192.212V14.632H188.124V17.922L187.494 17.348H192.688V19ZM197.907 19L194.043 8.766H195.947L198.187 14.66C198.299 14.9587 198.406 15.2713 198.509 15.598C198.611 15.9247 198.719 16.2933 198.831 16.704C198.952 16.256 199.069 15.8687 199.181 15.542C199.293 15.2153 199.395 14.9213 199.489 14.66L201.701 8.766H203.563L199.755 19H197.907ZM207.051 8.766V19H205.259V8.766H207.051ZM216.096 19H209.74V8.766H216.096V10.418H210.902L211.532 9.844V13.05H215.62V14.632H211.532V17.922L210.902 17.348H216.096V19ZM220.573 19L217.521 8.766H219.383L221.007 14.17C221.091 14.45 221.171 14.7487 221.245 15.066C221.32 15.374 221.395 15.752 221.469 16.2C221.553 15.7427 221.633 15.3647 221.707 15.066C221.791 14.758 221.875 14.4593 221.959 14.17L223.583 8.766H225.557L227.139 14.17C227.223 14.4593 227.303 14.7627 227.377 15.08C227.461 15.3973 227.545 15.7707 227.629 16.2C227.723 15.724 227.807 15.3367 227.881 15.038C227.965 14.73 228.045 14.45 228.119 14.198L229.771 8.766H231.591L228.483 19H226.747L224.563 11.552L222.323 19H220.573ZM232.674 11.622C232.674 11.0247 232.828 10.4973 233.136 10.04C233.444 9.58267 233.868 9.228 234.41 8.976C234.96 8.71467 235.595 8.584 236.314 8.584C237.004 8.584 237.602 8.70533 238.106 8.948C238.619 9.19067 239.016 9.536 239.296 9.984C239.585 10.432 239.739 10.964 239.758 11.58H237.966C237.947 11.1413 237.788 10.8007 237.49 10.558C237.191 10.306 236.79 10.18 236.286 10.18C235.735 10.18 235.292 10.306 234.956 10.558C234.629 10.8007 234.466 11.1367 234.466 11.566C234.466 11.93 234.564 12.2193 234.76 12.434C234.965 12.6393 235.282 12.7933 235.712 12.896L237.322 13.26C238.199 13.4467 238.852 13.7687 239.282 14.226C239.711 14.674 239.926 15.2807 239.926 16.046C239.926 16.6713 239.772 17.222 239.464 17.698C239.156 18.174 238.717 18.5427 238.148 18.804C237.588 19.056 236.93 19.182 236.174 19.182C235.455 19.182 234.825 19.0607 234.284 18.818C233.742 18.566 233.318 18.216 233.01 17.768C232.711 17.32 232.552 16.7927 232.534 16.186H234.326C234.335 16.6153 234.503 16.956 234.83 17.208C235.166 17.4507 235.618 17.572 236.188 17.572C236.785 17.572 237.256 17.4507 237.602 17.208C237.956 16.956 238.134 16.6247 238.134 16.214C238.134 15.8593 238.04 15.5793 237.854 15.374C237.667 15.1593 237.364 15.01 236.944 14.926L235.32 14.562C234.452 14.3753 233.794 14.0393 233.346 13.554C232.898 13.0593 232.674 12.4153 232.674 11.622Z" fill="#666666"/>
<path d="M51.9173 67.1613C51.9173 72.889 47.4365 77.1097 41.9375 77.1097C36.4386 77.1097 31.9578 72.889 31.9578 67.1613C31.9578 61.3932 36.4386 57.2129 41.9375 57.2129C47.4365 57.2129 51.9173 61.3932 51.9173 67.1613ZM47.5486 67.1613C47.5486 63.582 44.9517 61.133 41.9375 61.133C38.9234 61.133 36.3264 63.582 36.3264 67.1613C36.3264 70.7047 38.9234 73.1895 41.9375 73.1895C44.9517 73.1895 47.5486 70.7002 47.5486 67.1613Z" fill="white"/>
<path d="M73.4469 67.1613C73.4469 72.889 68.9661 77.1097 63.4671 77.1097C57.9681 77.1097 53.4873 72.889 53.4873 67.1613C53.4873 61.3977 57.9681 57.2129 63.4671 57.2129C68.9661 57.2129 73.4469 61.3932 73.4469 67.1613ZM69.0782 67.1613C69.0782 63.582 66.4812 61.133 63.4671 61.133C60.453 61.133 57.856 63.582 57.856 67.1613C57.856 70.7047 60.453 73.1895 63.4671 73.1895C66.4812 73.1895 69.0782 70.7002 69.0782 67.1613Z" fill="white"/>
<path d="M94.079 57.8139V75.6744C94.079 83.0213 89.7462 86.0219 84.624 86.0219C79.8023 86.0219 76.9004 82.797 75.806 80.1597L79.6095 78.5763C80.2868 80.1955 81.9463 82.1063 84.6196 82.1063C87.8983 82.1063 89.9301 80.0834 89.9301 76.2754V74.8446H89.7776C88.7999 76.0511 86.916 77.1052 84.5388 77.1052C79.5646 77.1052 75.0076 72.7724 75.0076 67.1972C75.0076 61.5816 79.5646 57.2129 84.5388 57.2129C86.9115 57.2129 88.7954 58.2669 89.7776 59.4376H89.9301V57.8184H94.079V57.8139ZM90.2396 67.1972C90.2396 63.6941 87.9028 61.133 84.929 61.133C81.9149 61.133 79.3897 63.6941 79.3897 67.1972C79.3897 70.6643 81.9149 73.1895 84.929 73.1895C87.9028 73.1895 90.2396 70.6643 90.2396 67.1972Z" fill="white"/>
<path d="M100.919 47.3457V76.5001H96.6582V47.3457H100.919Z" fill="white"/>
<path d="M117.524 70.4361L120.915 72.6967C119.82 74.3159 117.183 77.1057 112.626 77.1057C106.974 77.1057 102.754 72.7371 102.754 67.1574C102.754 61.2413 107.01 57.209 112.137 57.209C117.299 57.209 119.825 61.3175 120.65 63.5377L121.103 64.668L107.804 70.176C108.822 72.1719 110.406 73.1901 112.626 73.1901C114.851 73.1901 116.393 72.0957 117.524 70.4361ZM107.086 66.8569L115.976 63.1655C115.487 61.923 114.016 61.0574 112.285 61.0574C110.065 61.0574 106.974 63.0174 107.086 66.8569Z" fill="white"/>
<path d="M15.8285 64.5737V60.3531H30.0514C30.1904 61.0887 30.2622 61.9588 30.2622 62.9007C30.2622 66.0673 29.3965 69.983 26.6067 72.7728C23.8931 75.5986 20.4259 77.1056 15.833 77.1056C7.31991 77.1056 0.161377 70.1714 0.161377 61.6583C0.161377 53.1452 7.31991 46.2109 15.833 46.2109C20.5426 46.2109 23.8976 48.0589 26.4183 50.4675L23.4401 53.4457C21.6325 51.7503 19.1835 50.4316 15.8285 50.4316C9.61189 50.4316 4.74983 55.4417 4.74983 61.6583C4.74983 67.8749 9.61189 72.885 15.8285 72.885C19.8608 72.885 22.1573 71.2658 23.6284 69.7946C24.8215 68.6015 25.6065 66.8971 25.9159 64.5692L15.8285 64.5737Z" fill="white"/>
</svg>
