<svg width="242" height="86" viewBox="0 0 242 86" fill="none" xmlns="http://www.w3.org/2000/svg">
<path d="M13.1218 1.52148L16.2195 11.0534H26.2411L18.1338 16.9463L21.2315 26.4782L13.1218 20.5878L5.01201 26.4782L8.10977 16.9463L0 11.0534H10.024L13.1218 1.52148Z" fill="#FFA400"/>
<path d="M42.5612 1.52148L45.659 11.0534H55.6805L47.5732 16.9463L50.671 26.4782L42.5612 20.5878L34.4515 26.4782L37.5492 16.9463L29.4395 11.0534H39.4635L42.5612 1.52148Z" fill="#FFA400"/>
<path d="M72.0012 1.52148L75.0989 11.0534H85.1205L77.0132 16.9463L80.1109 26.4782L72.0012 20.5878L63.8914 26.4782L66.9892 16.9463L58.8794 11.0534H68.9034L72.0012 1.52148Z" fill="#FFA400"/>
<path d="M101.441 1.52148L104.539 11.0534H114.56L106.453 16.9463L109.551 26.4782L101.441 20.5878L93.3313 26.4782L96.4291 16.9463L88.3193 11.0534H98.3434L101.441 1.52148Z" fill="#FFA400"/>
<path d="M130.881 1.52148L133.978 11.0534H144L135.893 16.9463L138.99 26.4782L130.881 20.5878L122.771 26.4782L125.869 16.9463L117.759 11.0534H127.783L130.881 1.52148Z" fill="#FFA400"/>
<path d="M161.742 18.986L154.644 19V17.656L157.99 14.828C158.335 14.5387 158.625 14.2727 158.858 14.03C159.101 13.7873 159.292 13.5587 159.432 13.344C159.572 13.1293 159.675 12.9147 159.74 12.7C159.805 12.4853 159.838 12.252 159.838 12C159.838 11.4213 159.689 10.9733 159.39 10.656C159.091 10.3387 158.671 10.18 158.13 10.18C157.57 10.18 157.127 10.3667 156.8 10.74C156.473 11.1133 156.305 11.6267 156.296 12.28H154.518C154.527 11.5333 154.681 10.8847 154.98 10.334C155.279 9.774 155.699 9.34467 156.24 9.046C156.781 8.738 157.411 8.584 158.13 8.584C158.858 8.584 159.483 8.71933 160.006 8.99C160.538 9.25133 160.949 9.62933 161.238 10.124C161.527 10.6187 161.672 11.2113 161.672 11.902C161.672 12.2567 161.621 12.5973 161.518 12.924C161.425 13.2413 161.28 13.554 161.084 13.862C160.888 14.1607 160.645 14.464 160.356 14.772C160.067 15.08 159.726 15.402 159.334 15.738L156.842 17.866L156.198 17.32H161.742V18.986ZM169.286 15.99L167.074 19H165.03L167.914 15.15L168.362 15.262C168.157 15.4393 167.9 15.584 167.592 15.696C167.293 15.7987 166.999 15.85 166.71 15.85C166.01 15.85 165.394 15.7007 164.862 15.402C164.33 15.094 163.915 14.674 163.616 14.142C163.317 13.6007 163.168 12.9847 163.168 12.294C163.168 11.566 163.331 10.922 163.658 10.362C163.994 9.802 164.447 9.368 165.016 9.06C165.595 8.74267 166.248 8.584 166.976 8.584C167.713 8.584 168.371 8.752 168.95 9.088C169.538 9.41467 170 9.858 170.336 10.418C170.672 10.978 170.84 11.608 170.84 12.308C170.84 12.7187 170.789 13.106 170.686 13.47C170.583 13.834 170.42 14.2167 170.196 14.618C169.972 15.01 169.669 15.4673 169.286 15.99ZM169.006 12.294C169.006 11.874 168.922 11.5053 168.754 11.188C168.586 10.8707 168.348 10.6233 168.04 10.446C167.732 10.2687 167.377 10.18 166.976 10.18C166.584 10.18 166.234 10.2687 165.926 10.446C165.627 10.6233 165.394 10.8707 165.226 11.188C165.058 11.5053 164.974 11.874 164.974 12.294C164.974 12.7047 165.058 13.0687 165.226 13.386C165.394 13.694 165.627 13.9367 165.926 14.114C166.234 14.2913 166.584 14.38 166.976 14.38C167.387 14.38 167.741 14.2913 168.04 14.114C168.348 13.9367 168.586 13.694 168.754 13.386C168.922 13.0687 169.006 12.7047 169.006 12.294ZM178.885 19H177.093V8.766H180.999C182.157 8.766 183.057 9.046 183.701 9.606C184.355 10.166 184.681 10.95 184.681 11.958C184.681 12.6393 184.523 13.2227 184.205 13.708C183.897 14.184 183.44 14.548 182.833 14.8L184.779 19H182.819L181.083 15.178H178.885V19ZM178.885 10.362V13.596H180.999C181.569 13.596 182.012 13.4513 182.329 13.162C182.647 12.8727 182.805 12.4713 182.805 11.958C182.805 11.4447 182.647 11.0527 182.329 10.782C182.012 10.502 181.569 10.362 180.999 10.362H178.885ZM193.248 19H186.892V8.766H193.248V10.418H188.054L188.684 9.844V13.05H192.772V14.632H188.684V17.922L188.054 17.348H193.248V19ZM198.467 19L194.603 8.766H196.507L198.747 14.66C198.859 14.9587 198.967 15.2713 199.069 15.598C199.172 15.9247 199.279 16.2933 199.391 16.704C199.513 16.256 199.629 15.8687 199.741 15.542C199.853 15.2153 199.956 14.9213 200.049 14.66L202.261 8.766H204.123L200.315 19H198.467ZM207.612 8.766V19H205.82V8.766H207.612ZM216.657 19H210.301V8.766H216.657V10.418H211.463L212.093 9.844V13.05H216.181V14.632H212.093V17.922L211.463 17.348H216.657V19ZM221.134 19L218.082 8.766H219.944L221.568 14.17C221.652 14.45 221.731 14.7487 221.806 15.066C221.88 15.374 221.955 15.752 222.03 16.2C222.114 15.7427 222.193 15.3647 222.268 15.066C222.352 14.758 222.436 14.4593 222.52 14.17L224.144 8.766H226.118L227.7 14.17C227.784 14.4593 227.863 14.7627 227.938 15.08C228.022 15.3973 228.106 15.7707 228.19 16.2C228.283 15.724 228.367 15.3367 228.442 15.038C228.526 14.73 228.605 14.45 228.68 14.198L230.332 8.766H232.152L229.044 19H227.308L225.124 11.552L222.884 19H221.134ZM233.234 11.622C233.234 11.0247 233.388 10.4973 233.696 10.04C234.004 9.58267 234.429 9.228 234.97 8.976C235.521 8.71467 236.156 8.584 236.874 8.584C237.565 8.584 238.162 8.70533 238.666 8.948C239.18 9.19067 239.576 9.536 239.856 9.984C240.146 10.432 240.3 10.964 240.318 11.58H238.526C238.508 11.1413 238.349 10.8007 238.05 10.558C237.752 10.306 237.35 10.18 236.846 10.18C236.296 10.18 235.852 10.306 235.516 10.558C235.19 10.8007 235.026 11.1367 235.026 11.566C235.026 11.93 235.124 12.2193 235.32 12.434C235.526 12.6393 235.843 12.7933 236.272 12.896L237.882 13.26C238.76 13.4467 239.413 13.7687 239.842 14.226C240.272 14.674 240.486 15.2807 240.486 16.046C240.486 16.6713 240.332 17.222 240.024 17.698C239.716 18.174 239.278 18.5427 238.708 18.804C238.148 19.056 237.49 19.182 236.734 19.182C236.016 19.182 235.386 19.0607 234.844 18.818C234.303 18.566 233.878 18.216 233.57 17.768C233.272 17.32 233.113 16.7927 233.094 16.186H234.886C234.896 16.6153 235.064 16.956 235.39 17.208C235.726 17.4507 236.179 17.572 236.748 17.572C237.346 17.572 237.817 17.4507 238.162 17.208C238.517 16.956 238.694 16.6247 238.694 16.214C238.694 15.8593 238.601 15.5793 238.414 15.374C238.228 15.1593 237.924 15.01 237.504 14.926L235.88 14.562C235.012 14.3753 234.354 14.0393 233.906 13.554C233.458 13.0593 233.234 12.4153 233.234 11.622Z" fill="#666666"/>
<g clip-path="url(#clip0_0_487)">
<path d="M17.0681 49.6991C19.8953 50.2227 22.3735 51.7933 24.0838 53.9923C25.6894 56.0516 26.7016 58.7043 26.7016 61.5316C26.7016 63.3815 25.6545 66.2087 23.7696 69.6642C24.363 70.6415 24.9913 71.7235 25.6894 72.9103C28.0628 68.7916 29.8778 64.6031 29.8778 61.5665C29.8778 58.111 28.7958 54.9347 26.9459 52.3518C25.2007 49.9434 22.8272 47.9888 20 46.9766C18.4642 46.3483 16.7539 46.0342 14.9738 46.0342C6.70158 46.0342 0.0349121 52.9801 0.0349121 61.5665C0.0349121 67.8143 7.53928 78.6345 11.9721 84.4984C12.7051 85.4757 13.822 86.0342 14.9738 86.0342C16.1257 86.0342 17.2775 85.5106 17.9756 84.4984C18.918 83.2768 19.9651 81.8457 21.082 80.275C20.4189 79.2977 19.7906 78.2855 19.1623 77.3082C18.0454 78.9138 16.8237 80.5892 15.5323 82.3344C15.3229 82.6485 14.7644 82.6485 14.4852 82.3344C7.43457 73.0499 3.24609 65.2663 3.24609 61.5316C3.24609 54.8998 8.48168 49.4548 14.9738 49.4548C15.6719 49.4897 16.3351 49.5595 17.0681 49.6991Z" fill="white"/>
<path d="M23.8744 80.275C24.9564 81.8457 26.0384 83.2768 26.9809 84.4984C27.7138 85.4757 28.8308 86.0342 29.9826 86.0342C31.1344 86.0342 32.2863 85.5106 32.9843 84.4984C37.3822 78.6345 44.8866 67.7445 44.8866 61.5665C44.8866 52.9801 38.185 46.0342 29.9477 46.0342C28.1676 46.0342 26.4573 46.3483 24.8866 46.9766C25.9686 47.7794 26.9809 48.6869 27.8535 49.6991C28.5166 49.5595 29.2496 49.4897 29.9477 49.4897C36.4049 49.4897 41.6754 54.8649 41.6754 61.5665C41.6754 65.3012 37.487 73.0499 30.4363 82.3693C30.2269 82.6834 29.6685 82.6834 29.3892 82.3693C28.0978 80.6241 26.8761 78.9487 25.7592 77.3431C23.8744 74.5508 22.2688 72.0028 21.0472 69.6991C19.1624 66.2087 18.185 63.3815 18.185 61.5665C18.185 58.7043 19.1623 56.0865 20.8028 54.0272C19.9651 53.2942 18.9529 52.7707 17.8709 52.3518C16.021 54.8998 14.939 58.111 14.939 61.5665C14.939 64.6031 16.7191 68.7916 19.1274 72.9103C20.5934 75.4583 22.2688 77.9713 23.8744 80.275Z" fill="white"/>
<path d="M69.0054 58.46V71.0953C69.0054 76.9243 65.8989 79.9958 59.9303 79.9958C53.9268 79.9958 51.0298 76.9941 51.0298 71.0604V58.2506C51.0298 57.4478 51.6581 56.7148 52.6005 56.7148C53.5778 56.7148 54.2759 57.4478 54.2759 58.2506V70.9557C54.2759 75.3187 56.056 77.0988 59.9303 77.0988C63.7348 77.0988 65.7593 75.3885 65.7593 71.0255V58.4251C65.7593 57.4827 66.4225 56.7148 67.33 56.7148C68.3422 56.7497 69.0054 57.5176 69.0054 58.46Z" fill="white"/>
<path d="M87.4695 71.7936C87.4695 77.1339 84.5376 79.9961 79.3369 79.9961C77.9756 79.9961 76.8587 79.7866 75.9861 79.4725V84.1845C75.9861 84.9873 75.3927 85.6505 74.4154 85.6505C73.473 85.6505 72.8447 84.9873 72.8447 84.1845V65.4062C72.8447 64.6034 73.4381 64.0449 74.206 64.0449C75.0437 64.0449 75.4625 64.5685 75.5672 65.4062L75.672 66.6278C76.6144 65.1619 78.2199 64.0798 80.6632 64.0798C84.8517 64.0798 87.4695 66.5231 87.4695 71.7936ZM84.3281 71.9681C84.3281 68.3381 82.7226 66.7674 80.0699 66.7674C77.6964 66.7674 75.9861 68.4428 75.9861 70.572H75.9512V76.6802C76.7889 77.0292 77.836 77.4132 79.1973 77.4132C82.3386 77.3434 84.3281 75.7727 84.3281 71.9681Z" fill="white"/>
<path d="M109.669 62.823C109.669 63.6607 109.04 64.1145 108.307 64.1145C107.504 64.1145 107.155 63.8353 106.911 63.1372C106.422 62.0203 105.445 59.577 101.536 59.577C97.138 59.577 94.2759 62.3693 94.2759 68.0936C94.2759 74.097 97.3823 77.0639 102.408 77.0639C104.956 77.0639 106.597 76.296 107.33 76.0168C107.644 75.9121 107.923 75.8423 108.272 75.8423C109.04 75.8423 109.529 76.4356 109.529 77.1337C109.529 77.9016 109.215 78.2506 108.621 78.5997C107.19 79.4025 104.503 79.9609 102.025 79.9609C95.1834 79.9609 90.9949 75.9121 90.9949 68.303C90.9949 60.7986 95.1135 56.7148 101.466 56.7148C107.155 56.7497 109.669 60.1005 109.669 62.823Z" fill="white"/>
<path d="M113.054 59.2974C113.054 58.0757 113.892 57.2031 115.079 57.2031C116.3 57.2031 117.103 58.1106 117.103 59.2974C117.103 60.4841 116.3 61.3916 115.079 61.3916C113.892 61.4265 113.054 60.519 113.054 59.2974ZM116.545 65.4405V78.4597C116.545 79.2625 115.951 79.9256 114.974 79.9256C114.032 79.9256 113.403 79.2625 113.403 78.4597V65.4405C113.403 64.6377 114.032 63.9745 114.974 63.9745C115.916 64.0094 116.545 64.6377 116.545 65.4405Z" fill="white"/>
<path d="M125.34 66.9071V75.2491C125.34 76.8198 126.073 77.2387 127.121 77.2387C127.4 77.2387 127.644 77.2037 128.203 77.1339C129.11 76.9943 129.564 77.6575 129.564 78.3556C129.564 78.9838 129.215 79.6121 128.447 79.7517C127.819 79.8564 127.086 79.9263 126.388 79.9263C123.665 79.9263 122.304 78.9489 122.304 75.4935V66.9071H120.733C120.07 66.9071 119.477 66.3835 119.477 65.6156C119.477 64.8128 120.07 64.3242 120.733 64.3242H122.304V61.3224C122.304 60.5196 122.932 59.8564 123.874 59.8564C124.817 59.8564 125.41 60.5196 125.41 61.3224V64.3242H128.377C129.11 64.3242 129.634 64.8128 129.634 65.6156C129.634 66.3835 129.11 66.9071 128.377 66.9071C128.342 66.9071 125.34 66.9071 125.34 66.9071Z" fill="white"/>
<path d="M145.934 65.3359C145.934 65.6151 145.829 65.9292 145.724 66.1736L139.092 82.02C137.976 84.6727 136.3 85.5802 133.892 85.5802C133.368 85.5802 133.089 85.5453 132.845 85.5453C132.042 85.4406 131.553 84.9519 131.553 84.184C131.553 83.451 132.007 82.8228 132.81 82.8926C133.019 82.8926 133.263 82.9275 133.752 82.9275C135.288 82.9275 136.161 82.4388 136.614 81.2172L137.277 79.5069L131.553 66.2085C131.414 65.9292 131.344 65.6151 131.344 65.3708C131.344 64.4633 132.077 63.9746 132.81 63.9746C133.403 63.9746 134.031 64.3236 134.276 65.0217L138.778 75.842L143.071 64.9868C143.351 64.3236 143.874 64.0444 144.537 64.0444C145.201 63.9746 145.934 64.4284 145.934 65.3359Z" fill="white"/>
<path d="M154.346 65.9993C154.346 66.2087 154.206 66.3484 153.997 66.3484C153.787 66.3484 153.648 66.2087 153.648 65.9993L153.613 63.9749L152.81 65.755C152.705 65.9295 152.6 66.0342 152.461 66.0342C152.321 66.0342 152.182 65.9295 152.112 65.8248L151.274 63.94L151.239 65.9993C151.239 66.2087 151.1 66.3484 150.89 66.3484C150.681 66.3484 150.541 66.2087 150.541 65.9993L150.576 63.6957H149.459V65.9993C149.459 66.2087 149.319 66.3484 149.11 66.3484C148.901 66.3484 148.761 66.2087 148.761 65.9993V63.6957H147.958C147.784 63.6957 147.644 63.556 147.644 63.3815C147.644 63.207 147.784 63.1023 147.958 63.1023H150.96C151.309 63.1023 151.588 63.2768 151.763 63.556L152.496 65.1616L153.264 63.4862C153.403 63.207 153.613 63.0674 153.857 63.0674C154.171 63.0674 154.381 63.2768 154.381 63.6608L154.346 65.9993Z" fill="white"/>
</g>
<defs>
<clipPath id="clip0_0_487">
<rect width="154.346" height="40" fill="white" transform="translate(0 46)"/>
</clipPath>
</defs>
</svg>
