<svg width="183" height="27" viewBox="0 0 183 27" fill="none" xmlns="http://www.w3.org/2000/svg">
<g clip-path="url(#clip0_0_522)">
<path d="M160.978 4.30054C160.978 2.50155 161.536 1.88121 162.467 1.88121C163.397 1.88121 164.142 2.25342 165.01 4.30054L170.283 16.2731V23.8412C170.283 25.6402 169.539 26.1365 167.492 26.3846V26.8809H177.231V26.3846C175.122 26.1365 174.439 25.5782 174.439 23.8412V16.2731L179.526 4.73477C180.519 2.50155 181.511 2.00528 183 1.75715V1.26088H175.866V1.75715C178.285 2.00528 179.154 2.68765 178.472 4.30054L174.005 14.5361L169.415 4.0524C168.794 2.62562 169.166 2.19138 171.834 1.81918V1.32291H156.512V1.81918C158.931 2.19138 159.675 2.62562 159.675 4.36257V18.3822L148.447 1.32291H142.926V1.81918C144.725 2.06732 145.283 2.62562 145.283 4.36257V23.9032C145.283 25.7022 144.787 26.3226 144.167 26.3226C143.608 26.3226 143.298 26.0744 142.492 23.9032L134.179 1.19884H133.683L125.681 22.9107C124.812 25.33 123.447 26.1365 122.083 26.4466V26.9429H129.403V26.4466C126.859 26.1985 126.053 25.206 126.611 23.5931L128.41 18.6304H135.978L137.715 23.2829C138.46 25.3921 138.025 26.0124 135.854 26.3846V26.8809H149.75V26.3846C147.331 26.0124 146.586 25.5782 146.586 23.8412V6.34765L160.172 26.9429H160.978V4.30054ZM63.0264 14.0399C63.0264 6.09952 66.8105 1.94325 71.2149 1.94325C73.8203 1.94325 75.4953 2.50155 76.4878 3.55613C77.2322 4.30054 77.7905 5.35511 78.4109 7.03003H78.9071V1.69511C76.3637 1.19884 74.0685 0.888672 71.7732 0.888672C65.1356 0.888672 58.2498 5.16901 58.2498 14.0399C58.2498 22.9107 65.1356 27.191 71.339 27.191C74.0685 27.191 76.4878 26.7568 78.7831 26.0744L79.5275 21.0497L79.0932 20.9256C78.5349 21.9802 77.8525 22.9107 77.1081 23.7171C75.4953 25.33 73.3241 26.1985 71.1529 26.1985C66.9346 26.1365 63.0264 22.1043 63.0264 14.0399ZM118.051 14.7843C117.492 14.7843 116.748 14.7222 116.003 14.5982V2.19138H118.051C121.462 2.19138 122.951 3.99037 122.951 8.45681C122.951 12.9853 121.4 14.7843 118.051 14.7843ZM38.3369 1.26088V7.40223H38.8332C39.5776 3.4941 41.1285 2.25342 43.7339 2.25342H44.9746V23.8412C44.9746 25.6402 44.2302 26.1365 42.1831 26.3846V26.8809H51.9224V26.3846C49.8132 26.1365 49.1308 25.5782 49.1308 23.8412V2.19138H50.3715C52.9769 2.19138 54.5278 3.43206 55.2722 7.3402H55.7685V1.19884H38.3369V1.26088ZM30.5827 27.191C34.801 27.191 39.2675 24.7717 39.2675 19.809C39.2675 16.8934 37.7166 14.4741 34.9871 12.9853L30.1485 10.3178C27.6051 8.89104 26.8607 7.58833 26.8607 5.72732C26.8607 3.61816 28.4115 1.94325 31.3271 1.94325C32.7539 1.94325 33.8085 2.31545 34.6769 3.12189C35.4214 3.8663 36.1658 5.10698 36.8481 7.3402H37.2824V1.69511C35.5454 1.19884 33.7464 0.888672 31.6373 0.888672C27.481 0.888672 24.3793 3.4941 24.3793 7.8985C24.3793 10.69 25.9302 13.2334 28.4736 14.7222L32.94 17.2036C35.4834 18.6304 36.2898 19.9951 36.2898 22.0422C36.2898 24.4616 33.8085 26.1985 31.079 26.1985C29.28 26.1985 27.7912 25.5782 26.7366 24.5236C26.0542 23.8412 25.3098 22.7866 24.8136 21.4219H27.7292V20.9256C26.9227 20.7395 26.4264 20.6155 25.7441 19.0026L20.0369 5.41715H19.5407L13.9576 18.6924C13.2132 20.4914 12.7169 20.8016 11.8485 20.9256V21.4219H16.8112V20.9256C15.0122 20.7395 14.5159 19.871 14.9502 18.7544L15.8186 16.6453H20.8434L21.96 19.2507C22.4563 20.4293 21.7119 20.7395 19.9129 20.8636V21.3599H23.8831V26.2605C25.8681 26.8188 28.4115 27.191 30.5827 27.191ZM93.6091 26.9429L100.991 6.40969L101.549 23.9032C101.612 25.6402 100.929 26.1365 98.82 26.3846V26.8809H119.167V26.3846C116.748 26.0124 116.003 25.5782 116.003 23.8412V15.5907C116.81 15.7148 117.616 15.7768 118.237 15.7768C123.137 15.7768 127.356 13.9778 127.356 8.51884C127.356 3.05986 123.137 1.26088 118.237 1.26088H109.49V1.75715C111.289 2.00528 111.847 2.56359 111.847 4.30054V23.8412C111.847 25.6402 111.103 26.3846 109.056 26.3846H108.994C106.822 26.3846 105.892 25.5782 105.83 23.9032L105.085 4.36257C105.023 2.56359 105.644 2.00528 107.567 1.75715V1.26088H101.549L94.9739 19.6849L88.3983 1.26088H81.9468V1.75715C83.8698 2.00528 84.4902 2.62562 84.4281 4.36257L83.7458 23.0968C83.6837 24.9578 82.6912 26.0744 80.8922 26.3846V26.8809H87.7159V26.3846C85.979 26.1365 84.9864 25.0199 85.0485 23.0968L85.6068 6.03749L93.1129 26.8809L93.6091 26.9429ZM73.8203 21.546C77.1081 21.546 81.3264 18.6304 81.3264 14.0399C81.3264 9.51138 77.1702 6.53376 73.8203 6.53376C70.5325 6.53376 66.3142 9.44935 66.3142 14.0399C66.3142 18.5683 70.4705 21.546 73.8203 21.546ZM73.8203 7.58833C75.9295 7.58833 77.3563 9.32528 77.3563 14.0399C77.3563 18.8165 75.8675 20.4914 73.8203 20.4914C71.7112 20.4914 70.2844 18.7544 70.2844 14.0399C70.2844 9.26325 71.7112 7.58833 73.8203 7.58833ZM135.668 17.5758H128.782L132.194 8.14664L135.668 17.5758ZM20.5332 15.6527H16.3149L18.4241 10.5039L20.5332 15.6527ZM12.4688 16.9555H12.9651V9.26325H12.4688C11.6624 11.9927 10.8559 12.6131 9.36712 12.6131H6.51356V2.19138H11.042C13.6475 2.19138 15.1983 3.43206 15.9427 7.3402H16.439V1.19884H0V1.69511C1.79898 1.94325 2.35729 2.50155 2.35729 4.2385V23.7792C2.35729 25.5782 1.79898 26.0744 0 26.3226V26.8188H9.67729V26.3226C7.25797 25.9504 6.51356 25.5161 6.51356 23.7792V13.5436H9.36712C10.7939 13.6056 11.6624 14.226 12.4688 16.9555Z" fill="white"/>
</g>
<defs>
<clipPath id="clip0_0_522">
<rect width="183" height="26.0542" fill="white" transform="translate(0 0.888672)"/>
</clipPath>
</defs>
</svg>
