<svg width="155" height="28" viewBox="0 0 155 28" fill="none" xmlns="http://www.w3.org/2000/svg">
<path d="M35.9547 3.35171H38.213C39.5883 3.14911 40.9927 3.32724 42.2739 3.86675C43.8812 4.83375 45.047 6.39053 45.5226 8.20498C45.8594 9.15582 45.8594 9.15582 46.6715 8.81906H47.3054V1.29155H26.0501V2.61877H26.9217C27.3005 2.61615 27.675 2.69841 28.0178 2.85953C28.3606 3.02064 28.663 3.25651 28.9026 3.5498C29.7148 4.85721 29.8535 6.3231 29.8535 13.9497C29.8535 22.0516 29.6752 24.0326 28.9026 25.0428C28.7119 25.3026 28.465 25.5158 28.1803 25.6668C27.8956 25.8177 27.5805 25.9024 27.2585 25.9144C26.0501 26.1323 26.0501 26.1125 26.0501 26.6474C25.9833 26.8262 25.9833 27.0232 26.0501 27.202H39.461C39.5497 27.0271 39.596 26.8337 39.596 26.6375C39.596 26.4413 39.5497 26.2479 39.461 26.0729C39.1362 25.9825 38.8051 25.9163 38.4705 25.8748C38.1086 25.8318 37.7508 25.7589 37.4008 25.6569C36.8997 25.2911 36.5027 24.8008 36.2491 24.2345C35.9954 23.6682 35.894 23.0455 35.9547 22.428C35.7566 21.1206 35.6576 18.7237 35.6576 16.7428V15.1778H36.45C37.4372 15.1476 38.4238 15.2543 39.3817 15.4948C39.8407 15.7784 40.2313 16.1598 40.5258 16.6118C40.8203 17.0638 41.0113 17.5752 41.0853 18.1096L41.2636 18.7237H42.472V9.94819H41.3627L41.1844 10.8C41.1094 11.3465 40.9072 11.8677 40.5941 12.3218C40.281 12.776 39.8658 13.1503 39.3817 13.4148C38.913 13.5543 38.4191 13.5881 37.9357 13.5139H35.6576V11.3745C35.6576 9.15582 35.7765 4.48084 35.8557 3.7479L35.9547 3.35171ZM128.662 19.0604C127.726 17.5534 126.265 16.4457 124.561 15.9504C123.255 15.5421 122.048 14.8676 121.016 13.9695C120.783 13.7448 120.61 13.4666 120.509 13.1593C120.409 12.852 120.386 12.5249 120.441 12.2064C120.443 11.5818 120.692 10.9834 121.134 10.5425C121.434 10.2284 121.814 10.0017 122.233 9.88657C122.651 9.77143 123.093 9.77219 123.512 9.88876C124.378 10.1356 125.161 10.612 125.778 11.2676C126.395 11.9233 126.824 12.7336 127.018 13.6129C127.335 14.5043 127.374 14.5043 127.949 14.2666L128.305 14.1279V9.19544L128.048 9.07658C126.098 8.39164 124.029 8.10862 121.966 8.24459C120.19 8.2896 118.495 8.99602 117.212 10.2255C116.631 10.7701 116.175 11.4352 115.877 12.1743C115.58 12.9134 115.447 13.7086 115.489 14.5043C115.5 15.7208 115.983 16.8856 116.836 17.753C117.779 18.6801 118.935 19.3605 120.203 19.734C123.274 20.9423 124.165 21.7149 124.165 23.1213C124.178 23.7144 123.99 24.2944 123.63 24.766C123.27 25.2375 122.76 25.5727 122.184 25.7163C121.493 25.8683 120.776 25.8683 120.085 25.7163C119.179 25.3649 118.37 24.8022 117.726 24.0752C117.082 23.3482 116.62 22.4779 116.38 21.5366L116.123 20.9027H115.766C115.596 20.9154 115.429 20.9555 115.271 21.0216H115.073V26.6474H115.41C116.748 27.0926 118.129 27.398 119.53 27.5586H121.511C122.37 27.6217 123.234 27.5413 124.066 27.3209C125.123 27.1258 126.111 26.6575 126.931 25.9625C127.751 25.2674 128.375 24.3699 128.741 23.359C128.978 22.7944 129.099 22.1883 129.098 21.5762C129.176 20.7139 129.026 19.8462 128.662 19.0604ZM110.002 8.81906C108.815 8.32068 107.536 8.07892 106.249 8.10965C104.962 8.14037 103.696 8.44289 102.534 8.99735C101.441 9.53157 100.473 10.2889 99.6921 11.2204C98.9107 12.1518 98.3334 13.2368 97.9973 14.4053C97.5688 15.6799 97.3873 17.0245 97.4624 18.3671C97.4482 19.0976 97.508 19.8277 97.6407 20.5461C97.9606 22.3127 98.8135 23.9391 100.085 25.2068C101.356 26.4746 102.985 27.3229 104.752 27.6378C105.903 27.7829 107.068 27.7829 108.219 27.6378C109.413 27.4273 110.556 26.9903 111.586 26.3502C112.439 25.8726 113.16 25.1922 113.686 24.3693C113.652 24.2402 113.593 24.1193 113.511 24.0137C113.429 23.9082 113.327 23.8203 113.211 23.7552C112.985 23.8371 112.771 23.9505 112.577 24.092C111.592 24.7413 110.428 25.0668 109.249 25.023C108.466 25.0759 107.682 24.9541 106.952 24.6663C106.222 24.3785 105.565 23.932 105.03 23.359C104.615 22.974 104.273 22.5178 104.019 22.012C103.404 20.7805 103.072 19.4267 103.049 18.0502V17.2776H114.023V16.8814C114.047 16.4856 114.047 16.0887 114.023 15.6929C114.019 14.2941 113.645 12.9214 112.939 11.7141C112.232 10.5068 111.219 9.50793 110.002 8.81906ZM104.475 15.6731H103.088V14.5043C103.544 11.5131 104.673 9.73029 106.06 9.73029C107.446 9.73029 108.041 11.4933 108.298 14.7222V15.6334H107.11L104.475 15.6731ZM75.9892 8.16536C75.3047 8.13881 74.6243 8.28171 74.0083 8.58135C72.6695 9.23154 71.5881 10.3129 70.9379 11.6518L70.6803 12.1272V8.16536H70.5813C70.3436 8.16536 63.0142 9.63124 62.7765 9.73029C62.5387 9.82933 62.618 9.84914 62.618 10.2057C62.618 10.5623 62.618 10.6217 62.7765 10.6415L63.549 10.8C63.7654 10.8053 63.9777 10.8598 64.1699 10.9593C64.3621 11.0588 64.5291 11.2008 64.6583 11.3745C65.1536 12.0282 65.2526 13.1771 65.2526 18.07C65.3505 20.2727 65.2577 22.4797 64.9753 24.6665C64.9088 24.9962 64.7416 25.2971 64.4968 25.5278C64.2519 25.7584 63.9415 25.9074 63.6084 25.9541L62.9349 26.0927H62.6774V26.6474C62.6056 26.8321 62.6056 27.0371 62.6774 27.2218H73.7508V26.6474C73.7892 26.4578 73.7892 26.2625 73.7508 26.0729C73.0841 26.0469 72.4211 25.9607 71.7699 25.8154C71.4152 25.6299 71.1251 25.3414 70.9377 24.9877C70.7503 24.6341 70.6744 24.2321 70.72 23.8345C70.5615 22.6855 70.4823 19.318 70.5219 16.7428C70.5615 14.1676 70.5219 14.0091 70.7398 13.8308C71.4026 13.3226 72.2229 13.0632 73.0575 13.0979C73.8441 13.115 74.6165 13.3115 75.3157 13.6723C75.5581 13.8069 75.8181 13.9069 76.0883 13.9695C76.0883 13.9695 78.0692 9.17563 78.0692 8.95773C77.8157 8.66315 77.4927 8.43643 77.1296 8.29808C76.7664 8.15973 76.3745 8.11411 75.9892 8.16536ZM62.6378 16.4852C62.5687 15.0697 62.1622 13.6911 61.4524 12.4645C60.7426 11.2378 59.7499 10.1985 58.5571 9.43315C57.1395 8.66841 55.5624 8.24675 53.9523 8.20202C52.3423 8.1573 50.7442 8.49076 49.2864 9.17563C47.2252 10.2625 45.6689 12.1101 44.9481 14.326C44.2036 16.807 44.2036 19.4518 44.9481 21.9328C45.3384 23.2887 46.0679 24.5227 47.0677 25.5183C48.3129 26.7333 49.9185 27.5117 51.6437 27.7369C52.751 27.8295 53.8642 27.8295 54.9716 27.7369C55.3791 27.6749 55.7826 27.5889 56.18 27.4794C57.7924 27.0283 59.243 26.1274 60.3621 24.882C61.4811 23.6367 62.2224 22.0984 62.4991 20.4471C62.6969 19.1361 62.7434 17.8068 62.6378 16.4852ZM54.3971 26.3899C52.4162 26.9841 50.9305 25.0626 50.4353 21.0216C50.2534 18.9059 50.2534 16.7785 50.4353 14.6628C50.8315 11.4141 51.8418 9.76991 53.4067 9.76991C53.7224 9.75034 54.0382 9.80667 54.3277 9.93419C54.6172 10.0617 54.872 10.2567 55.0707 10.5028C56.3979 11.8301 57.0516 14.4647 57.0516 18.4265C57.2164 20.6687 56.864 22.9188 56.0215 25.0032C55.6495 25.6111 55.0739 26.0674 54.3971 26.2908V26.3899ZM90.0538 8.56154C89.4948 8.48962 88.929 8.48962 88.37 8.56154C87.297 8.56063 86.2364 8.79032 85.2599 9.23506L84.6459 9.49258V5.19397C84.7532 3.74328 84.7532 2.28663 84.6459 0.835938C84.4081 0.835938 76.841 2.28201 76.7222 2.34144C76.6637 2.48769 76.6637 2.6508 76.7222 2.79705C76.7222 3.21305 76.7222 3.19324 77.6136 3.39133C77.8639 3.44746 78.1043 3.54095 78.3267 3.66866C78.7134 4.03228 78.9707 4.51221 79.0597 5.0355C79.2852 6.54303 79.3582 8.06945 79.2776 9.59162V26.9841L79.8124 27.103C80.6048 27.2813 82.8432 27.6577 83.5762 27.7369C85.0397 27.8533 86.5102 27.8533 87.9738 27.7369C89.5983 27.571 91.1467 26.9649 92.4523 25.984C93.7578 25.0031 94.7709 23.6846 95.3825 22.1705C95.7471 21.1987 95.9996 20.1885 96.1352 19.1595C96.2531 17.7656 96.2066 16.3627 95.9966 14.9797C95.784 13.4295 95.0998 11.9821 94.0367 10.834C92.9736 9.68586 91.5831 8.8925 90.0538 8.56154ZM84.8638 26.0531C84.8638 25.7956 84.6657 17.1191 84.7053 13.6525V10.9387L85.2798 10.8C85.6674 10.7445 86.0609 10.7445 86.4485 10.8C86.8772 10.7564 87.3083 10.8538 87.6767 11.0773C88.4165 11.5879 89.0308 12.2596 89.4734 13.0419C89.916 13.8242 90.1754 14.6968 90.2321 15.5938C90.3764 17.0363 90.3764 18.4896 90.2321 19.932C90.1135 22.0286 89.3057 24.0272 87.9342 25.6173C87.5449 25.987 87.0561 26.2349 86.5277 26.3304C86.128 26.4 85.7192 26.4 85.3194 26.3304C84.943 26.3304 84.943 26.2116 84.943 26.0531H84.8638Z" fill="white"/>
</svg>
