<svg width="132" height="34" viewBox="0 0 132 34" fill="none" xmlns="http://www.w3.org/2000/svg">
<g clip-path="url(#clip0_0_527)">
<path fill-rule="evenodd" clip-rule="evenodd" d="M132 0H0V33.8306H132V0ZM27.1657 11.0927H28.6656C28.6656 11.0927 28.6656 8.18652 28.7125 8.18652H22.3846V11.0927H23.8845V16.4831L17.5097 8.18652H12.6818V11.0927H14.1817V21.2642H12.6818V24.1704H19.0097V21.2642H17.5097V15.2644L24.3533 24.1704H27.1657V11.0927ZM38.6966 19.2956V18.5456C38.6966 15.2176 37.056 12.6395 33.3999 12.6395C29.5562 12.6395 27.6813 15.6863 27.6813 18.5456C27.6813 21.733 29.5094 24.5923 33.4467 24.5923C37.431 24.5923 38.4622 22.3423 38.5091 20.3736H35.5092C35.5092 21.4986 34.7123 22.2017 33.6342 22.2017C32.3687 22.2017 31.5249 21.5455 31.7124 19.2956H38.6966ZM54.9148 15.6863H55.946C55.946 15.6863 55.9461 12.7333 56.0398 12.7333H50.9775V15.6863H52.4774L51.1181 20.2799L48.5869 12.7333H46.712L44.6495 20.2799L43.0558 15.6863H44.5558V12.7333H38.5091V15.6863H39.5403L42.3996 24.3579H45.8682L47.3213 19.6237L48.915 24.3579H52.3368L54.9148 15.6863ZM61.6646 16.8113C60.5397 16.4831 60.2115 16.2019 60.2115 15.78C60.2115 15.3113 60.5397 14.9832 61.3365 14.9363C62.3209 14.9363 63.2583 15.3582 63.3052 16.3425H66.352V12.7333H63.3989V13.6239C62.9302 13.1082 62.0396 12.5926 60.1647 12.5926C58.3835 12.5926 56.2742 13.7645 56.2742 16.155C56.2742 18.1237 57.9147 19.2018 59.3678 19.6705L60.8209 20.1393C62.274 20.608 62.6021 20.9361 62.6021 21.4517C62.6021 21.8736 62.1802 22.2486 61.3365 22.2486C60.3053 22.2486 59.1335 21.5455 59.0397 20.233H56.1335V24.2642H59.0866V23.2798C59.4616 23.7017 60.8209 24.5454 62.6021 24.5454C64.852 24.5454 66.6332 23.3736 66.6332 20.983C66.6332 18.9206 64.8052 17.8425 63.3052 17.3269L61.6646 16.8113ZM83.2733 15.6863H84.3046V12.7333H79.2422V15.6863H80.789L79.4297 20.2799L76.8985 12.7333H75.0236L73.008 20.2799L71.4143 15.6863H72.9143V12.7333H66.8676V15.6863H67.8988L70.7581 24.3579H74.2267L75.6798 19.6237L77.2735 24.3579H80.6953L83.2733 15.6863ZM94.9917 19.2956V18.5456C94.9917 15.1707 93.398 12.6395 89.7419 12.6395C85.8982 12.6395 83.9764 15.6863 83.9764 18.5456C83.9764 21.733 85.8045 24.5923 89.7887 24.5923C93.7261 24.5923 94.8042 22.3423 94.8511 20.3736H91.8512C91.8512 21.4986 91.0543 22.2017 89.9762 22.2017C88.7107 22.2017 87.8669 21.5455 88.0544 19.2956H94.9917ZM106.429 19.2487V18.4987C106.429 15.1238 104.835 12.5926 101.179 12.5926C97.3354 12.5926 95.4136 15.6394 95.4136 18.4987C95.4136 21.6861 97.2416 24.5454 101.226 24.5454C105.163 24.5454 106.241 22.2955 106.288 20.3268H103.288C103.288 21.4517 102.491 22.1548 101.413 22.1548C100.148 22.1548 99.3041 21.4986 99.4916 19.2487H106.429ZM115.569 24.311H119.038C119.038 24.311 119.038 21.4049 118.991 21.358H117.491L114.585 17.5612L117.116 15.6863H118.147V12.7333H111.726V15.6863H113.226L110.788 17.4675V8.18652H105.96V11.1396H107.46V21.4517H106.429V24.3579H111.819V21.4049H110.788V20.4674L111.96 19.5768L115.569 24.311ZM103.288 17.3737H99.4916C99.5384 15.8269 100.523 15.0769 101.46 15.0769C102.21 15.0769 103.288 15.7332 103.288 17.3737ZM91.8512 17.3737H88.0544C88.1013 15.8738 89.0856 15.1238 89.9762 15.0769C90.7731 15.0769 91.8512 15.7332 91.8512 17.3737ZM35.5561 17.4206H31.7593C31.8062 15.8738 32.7436 15.1238 33.6811 15.1238C34.478 15.1238 35.5561 15.78 35.5561 17.4206Z" fill="white"/>
</g>
<defs>
<clipPath id="clip0_0_527">
<rect width="132" height="33.8306" fill="white"/>
</clipPath>
</defs>
</svg>
