<svg width="203" height="17" viewBox="0 0 203 17" fill="none" xmlns="http://www.w3.org/2000/svg">
<path d="M2.50367 16.6967H5.81933L5.85317 3.77232H8.323V1.13332H0V3.77232H2.50367V16.6967ZM10.4883 16.6967H13.8378V10.0653H16.2062V16.6967H19.5557V1.13332H16.2062V7.35865H13.8378V1.09949H10.4883V16.6967ZM22.127 16.6967H29.4012V14.0576H25.4765V9.72699H28.3862V7.22332H25.4765V3.73848H29.1643V1.09949H22.0932V16.6967H22.127ZM35.1867 16.6967H39.5512C42.4608 16.6967 44.0172 15.6478 44.0172 12.772V11.757C44.0172 9.76082 43.0022 8.81348 41.3443 8.47515C42.7653 8.13682 43.6788 7.29099 43.6788 5.66699V4.58432C43.6788 2.21598 42.2917 1.09949 39.4835 1.09949H35.1867V16.6967ZM38.4685 14.2945V9.62549H39.179C40.2617 9.62549 40.6677 9.96381 40.6677 11.351V12.4675C40.6677 13.787 40.2278 14.2606 39.2467 14.2606H38.4685V14.2945ZM38.4685 7.39249V3.46782H39.179C40.0587 3.46782 40.4985 3.70466 40.4985 4.88882V5.86999C40.4985 7.02032 40.1263 7.39249 39.179 7.39249H38.4685ZM52.0018 1.09949V12.4337C52.0018 13.7532 51.6635 14.193 50.8177 14.193C49.938 14.193 49.6335 13.7193 49.6335 12.4675V1.13332H46.284V12.5351C46.284 15.5463 47.908 16.9335 50.8177 16.9335C53.6935 16.9335 55.3852 15.5801 55.3852 12.569V1.13332H52.0018V1.09949ZM61.8473 16.9335C64.6217 16.9335 66.1442 15.5125 66.1442 12.7043V12.3998C66.1442 9.35482 64.554 8.40749 62.6932 7.22332C61.3398 6.30982 60.8662 5.90382 60.8662 4.82115V4.71966C60.8662 3.83999 61.1707 3.50165 61.8135 3.50165C62.3887 3.50165 62.8285 3.77232 62.8285 4.88882V5.39632H65.975V4.92265C65.9412 2.18215 64.4525 0.896484 61.8135 0.896484C59.1407 0.896484 57.6182 2.31748 57.6182 4.92265V5.02415C57.6182 7.59549 58.7008 8.74582 60.697 10.0315C62.0842 10.945 62.8623 11.3848 62.8623 12.772V12.9412C62.8623 13.9562 62.524 14.3622 61.8473 14.3622C61.0353 14.3622 60.7308 13.9562 60.7308 12.6705V12.0953H57.4828V12.6028C57.4828 15.7155 59.1745 16.9335 61.8473 16.9335ZM68.5125 16.6967H71.8958V1.13332H68.5125V16.6967ZM74.5348 16.6967H77.4445V7.02032L80.5233 16.6967H83.7037V1.13332H80.794V9.45632L78.155 1.13332H74.5348V16.6967ZM86.275 16.6967H93.5492V14.0576H89.6245V9.72699H92.5342V7.22332H89.6245V3.73848H93.3123V1.09949H86.2412V16.6967H86.275ZM99.8083 16.9335C102.583 16.9335 104.105 15.5125 104.105 12.7043V12.3998C104.105 9.35482 102.515 8.40749 100.654 7.22332C99.3008 6.30982 98.8272 5.90382 98.8272 4.82115V4.71966C98.8272 3.83999 99.1317 3.50165 99.7745 3.50165C100.35 3.50165 100.789 3.77232 100.789 4.88882V5.39632H103.936V4.92265C103.902 2.18215 102.413 0.896484 99.7745 0.896484C97.1017 0.896484 95.5792 2.31748 95.5792 4.92265V5.02415C95.5792 7.59549 96.6618 8.74582 98.658 10.0315C100.045 10.945 100.823 11.3848 100.823 12.772V12.9412C100.823 13.9562 100.485 14.3622 99.8083 14.3622C98.9963 14.3622 98.6918 13.9562 98.6918 12.6705V12.0953H95.4438V12.6028C95.4438 15.7155 97.1693 16.9335 99.8083 16.9335ZM110.398 16.9335C113.173 16.9335 114.695 15.5125 114.695 12.7043V12.3998C114.695 9.35482 113.105 8.40749 111.244 7.22332C109.891 6.30982 109.417 5.90382 109.417 4.82115V4.71966C109.417 3.83999 109.722 3.50165 110.364 3.50165C110.94 3.50165 111.379 3.77232 111.379 4.88882V5.39632H114.526V4.92265C114.492 2.18215 113.003 0.896484 110.364 0.896484C107.692 0.896484 106.169 2.31748 106.169 4.92265V5.02415C106.169 7.59549 107.252 8.74582 109.248 10.0315C110.635 10.945 111.413 11.3848 111.413 12.772V12.9412C111.413 13.9562 111.075 14.3622 110.398 14.3622C109.586 14.3622 109.282 13.9562 109.282 12.6705V12.0953H106.034V12.6028C106.034 15.7155 107.725 16.9335 110.398 16.9335ZM121.834 16.7982C124.405 16.7982 125.759 15.3772 125.759 12.6705V1.09949H122.375V12.5351C122.375 13.6178 121.901 13.99 121.056 13.99C120.582 13.99 120.277 13.9223 120.041 13.8547V16.4598C120.413 16.6628 120.954 16.7982 121.834 16.7982ZM132.864 16.9335C135.773 16.9335 137.634 15.4448 137.634 12.1968V5.56549C137.634 2.28366 135.706 0.896484 132.864 0.896484C130.123 0.896484 128.127 2.38516 128.127 5.56549V12.2645C128.127 15.4787 129.954 16.9335 132.864 16.9335ZM132.864 14.2268C131.95 14.2268 131.544 13.6517 131.544 12.2306V5.53165C131.544 4.14449 131.984 3.56932 132.864 3.56932C133.777 3.56932 134.217 4.17832 134.217 5.53165V12.1968C134.217 13.6178 133.777 14.2268 132.864 14.2268ZM145.788 1.09949V12.4337C145.788 13.7532 145.449 14.193 144.604 14.193C143.724 14.193 143.419 13.7193 143.419 12.4675V1.13332H140.07V12.5351C140.07 15.5463 141.694 16.9335 144.604 16.9335C147.48 16.9335 149.171 15.5801 149.171 12.569V1.13332H145.788V1.09949ZM151.709 16.6967H155.058V10.2007H155.667L157.393 16.6967H160.878L158.848 9.69315C159.863 9.18565 160.471 8.37365 160.471 6.61432V4.99032C160.471 2.38515 159.254 1.09949 155.972 1.09949H151.743V16.6967H151.709ZM155.058 8.03532V3.67082H155.836C156.784 3.67082 157.156 4.04298 157.156 5.09182V6.51282C157.156 7.62932 156.75 8.00148 155.836 8.00148H155.058V8.03532ZM162.908 16.6967H165.817V7.02032L168.896 16.6967H172.076V1.13332H169.167V9.45632L166.528 1.13332H162.908V16.6967ZM180.365 16.6967H183.749L181.279 1.13332H176.475L174.005 16.6967H177.084L177.49 13.5163H179.926L180.365 16.6967ZM178.708 4.11065L179.621 11.1818H177.794L178.708 4.11065ZM185.711 16.6967H192.579V14.0238H189.061V1.13332H185.711V16.6967ZM198.703 16.9335C201.477 16.9335 203 15.5125 203 12.7043V12.3998C203 9.35482 201.41 8.40749 199.549 7.22332C198.196 6.30982 197.722 5.90382 197.722 4.82115V4.71966C197.722 3.83999 198.027 3.50165 198.669 3.50165C199.245 3.50165 199.684 3.77232 199.684 4.88882V5.39632H202.831V4.92265C202.797 2.18215 201.308 0.896484 198.669 0.896484C195.997 0.896484 194.474 2.31748 194.474 4.92265V5.02415C194.474 7.59549 195.557 8.74582 197.553 10.0315C198.94 10.945 199.718 11.3848 199.718 12.772V12.9412C199.718 13.9562 199.38 14.3622 198.703 14.3622C197.891 14.3622 197.587 13.9562 197.587 12.6705V12.0953H194.339V12.6028C194.339 15.7155 196.03 16.9335 198.703 16.9335Z" fill="white"/>
</svg>
