<svg width="177" height="32" viewBox="0 0 177 32" fill="none" xmlns="http://www.w3.org/2000/svg">
<g clip-path="url(#clip0_0_510)">
<path d="M44.03 23.7215C44.3965 24.2062 45.0481 24.377 45.5297 24.7728C47.0047 25.9809 47.1074 27.4976 45.8909 28.9533C43.0385 32.365 33.5533 31.3539 29.6136 30.3323C22.324 28.4425 16.3605 23.1619 14.443 15.894L12.2757 15.8696C12.0792 15.9149 12.0774 16.2078 12.0349 16.3577C11.7924 17.2172 11.0434 21.6435 11.1036 22.3966C11.2116 23.7477 13.5258 23.1689 14.4607 23.549L13.9206 26.1535C9.72427 26.1448 5.49957 25.7996 1.35986 26.3365L1.80075 23.7215C2.22924 22.9824 4.48323 24.0266 5.13305 21.9468L8.08645 4.19793C7.14802 4.18572 4.32919 5.03647 4.18754 6.03715C4.05652 6.95414 5.32251 7.37603 3.55366 8.18668C0.0637681 9.78532 -1.47844 5.58213 1.83085 3.17982C5.65538 0.40617 17.0157 -0.205741 21.5042 1.00936C29.9501 3.29488 27.6111 12.6357 20.5569 14.8236C22.6852 22.1961 29.835 29.0753 38.0967 28.2525C42.224 27.841 42.1549 23.4112 38.0099 23.7215L38.3782 21.4692C39.0918 21.4273 40.1524 21.3663 40.3737 20.5574L42.6153 6.46252H40.3117L40.6641 4.32345L48.6336 1.23425L45.4377 20.6812C45.4182 21.4465 46.2876 21.4866 46.8648 21.4569L46.5107 23.7233H44.0318L44.03 23.7215ZM12.6901 13.0872C16.4668 13.3748 21.1164 11.0074 20.6384 6.74145C20.2577 3.35241 16.9962 2.86427 14.1862 3.48664L12.6901 13.0855V13.0872Z" fill="white"/>
<path d="M65.4544 23.7216L65.8138 21.4605C66.2671 21.4431 67.1577 21.4501 67.3684 20.9863L68.4645 13.6103H66.1627L66.554 11.6438L66.9169 11.3038L74.219 8.38027C74.5395 8.3454 74.4828 8.37504 74.4899 8.64525C74.504 9.21532 74.2562 9.72961 74.3093 10.2979C76.0675 8.92767 78.943 7.41097 81.027 8.99915C84.0884 11.3335 81.5511 17.3445 81.3758 20.4965C81.3599 21.1432 81.9761 21.3437 82.5249 21.4309C83.2757 20.092 84.0512 19.2604 85.4606 18.5788C82.5745 15.3623 84.3115 10.5699 88.0564 8.92767C90.6769 7.77707 94.0003 7.82065 96.2455 9.7052C96.5607 9.97019 96.6563 10.549 97.1467 10.4705C97.7629 8.88235 99.5017 7.84157 101.226 8.28787C103.475 8.8684 102.273 12.6724 100.638 12.1842C100.082 12.0186 100.128 11.1557 98.9634 11.649C97.5008 12.2696 98.0374 14.5761 97.5876 15.8714C96.3004 19.5725 91.332 21.0979 87.7678 19.8845C87.5429 20.472 87.4189 21.1258 88.2104 21.274C90.7389 21.7464 97.0033 19.7381 97.816 23.6711C99.0537 29.6594 88.7859 31.6677 84.4903 31.3871C81.5458 31.1953 77.1653 29.8024 78.727 26.0664C79.2528 24.8077 80.2639 24.5305 81.2129 23.7199H74.1304L74.4863 21.4553C75.0689 21.5024 75.9807 21.4483 76.2145 20.8033C76.2056 19.4783 77.6434 13.9799 76.9794 13.1553C74.9733 12.2557 73.7462 13.9572 73.3266 15.6936C73.0982 16.6384 72.4926 19.834 72.5192 20.6708C72.544 21.4379 73.323 21.4047 73.9534 21.4535L73.5975 23.7181H65.4526L65.4544 23.7216ZM91.263 11.0319C89.6641 11.4259 89.016 15.5 89.395 16.7971C89.7243 17.9268 91.0416 17.484 91.6295 16.6297C92.4333 15.4617 93.7631 10.4165 91.263 11.0301V11.0319ZM83.9822 24.9768C83.4775 25.0745 82.9889 26.117 82.9765 26.6051C82.8986 29.6525 89.7774 28.6744 91.3125 27.1264C91.6348 26.8021 92.0491 26.3244 91.6791 25.8868C91.2523 25.3813 87.4189 25.7334 86.4398 25.6375C85.8484 25.58 84.2088 24.9332 83.9839 24.9768H83.9822Z" fill="white"/>
<path d="M116.094 8.37994C116.241 7.1997 116.935 5.83641 115.832 4.88978C113.139 2.5816 106.51 4.97694 109.539 8.59437C112.162 11.7254 118.148 12.6895 118.58 18.0467C119.126 24.8126 112.411 27.1836 106.644 26.6606C105.341 26.542 103.716 25.8255 102.54 25.8063C101.905 25.7959 100.385 26.6083 100.159 26.0312L98.9316 18.5L101.928 17.7905C102.46 20.6757 103.999 23.0187 107.174 23.3482C110.161 23.6585 113.265 22.7572 112.512 19.1381C111.868 16.0332 104.585 14.8983 103.397 9.80773C102.124 4.34934 106.745 0.730179 111.928 0.693569C114.17 0.677879 116.549 1.54955 118.816 1.38219C119.628 1.32291 120.599 0.566305 120.51 1.81628C120.379 3.65201 119.129 6.1136 119.065 8.07834L118.837 8.37645H116.092L116.094 8.37994Z" fill="white"/>
<path d="M144.07 23.7214L144.433 21.4656C145.175 21.4342 145.927 21.537 146.285 20.7595C146.689 19.8791 147.339 15.3761 147.432 14.215C147.448 14.0128 147.441 13.8106 147.436 13.6101H145.31L145.649 11.5913L153.049 8.41495L153.458 8.47074L153.104 10.2995C154.974 8.99199 157.339 7.51365 159.598 8.8717C163.278 11.0805 160.229 17.238 160.184 20.5032C160.17 21.5719 161.1 21.4324 161.955 21.4586L161.335 23.7232H153.102L153.461 21.4621C154.722 21.5039 154.904 21.1814 155.174 20.097C155.657 18.1428 155.703 15.8677 156.13 13.8716C155.514 11.8946 153.18 13.1708 152.541 14.5393C152.158 15.3587 151.397 19.8042 151.498 20.6793C151.592 21.4882 152.236 21.4638 152.925 21.4568L152.571 23.7214H144.072H144.07Z" fill="white"/>
<path d="M137.126 8.25504C148.872 6.97543 146.662 25.4321 134.974 24.224C126.348 23.3314 128.119 9.2348 137.126 8.25504ZM137.65 11.1978C137.009 11.3129 136.116 12.5245 135.83 13.0806C135.045 14.6043 133.985 19.6704 135.318 20.9186C137.156 22.6393 138.67 18.9277 139.022 17.6185C139.401 16.2064 140.368 10.7114 137.648 11.196L137.65 11.1978Z" fill="white"/>
<path d="M26.3875 22.6143C22.1309 18.521 25.2472 9.97688 30.9645 8.50376C40.5188 6.04042 42.8153 17.4976 36.5013 22.4975C33.8383 24.607 28.9637 25.0916 26.3875 22.6143ZM34.0596 11.572C32.4147 10.0623 30.9451 12.9353 30.5237 14.1696C29.9995 15.7037 28.7513 22.2221 31.9986 21.2022C34.0401 20.5607 35.5575 12.9458 34.0596 11.572Z" fill="white"/>
<path d="M177 13.7742L167.431 18.0855C167.339 20.1426 169.579 21.4937 171.405 20.5627C173.016 19.7399 171.226 18.7061 172.23 17.8885C173.443 16.9017 175.706 17.151 176.081 18.7915C176.612 21.1101 174.39 23.1063 172.361 23.7722C164.067 26.4971 159.035 18.523 163.828 11.8844C167.46 6.85314 176.072 6.63 177 13.7759V13.7742ZM172.024 13.0647C171.433 8.98699 167.89 12.4458 167.798 14.8289L172.024 13.0647Z" fill="white"/>
<path d="M126.541 9.07724H130.967L129.558 11.966C128.405 11.558 127.215 11.7132 126.01 11.6905C125.847 14.4642 124.903 17.1681 124.972 19.9487C126.119 20.8918 127.453 19.4588 128.396 18.8399L129.468 20.9354C127.584 23.0972 124.08 25.3617 121.167 23.6951C117.936 21.8472 120.923 14.6489 120.877 11.6922H118.929L119.311 9.36838C119.496 8.82272 120.917 9.16964 121.408 9.07899C121.417 8.47579 121.516 6.56161 121.944 6.20771C122.144 6.0421 126.544 4.3406 126.805 4.36152C126.959 4.37372 127.079 4.41556 127.173 4.53934L126.541 9.07724Z" fill="white"/>
<path d="M47.0401 23.7215L47.3995 21.4604C48.3433 21.4395 49.2976 21.3227 49.4694 20.2749L51.6437 6.46249H49.3419L49.7279 4.49078C49.8766 4.18744 50.19 4.12642 50.4609 3.99218C51.2365 3.60691 57.145 1.2011 57.5717 1.23074C57.7665 1.35277 57.6638 1.78686 57.639 1.99432C56.9166 8.16747 55.2629 14.4818 54.5068 20.6811C54.5103 21.4813 55.2434 21.4709 55.8932 21.4552L55.686 23.4321L55.4488 23.7215H47.0383H47.0401Z" fill="white"/>
<path d="M56.2473 23.722L56.4261 21.4557C57.1981 21.426 58.1773 21.4208 58.4677 20.5892C58.8537 19.484 59.3282 15.8543 59.4327 14.566C59.4592 14.2487 59.4327 13.9262 59.4362 13.6089H57.1344L57.5222 11.5518L65.366 8.37891C65.5501 8.39285 65.4545 9.12157 65.4333 9.31682C65.019 13.0493 63.9938 16.9352 63.4998 20.6816C63.5015 21.569 64.5869 21.4766 65.2792 21.4574L64.9251 23.722H56.2491H56.2473Z" fill="white"/>
<path d="M65.0366 6.22532C64.6135 6.64024 63.3917 7.31317 62.8092 7.43171C56.8298 8.6381 59.2078 0.740789 64.4399 1.79551C66.5771 2.22611 66.3274 4.95966 65.0366 6.22532Z" fill="white"/>
</g>
<defs>
<clipPath id="clip0_0_510">
<rect width="177" height="31" fill="white" transform="translate(0 0.415039)"/>
</clipPath>
</defs>
</svg>
