<svg width="57" height="56" viewBox="0 0 57 56" fill="none" xmlns="http://www.w3.org/2000/svg">
<path d="M29.4 15.77H1.5V18.37H29.4V15.77Z" stroke="#FFA400" stroke-width="2" stroke-miterlimit="10"/>
<path d="M3.56006 15.12V5.34002L12.3801 1.52002V5.23002L20.2101 1.67002V4.91002L27.8801 1.78002V15.88" stroke="#FFA400" stroke-width="2" stroke-miterlimit="10"/>
<path d="M24.9501 7.22998L22.3501 8.33998" stroke="#FFA400" stroke-width="2" stroke-miterlimit="10" stroke-linecap="round"/>
<path d="M17.45 7.22998L14.85 8.33998" stroke="#FFA400" stroke-width="2" stroke-miterlimit="10" stroke-linecap="round"/>
<path d="M9.82996 7.22998L7.20996 8.33998" stroke="#FFA400" stroke-width="2" stroke-miterlimit="10" stroke-linecap="round"/>
<path d="M33.8601 9.56982H43.7701C46.7201 9.56982 49.1201 11.9698 49.1201 14.9198V23.4298" stroke="#FFA400" stroke-width="2" stroke-miterlimit="10"/>
<path d="M53.2799 19.3599L48.9699 23.6899L44.6599 19.3599" stroke="#FFA400" stroke-width="2" stroke-miterlimit="10"/>
<path d="M24.1901 50.8001H14.2801C11.3301 50.8001 8.93005 48.4001 8.93005 45.4501V23.3501" stroke="#FFA400" stroke-width="2" stroke-miterlimit="10"/>
<path d="M4.77002 27.4198L9.08002 23.0898L13.39 27.4198" stroke="#FFA400" stroke-width="2" stroke-miterlimit="10"/>
<path d="M40.1201 26.5298H32.6001V49.5498H40.1201V26.5298Z" stroke="#FFA400" stroke-width="2" stroke-miterlimit="10"/>
<path d="M51.9101 29.6401H40.3201V49.5601H51.9101V29.6401Z" stroke="#FFA400" stroke-width="2" stroke-miterlimit="10"/>
<path d="M45.3899 32.1299H43.3899V34.1399H45.3899V32.1299Z" fill="#FFA400"/>
<path d="M49.05 32.1499H47.05V34.1599H49.05V32.1499Z" fill="#FFA400"/>
<path d="M45.3899 36.4302H43.3899V38.4402H45.3899V36.4302Z" fill="#FFA400"/>
<path d="M49.05 36.4502H47.05V38.4602H49.05V36.4502Z" fill="#FFA400"/>
<path d="M45.3899 40.73H43.3899V42.74H45.3899V40.73Z" fill="#FFA400"/>
<path d="M49.05 40.7402H47.05V42.7502H49.05V40.7402Z" fill="#FFA400"/>
<path d="M47.3099 45.0698H45.4399V49.5298H47.3099V45.0698Z" stroke="#FFA400" stroke-miterlimit="10"/>
<path d="M53.55 49.8599H30.71V52.1799H53.55V49.8599Z" stroke="#FFA400" stroke-width="2" stroke-miterlimit="10"/>
<path d="M34.7 29.5801H38.1199" stroke="#FFA400" stroke-miterlimit="10"/>
<path d="M34.7 31.6602H38.1199" stroke="#FFA400" stroke-miterlimit="10"/>
<path d="M34.7 33.7402H38.1199" stroke="#FFA400" stroke-miterlimit="10"/>
<path d="M34.7 35.8198H38.1199" stroke="#FFA400" stroke-miterlimit="10"/>
</svg>
