<svg width="57" height="56" viewBox="0 0 57 56" fill="none" xmlns="http://www.w3.org/2000/svg">
<path d="M46.6499 43.7401L27.1599 54.3501V32.4801L46.6499 21.8701V43.7401Z" stroke="#FFA400" stroke-width="2" stroke-linejoin="round"/>
<path d="M27.49 11.2598L8 21.8698L27.16 32.4798L46.65 21.8698L27.49 11.2598Z" stroke="#FFA400" stroke-width="2" stroke-linejoin="round"/>
<path d="M27.49 11.2598L36.36 11.4798L55.53 22.0898L46.65 21.8698L27.49 11.2598Z" stroke="#FFA400" stroke-width="2" stroke-linejoin="round"/>
<path d="M8 43.7401L27.16 54.3501V32.4801L8 21.8701V43.7401Z" stroke="#FFA400" stroke-width="2" stroke-linejoin="round"/>
<path d="M38.62 20.9201L26.78 27.3701V14.0801L38.62 7.64014V20.9201Z" fill="#FEEACD" stroke="#FFA400" stroke-width="2" stroke-linejoin="round"/>
<path d="M26.9799 1.18994L15.1399 7.63994L26.7799 14.0799L38.6199 7.63994L26.9799 1.18994Z" fill="#FEEACD" stroke="#FFA400" stroke-width="2" stroke-linejoin="round"/>
<path d="M23.32 3.21973L19.22 5.43973L30.87 11.8897L34.96 9.65973L23.32 3.21973Z" fill="#FEEACD" stroke="#FFA400" stroke-width="2" stroke-linejoin="round"/>
<path d="M34.89 13.7402L30.79 15.9602L30.87 11.8902L34.96 9.66016L34.89 13.7402Z" fill="#FEEACD" stroke="#FFA400" stroke-width="2" stroke-linejoin="round"/>
<path d="M15.1399 20.9201L26.7799 27.3701V14.0801L15.1399 7.64014V20.9201Z" fill="#FEEACD" stroke="#FFA400" stroke-width="2" stroke-linejoin="round"/>
<path d="M1.5 29.6701L20.66 40.2801L27.16 32.4801L8 21.8701L1.5 29.6701Z" fill="#FEEACD" stroke="#FFA400" stroke-width="2" stroke-linejoin="round"/>
</svg>
