<svg width="56" height="56" viewBox="0 0 56 56" fill="none" xmlns="http://www.w3.org/2000/svg">
<path d="M50.1 7H5.17C2.86697 7 1 8.86697 1 11.17V41.4C1 43.703 2.86697 45.57 5.17 45.57H50.1C52.403 45.57 54.27 43.703 54.27 41.4V11.17C54.27 8.86697 52.403 7 50.1 7Z" fill="#FEEACD" stroke="#FFA400" stroke-width="2" stroke-miterlimit="10"/>
<path d="M14.02 45.96H6.76001V50.77H14.02V45.96Z" fill="#FFA400"/>
<path d="M48.51 45.96H41.25V50.77H48.51V45.96Z" fill="#FFA400"/>
<path d="M49.4799 11.6401H5.41992V34.8601H49.4799V11.6401Z" stroke="#FFA400" stroke-width="2" stroke-miterlimit="10"/>
<path d="M9.04918 16.1798C9.95428 15.2747 11.4321 15.2677 12.3443 16.1798L16.7354 20.571L13.4474 23.859L9.05625 19.4679C8.15115 18.5628 8.14408 17.0849 9.05625 16.1728L9.04918 16.1798Z" fill="#FFA400"/>
<path d="M17.8165 16.1937C18.7216 17.0988 18.7287 18.5767 17.8165 19.4888L13.4395 23.8658L10.1515 20.5778L14.5285 16.2008C15.4336 15.2957 16.9114 15.2886 17.8236 16.2008L17.8165 16.1937Z" fill="#FFA400"/>
<path d="M8.23999 28.42H18.63L19.95 26.28L21.27 28.42L24.24 28.4L25.74 30.55L27.04 28.38L34.24 28.32L36.61 24.79L40.57 30.57L41.89 28.42H46.57" stroke="#FFA400" stroke-width="2" stroke-miterlimit="10"/>
<path d="M45.1399 41.8799C46.25 41.8799 47.1499 40.98 47.1499 39.8699C47.1499 38.7598 46.25 37.8599 45.1399 37.8599C44.0298 37.8599 43.1299 38.7598 43.1299 39.8699C43.1299 40.98 44.0298 41.8799 45.1399 41.8799Z" fill="#FEEACD" stroke="#FFA400" stroke-width="2" stroke-miterlimit="10"/>
<path d="M38.3401 41.8799C39.4502 41.8799 40.3501 40.98 40.3501 39.8699C40.3501 38.7598 39.4502 37.8599 38.3401 37.8599C37.23 37.8599 36.3301 38.7598 36.3301 39.8699C36.3301 40.98 37.23 41.8799 38.3401 41.8799Z" fill="#FEEACD" stroke="#FFA400" stroke-width="2" stroke-miterlimit="10"/>
<path d="M8.6599 41.8799C9.76999 41.8799 10.6699 40.98 10.6699 39.8699C10.6699 38.7598 9.76999 37.8599 8.6599 37.8599C7.54981 37.8599 6.6499 38.7598 6.6499 39.8699C6.6499 40.98 7.54981 41.8799 8.6599 41.8799Z" fill="#FFA400"/>
<path d="M13.5 41.8799C14.6101 41.8799 15.51 40.98 15.51 39.8699C15.51 38.7598 14.6101 37.8599 13.5 37.8599C12.3899 37.8599 11.49 38.7598 11.49 39.8699C11.49 40.98 12.3899 41.8799 13.5 41.8799Z" fill="#FFA400"/>
</svg>
