<svg width="57" height="56" viewBox="0 0 57 56" fill="none" xmlns="http://www.w3.org/2000/svg">
<path d="M1 38.5903H7.34V46.4603H1" stroke="#FFA400" stroke-width="2" stroke-miterlimit="10"/>
<path d="M21.6401 38.5903H7.34009V46.4603H21.6401V38.5903Z" stroke="#FFA400" stroke-width="2" stroke-miterlimit="10"/>
<path d="M35.9399 38.5903H21.6399V46.4603H35.9399V38.5903Z" stroke="#FFA400" stroke-width="2" stroke-miterlimit="10"/>
<path d="M50.2399 38.5903H35.9399V46.4603H50.2399V38.5903Z" stroke="#FFA400" stroke-width="2" stroke-miterlimit="10"/>
<path d="M56.66 46.4603H50.23V38.5903H56.66" stroke="#FFA400" stroke-width="2" stroke-miterlimit="10"/>
<path d="M14.4899 30.7202H1.87988V38.5902H14.4899V30.7202Z" stroke="#FFA400" stroke-width="2" stroke-miterlimit="10"/>
<path d="M28.79 30.7202H14.49V38.5902H28.79V30.7202Z" stroke="#FFA400" stroke-width="2" stroke-miterlimit="10"/>
<path d="M43.09 30.7202H28.79V38.5902H43.09V30.7202Z" stroke="#FFA400" stroke-width="2" stroke-miterlimit="10"/>
<path d="M55.6801 30.7202H43.0901V38.5902H55.6801V30.7202Z" stroke="#FFA400" stroke-width="2" stroke-miterlimit="10"/>
<path d="M1 22.8604H7.34V30.7204H1" stroke="#FFA400" stroke-width="2" stroke-miterlimit="10"/>
<path d="M21.6401 22.8604H7.34009V30.7304H21.6401V22.8604Z" stroke="#FFA400" stroke-width="2" stroke-miterlimit="10"/>
<path d="M35.9399 22.8604H21.6399V30.7304H35.9399V22.8604Z" stroke="#FFA400" stroke-width="2" stroke-miterlimit="10"/>
<path d="M50.2399 22.8604H35.9399V30.7304H50.2399V22.8604Z" stroke="#FFA400" stroke-width="2" stroke-miterlimit="10"/>
<path d="M56.66 30.7204H50.23V22.8604H56.66" stroke="#FFA400" stroke-width="2" stroke-miterlimit="10"/>
<path d="M47.46 14.1303L35.06 3.60025C34.02 2.72025 32.42 3.14026 31.95 4.42026L28.08 14.9703C27.61 16.2503 28.56 17.6103 29.92 17.6103H46.19C48.02 17.6003 48.85 15.3203 47.46 14.1403V14.1303Z" stroke="#FFA400" stroke-width="2" stroke-miterlimit="10"/>
<path d="M25.1699 7.09033L32.8699 9.92033C33.2699 10.0703 33.4699 10.5103 33.3299 10.9103C33.1799 11.3103 32.7399 11.5103 32.3399 11.3703L24.6399 8.54033" fill="white"/>
<path d="M25.1699 7.09033L32.8699 9.92033C33.2699 10.0703 33.4699 10.5103 33.3299 10.9103C33.1799 11.3103 32.7399 11.5103 32.3399 11.3703L24.6399 8.54033" stroke="#FFA400" stroke-width="2" stroke-miterlimit="10"/>
<path d="M23.7201 9.52038L12.1801 5.29038C11.1401 4.91038 10.6001 3.75038 10.9801 2.71038C11.3601 1.67038 12.5201 1.13038 13.5601 1.51038L25.1001 5.74038L23.7101 9.52038H23.7201Z" stroke="#FFA400" stroke-width="2" stroke-miterlimit="10"/>
</svg>
