<svg width="56" height="56" viewBox="0 0 56 56" fill="none" xmlns="http://www.w3.org/2000/svg">
<path d="M28.38 54.8098C42.9438 54.8098 54.75 43.0036 54.75 28.4398C54.75 13.8761 42.9438 2.06982 28.38 2.06982C13.8163 2.06982 2.01001 13.8761 2.01001 28.4398C2.01001 43.0036 13.8163 54.8098 28.38 54.8098Z" stroke="#FFA400" stroke-width="2" stroke-miterlimit="10"/>
<path d="M28.38 42.8001C36.3108 42.8001 42.74 36.3709 42.74 28.4401C42.74 20.5093 36.3108 14.0801 28.38 14.0801C20.4492 14.0801 14.02 20.5093 14.02 28.4401C14.02 36.3709 20.4492 42.8001 28.38 42.8001Z" stroke="#FFA400" stroke-width="2" stroke-miterlimit="10"/>
<path d="M28.38 45.4799C37.7909 45.4799 45.42 37.8508 45.42 28.4399C45.42 19.029 37.7909 11.3999 28.38 11.3999C18.969 11.3999 11.34 19.029 11.34 28.4399C11.34 37.8508 18.969 45.4799 28.38 45.4799Z" stroke="#FFA400" stroke-width="2" stroke-miterlimit="10"/>
<path d="M28.3301 5.1V2" stroke="#FFA400" stroke-width="2" stroke-miterlimit="10"/>
<path d="M28.3301 54.6398V51.5498" stroke="#FFA400" stroke-width="2" stroke-miterlimit="10"/>
<path d="M51.55 28.3198H54.65" stroke="#FFA400" stroke-width="2" stroke-miterlimit="10"/>
<path d="M2 28.3198H5.1" stroke="#FFA400" stroke-width="2" stroke-miterlimit="10"/>
<path d="M44.75 11.9L46.94 9.70996" stroke="#FFA400" stroke-width="2" stroke-miterlimit="10"/>
<path d="M9.70996 46.9302L11.9 44.7402" stroke="#FFA400" stroke-width="2" stroke-miterlimit="10"/>
<path d="M44.75 44.7402L46.94 46.9302" stroke="#FFA400" stroke-width="2" stroke-miterlimit="10"/>
<path d="M9.70996 9.70996L11.9 11.9" stroke="#FFA400" stroke-width="2" stroke-miterlimit="10"/>
<path d="M39.8301 8.14996L41.3601 5.45996" stroke="#FFA400" stroke-width="2" stroke-miterlimit="10"/>
<path d="M15.29 51.19L16.82 48.5" stroke="#FFA400" stroke-width="2" stroke-miterlimit="10"/>
<path d="M48.5 39.8301L51.19 41.3601" stroke="#FFA400" stroke-width="2" stroke-miterlimit="10"/>
<path d="M5.45996 15.2798L8.14996 16.8198" stroke="#FFA400" stroke-width="2" stroke-miterlimit="10"/>
<path d="M50.73 22.1901L53.71 21.3701" stroke="#FFA400" stroke-width="2" stroke-miterlimit="10"/>
<path d="M2.93994 35.2702L5.91994 34.4502" stroke="#FFA400" stroke-width="2" stroke-miterlimit="10"/>
<path d="M34.46 50.7202L35.27 53.7102" stroke="#FFA400" stroke-width="2" stroke-miterlimit="10"/>
<path d="M21.3799 2.93018L22.1899 5.92018" stroke="#FFA400" stroke-width="2" stroke-miterlimit="10"/>
<path d="M16.44 8.36996L14.86 5.70996" stroke="#FFA400" stroke-width="2" stroke-miterlimit="10"/>
<path d="M41.79 50.9398L40.21 48.2798" stroke="#FFA400" stroke-width="2" stroke-miterlimit="10"/>
<path d="M48.28 16.4399L50.94 14.8599" stroke="#FFA400" stroke-width="2" stroke-miterlimit="10"/>
<path d="M5.70996 41.7902L8.36996 40.2002" stroke="#FFA400" stroke-width="2" stroke-miterlimit="10"/>
<path d="M34.04 5.81006L34.8 2.81006" stroke="#FFA400" stroke-width="2" stroke-miterlimit="10"/>
<path d="M21.8501 53.8301L22.6201 50.8301" stroke="#FFA400" stroke-width="2" stroke-miterlimit="10"/>
<path d="M50.8401 34.0298L53.8401 34.7898" stroke="#FFA400" stroke-width="2" stroke-miterlimit="10"/>
<path d="M2.81006 21.8501L5.81006 22.6101" stroke="#FFA400" stroke-width="2" stroke-miterlimit="10"/>
<path d="M39.02 29.1002L45.25 27.0602C45.02 24.2302 44.1 21.5902 42.65 19.3302L36.49 21.3202C34.23 22.0502 31.91 20.3702 31.91 17.9902V11.8602C30.76 11.6202 29.58 11.4902 28.37 11.4902C26.76 11.4902 25.21 11.7202 23.74 12.1402V17.9902C23.73 20.3702 21.41 22.0502 19.15 21.3202L13.9 19.6202C12.5 21.9102 11.63 24.5702 11.46 27.4102L16.62 29.1002C18.88 29.8402 19.76 32.5602 18.37 34.4902L15.11 38.9902C16.82 41.1302 19.03 42.8602 21.58 43.9702L24.98 39.3002C26.38 37.3802 29.24 37.3802 30.64 39.3002L34.3 44.3102C36.91 43.3302 39.21 41.7302 41.03 39.6902L37.26 34.4902C35.87 32.5702 36.75 29.8402 39.01 29.1002H39.02Z" fill="#FEEACD" stroke="#FFA400" stroke-width="2" stroke-miterlimit="10"/>
<path d="M28.3801 31.7099C30.1861 31.7099 31.6501 30.2459 31.6501 28.4399C31.6501 26.634 30.1861 25.1699 28.3801 25.1699C26.5741 25.1699 25.1101 26.634 25.1101 28.4399C25.1101 30.2459 26.5741 31.7099 28.3801 31.7099Z" fill="#FEEACD" stroke="#FFA400" stroke-width="2" stroke-miterlimit="10"/>
</svg>
