<svg width="56" height="56" viewBox="0 0 56 56" fill="none" xmlns="http://www.w3.org/2000/svg">
<path d="M49.999 19.73V45.9C49.999 48.17 48.139 50.03 45.869 50.03C43.599 50.03 41.739 48.17 41.739 45.9V19.73" stroke="#FFA400" stroke-width="2" stroke-miterlimit="10" stroke-linecap="round"/>
<path d="M46.8189 35.8301V45.6901C46.8189 46.2101 46.3889 46.6401 45.8689 46.6401C45.3489 46.6401 44.9189 46.2101 44.9189 45.6901V35.8301H46.8289H46.8189Z" stroke="#FFA400" stroke-width="2" stroke-miterlimit="10"/>
<path d="M16.539 6.5198V23.7498L4.539 44.5498C3.009 47.1898 4.919 50.4998 7.969 50.4998H33.959C37.009 50.4998 38.919 47.1998 37.389 44.5498L25.149 23.3598V6.2998" stroke="#FFA400" stroke-width="2" stroke-miterlimit="10" stroke-linecap="round"/>
<path d="M51.3289 18.7202H40.4089C40.2653 18.7202 40.1489 18.8366 40.1489 18.9802C40.1489 19.1238 40.2653 19.2402 40.4089 19.2402H51.3289C51.4725 19.2402 51.5889 19.1238 51.5889 18.9802C51.5889 18.8366 51.4725 18.7202 51.3289 18.7202Z" stroke="#FFA400" stroke-width="2" stroke-miterlimit="10" stroke-linecap="round"/>
<path d="M26.169 5H15.689C15.5509 5 15.439 5.11193 15.439 5.25V5.26C15.439 5.39807 15.5509 5.51 15.689 5.51H26.169C26.307 5.51 26.419 5.39807 26.419 5.26V5.25C26.419 5.11193 26.307 5 26.169 5Z" stroke="#FFA400" stroke-width="2" stroke-miterlimit="10" stroke-linecap="round"/>
<path d="M27.9091 35.6201H14.0191L8.04906 45.9701C7.73906 46.5001 8.12906 47.1701 8.73906 47.1701H33.1991C33.8091 47.1701 34.1991 46.5101 33.8891 45.9701L27.9191 35.6201H27.9091Z" stroke="#FFA400" stroke-width="2" stroke-miterlimit="10"/>
<path d="M20.679 10.3701H16.269" stroke="#FFA400" stroke-miterlimit="10"/>
<path d="M20.679 12.7598H16.269" stroke="#FFA400" stroke-miterlimit="10"/>
<path d="M20.679 15.1602H16.269" stroke="#FFA400" stroke-miterlimit="10"/>
</svg>
