<svg width="56" height="56" viewBox="0 0 56 56" fill="none" xmlns="http://www.w3.org/2000/svg">
<path d="M16.08 28.92C20.8296 28.92 24.68 22.6699 24.68 14.96C24.68 7.2501 20.8296 1 16.08 1C11.3303 1 7.47998 7.2501 7.47998 14.96C7.47998 22.6699 11.3303 28.92 16.08 28.92Z" stroke="#FFA400" stroke-width="2" stroke-miterlimit="10"/>
<path d="M19.2101 18.0899C20.2484 18.0899 21.0901 16.6438 21.0901 14.8599C21.0901 13.076 20.2484 11.6299 19.2101 11.6299C18.1718 11.6299 17.3301 13.076 17.3301 14.8599C17.3301 16.6438 18.1718 18.0899 19.2101 18.0899Z" fill="#FFA400"/>
<path d="M13.48 7.29004H4.8C3.26 7.29004 2 8.55004 2 10.09C2 11.63 3.26 12.89 4.8 12.89H13.45C13.45 12.89 13.47 12.89 13.48 12.89C14.38 12.89 15.11 11.64 15.11 10.09C15.11 8.54004 14.39 7.30004 13.49 7.29004H13.48Z" fill="white" stroke="#FFA400" stroke-width="2" stroke-miterlimit="10"/>
<path d="M13.48 17.21H4.8C3.26 17.21 2 18.47 2 20.01C2 21.55 3.26 22.81 4.8 22.81H13.45C13.45 22.81 13.47 22.81 13.48 22.81C14.38 22.81 15.11 21.56 15.11 20.01C15.11 18.46 14.39 17.22 13.49 17.21H13.48Z" fill="white" stroke="#FFA400" stroke-width="2" stroke-miterlimit="10"/>
<path d="M16.95 28.8301L29.62 25.6101V25.5901C32.76 24.7401 35.16 20.3101 35.16 14.9501C35.16 9.59008 32.76 5.17008 29.62 4.31008V4.28008L16.95 1.08008" stroke="#FFA400" stroke-width="2" stroke-miterlimit="10"/>
<path d="M35.54 15.0498H42.11C49.12 15.0498 54.8 20.7298 54.8 27.7398C54.8 34.7498 49.12 40.4298 42.11 40.4298H10.08C6.29999 40.4298 3.23999 43.4898 3.23999 47.2698C3.23999 51.0498 6.29999 54.1098 10.08 54.1098H13.12" stroke="#FFA400" stroke-width="2" stroke-miterlimit="10"/>
<path d="M36.1101 15.0498H37.9201" stroke="#FFA400" stroke-width="4" stroke-linecap="round" stroke-linejoin="round"/>
</svg>
