<svg width="56" height="56" viewBox="0 0 56 56" fill="none" xmlns="http://www.w3.org/2000/svg">
<mask id="mask0_0_356" style="mask-type:luminance" maskUnits="userSpaceOnUse" x="2" y="13" width="53" height="29">
<path d="M54.67 41.6101H2L5.52 13.3701H51.16L54.67 41.6101Z" fill="white"/>
</mask>
<g mask="url(#mask0_0_356)">
<path d="M-1.82012 28.52H4.51988C5.23988 28.52 5.81988 29.1 5.81988 29.82V36.16C5.81988 38.63 3.81988 40.63 1.34988 40.63C-1.12012 40.63 -3.12012 38.63 -3.12012 36.16V29.82C-3.12012 29.1 -2.54012 28.52 -1.82012 28.52Z" fill="#FEEACD" stroke="#FFA400" stroke-width="2" stroke-miterlimit="10"/>
<path d="M7.33979 28.52H13.6798C14.3998 28.52 14.9798 29.1 14.9798 29.82V36.16C14.9798 38.63 12.9798 40.63 10.5098 40.63C8.03979 40.63 6.03979 38.63 6.03979 36.16V29.82C6.03979 29.1 6.61979 28.52 7.33979 28.52Z" fill="#FEEACD" stroke="#FFA400" stroke-width="2" stroke-miterlimit="10"/>
<path d="M16.4899 28.52H22.8299C23.5499 28.52 24.1299 29.1 24.1299 29.82V36.16C24.1299 38.63 22.1299 40.63 19.6599 40.63C17.1899 40.63 15.1899 38.63 15.1899 36.16V29.82C15.1899 29.1 15.7699 28.52 16.4899 28.52Z" fill="#FEEACD" stroke="#FFA400" stroke-width="2" stroke-miterlimit="10"/>
<path d="M25.6398 28.52H31.9798C32.6998 28.52 33.2798 29.1 33.2798 29.82V36.16C33.2798 38.63 31.2798 40.63 28.8098 40.63C26.3398 40.63 24.3398 38.63 24.3398 36.16V29.82C24.3398 29.1 24.9198 28.52 25.6398 28.52Z" fill="#FEEACD" stroke="#FFA400" stroke-width="2" stroke-miterlimit="10"/>
<path d="M34.8 28.52H41.14C41.86 28.52 42.44 29.1 42.44 29.82V36.16C42.44 38.63 40.44 40.63 37.97 40.63C35.5 40.63 33.5 38.63 33.5 36.16V29.82C33.5 29.1 34.08 28.52 34.8 28.52Z" fill="#FEEACD" stroke="#FFA400" stroke-width="2" stroke-miterlimit="10"/>
<path d="M43.9499 28.52H50.2899C51.0099 28.52 51.5899 29.1 51.5899 29.82V36.16C51.5899 38.63 49.5899 40.63 47.1199 40.63C44.6499 40.63 42.6499 38.63 42.6499 36.16V29.82C42.6499 29.1 43.2299 28.52 43.9499 28.52Z" fill="#FEEACD" stroke="#FFA400" stroke-width="2" stroke-miterlimit="10"/>
<path d="M53.0998 28.52H59.4398C60.1598 28.52 60.7398 29.1 60.7398 29.82V36.16C60.7398 38.63 58.7398 40.63 56.2698 40.63C53.7998 40.63 51.7998 38.63 51.7998 36.16V29.82C51.7998 29.1 52.3798 28.52 53.0998 28.52Z" fill="#FEEACD" stroke="#FFA400" stroke-width="2" stroke-miterlimit="10"/>
<path d="M2.6999 21.5601H9.0399C9.7599 21.5601 10.3399 22.1401 10.3399 22.8601V29.2001C10.3399 31.6701 8.3399 33.6701 5.8699 33.6701C3.3999 33.6701 1.3999 31.6701 1.3999 29.2001V22.8601C1.3999 22.1401 1.9799 21.5601 2.6999 21.5601Z" fill="#FEEACD" stroke="#FFA400" stroke-width="2" stroke-miterlimit="10"/>
<path d="M11.8498 21.5601H18.1898C18.9098 21.5601 19.4898 22.1401 19.4898 22.8601V29.2001C19.4898 31.6701 17.4898 33.6701 15.0198 33.6701C12.5498 33.6701 10.5498 31.6701 10.5498 29.2001V22.8601C10.5498 22.1401 11.1298 21.5601 11.8498 21.5601Z" fill="#FEEACD" stroke="#FFA400" stroke-width="2" stroke-miterlimit="10"/>
<path d="M21 21.5601H27.34C28.06 21.5601 28.6399 22.1401 28.6399 22.8601V29.2001C28.6399 31.6701 26.64 33.6701 24.17 33.6701C21.7 33.6701 19.7 31.6701 19.7 29.2001V22.8601C19.7 22.1401 20.28 21.5601 21 21.5601Z" fill="#FEEACD" stroke="#FFA400" stroke-width="2" stroke-miterlimit="10"/>
<path d="M30.1599 21.5601H36.4999C37.2199 21.5601 37.7999 22.1401 37.7999 22.8601V29.2001C37.7999 31.6701 35.7999 33.6701 33.3299 33.6701C30.8599 33.6701 28.8599 31.6701 28.8599 29.2001V22.8601C28.8599 22.1401 29.4399 21.5601 30.1599 21.5601Z" fill="#FEEACD" stroke="#FFA400" stroke-width="2" stroke-miterlimit="10"/>
<path d="M39.3098 21.5601H45.6498C46.3698 21.5601 46.9498 22.1401 46.9498 22.8601V29.2001C46.9498 31.6701 44.9498 33.6701 42.4798 33.6701C40.0098 33.6701 38.0098 31.6701 38.0098 29.2001V22.8601C38.0098 22.1401 38.5898 21.5601 39.3098 21.5601Z" fill="#FEEACD" stroke="#FFA400" stroke-width="2" stroke-miterlimit="10"/>
<path d="M48.4599 21.5601H54.7999C55.5199 21.5601 56.0999 22.1401 56.0999 22.8601V29.2001C56.0999 31.6701 54.0999 33.6701 51.6299 33.6701C49.1599 33.6701 47.1599 31.6701 47.1599 29.2001V22.8601C47.1599 22.1401 47.7399 21.5601 48.4599 21.5601Z" fill="#FEEACD" stroke="#FFA400" stroke-width="2" stroke-miterlimit="10"/>
<path d="M-1.82012 14.3403H4.51988C5.23988 14.3403 5.81988 14.9203 5.81988 15.6403V21.9803C5.81988 24.4503 3.81988 26.4503 1.34988 26.4503C-1.12012 26.4503 -3.12012 24.4503 -3.12012 21.9803V15.6403C-3.12012 14.9203 -2.54012 14.3403 -1.82012 14.3403Z" fill="#FEEACD" stroke="#FFA400" stroke-width="2" stroke-miterlimit="10"/>
<path d="M7.33979 14.3403H13.6798C14.3998 14.3403 14.9798 14.9203 14.9798 15.6403V21.9803C14.9798 24.4503 12.9798 26.4503 10.5098 26.4503C8.03979 26.4503 6.03979 24.4503 6.03979 21.9803V15.6403C6.03979 14.9203 6.61979 14.3403 7.33979 14.3403Z" fill="#FEEACD" stroke="#FFA400" stroke-width="2" stroke-miterlimit="10"/>
<path d="M16.4899 14.3403H22.8299C23.5499 14.3403 24.1299 14.9203 24.1299 15.6403V21.9803C24.1299 24.4503 22.1299 26.4503 19.6599 26.4503C17.1899 26.4503 15.1899 24.4503 15.1899 21.9803V15.6403C15.1899 14.9203 15.7699 14.3403 16.4899 14.3403Z" fill="#FEEACD" stroke="#FFA400" stroke-width="2" stroke-miterlimit="10"/>
<path d="M25.6398 14.3403H31.9798C32.6998 14.3403 33.2798 14.9203 33.2798 15.6403V21.9803C33.2798 24.4503 31.2798 26.4503 28.8098 26.4503C26.3398 26.4503 24.3398 24.4503 24.3398 21.9803V15.6403C24.3398 14.9203 24.9198 14.3403 25.6398 14.3403Z" fill="#FEEACD" stroke="#FFA400" stroke-width="2" stroke-miterlimit="10"/>
<path d="M34.8 14.3403H41.14C41.86 14.3403 42.44 14.9203 42.44 15.6403V21.9803C42.44 24.4503 40.44 26.4503 37.97 26.4503C35.5 26.4503 33.5 24.4503 33.5 21.9803V15.6403C33.5 14.9203 34.08 14.3403 34.8 14.3403Z" fill="#FEEACD" stroke="#FFA400" stroke-width="2" stroke-miterlimit="10"/>
<path d="M43.9499 14.3403H50.2899C51.0099 14.3403 51.5899 14.9203 51.5899 15.6403V21.9803C51.5899 24.4503 49.5899 26.4503 47.1199 26.4503C44.6499 26.4503 42.6499 24.4503 42.6499 21.9803V15.6403C42.6499 14.9203 43.2299 14.3403 43.9499 14.3403Z" fill="#FEEACD" stroke="#FFA400" stroke-width="2" stroke-miterlimit="10"/>
<path d="M53.0998 14.3403H59.4398C60.1598 14.3403 60.7398 14.9203 60.7398 15.6403V21.9803C60.7398 24.4503 58.7398 26.4503 56.2698 26.4503C53.7998 26.4503 51.7998 24.4503 51.7998 21.9803V15.6403C51.7998 14.9203 52.3798 14.3403 53.0998 14.3403Z" fill="#FEEACD" stroke="#FFA400" stroke-width="2" stroke-miterlimit="10"/>
<path d="M2.69989 7.38037H9.03989C9.75989 7.38037 10.3399 7.96037 10.3399 8.68037V15.0204C10.3399 17.4904 8.33989 19.4904 5.86989 19.4904C3.39989 19.4904 1.38989 17.4904 1.38989 15.0204V8.68037C1.38989 7.96037 1.96989 7.38037 2.68989 7.38037H2.69989Z" fill="#FEEACD" stroke="#FFA400" stroke-width="2" stroke-miterlimit="10"/>
<path d="M11.8498 7.38037H18.1898C18.9098 7.38037 19.4898 7.96037 19.4898 8.68037V15.0204C19.4898 17.4904 17.4898 19.4904 15.0198 19.4904C12.5498 19.4904 10.5498 17.4904 10.5498 15.0204V8.68037C10.5498 7.96037 11.1298 7.38037 11.8498 7.38037Z" fill="#FEEACD" stroke="#FFA400" stroke-width="2" stroke-miterlimit="10"/>
<path d="M21 7.38037H27.34C28.06 7.38037 28.6399 7.96037 28.6399 8.68037V15.0204C28.6399 17.4904 26.64 19.4904 24.17 19.4904C21.7 19.4904 19.7 17.4904 19.7 15.0204V8.68037C19.7 7.96037 20.28 7.38037 21 7.38037Z" fill="#FEEACD" stroke="#FFA400" stroke-width="2" stroke-miterlimit="10"/>
<path d="M30.1599 7.38037H36.4999C37.2199 7.38037 37.7999 7.96037 37.7999 8.68037V15.0204C37.7999 17.4904 35.7999 19.4904 33.3299 19.4904C30.8599 19.4904 28.8599 17.4904 28.8599 15.0204V8.68037C28.8599 7.96037 29.4399 7.38037 30.1599 7.38037Z" fill="#FEEACD" stroke="#FFA400" stroke-width="2" stroke-miterlimit="10"/>
<path d="M39.3098 7.38037H45.6498C46.3698 7.38037 46.9498 7.96037 46.9498 8.68037V15.0204C46.9498 17.4904 44.9498 19.4904 42.4798 19.4904C40.0098 19.4904 38.0098 17.4904 38.0098 15.0204V8.68037C38.0098 7.96037 38.5898 7.38037 39.3098 7.38037Z" fill="#FEEACD" stroke="#FFA400" stroke-width="2" stroke-miterlimit="10"/>
<path d="M48.4599 7.38037H54.7999C55.5199 7.38037 56.0999 7.96037 56.0999 8.68037V15.0204C56.0999 17.4904 54.0999 19.4904 51.6299 19.4904C49.1599 19.4904 47.1599 17.4904 47.1599 15.0204V8.68037C47.1599 7.96037 47.7399 7.38037 48.4599 7.38037Z" fill="#FEEACD" stroke="#FFA400" stroke-width="2" stroke-miterlimit="10"/>
</g>
<path d="M2 43.2501L5.52 13.3701H51.16L54.67 43.2501" stroke="#FFA400" stroke-width="2" stroke-miterlimit="10"/>
<path d="M5.94995 50.8601V38.3501" stroke="#FFA400" stroke-width="2" stroke-miterlimit="10"/>
<path d="M50.8401 50.8601V38.3501" stroke="#FFA400" stroke-width="2" stroke-miterlimit="10"/>
<path d="M45.62 7.54004H41V13.48H45.62V7.54004Z" stroke="#FFA400" stroke-width="2" stroke-miterlimit="10"/>
<path d="M46.8101 6H39.8201V7.54H46.8101V6Z" stroke="#FFA400" stroke-width="2" stroke-miterlimit="10"/>
</svg>
