<svg width="187" height="43" viewBox="0 0 187 43" fill="none" xmlns="http://www.w3.org/2000/svg">
<g clip-path="url(#clip0_53_2954)">
<path d="M181.35 23.8602L183.53 17.0502C183.72 16.4402 183.75 15.7902 183.6 15.1702L182.59 10.9002C182.58 10.8502 182.59 10.7902 182.63 10.7602L186.96 7.01024C186.96 7.01024 187.01 6.93024 186.99 6.88024L186.71 6.05024C186.58 5.65024 186.22 5.37024 185.8 5.34024L179.79 4.83024C179.09 4.77024 178.43 4.47024 177.92 3.99024L173.86 0.220241C173.74 0.110241 173.58 0.0402408 173.41 0.0402408C172.69 0.0302408 170.62 -0.00975915 169.66 0.0402408C162.85 0.330241 158.92 9.15024 164.42 13.7502C166.52 15.4502 169.91 15.8202 171.85 14.4402C173.42 13.3402 174.26 11.3102 173.78 9.42024C173.31 7.47024 171.25 6.10024 169.28 6.62024C167.94 6.91024 166.91 8.39024 167.17 9.67024C167.19 9.75024 167.25 9.80024 167.33 9.80024C167.52 9.80024 167.88 9.80024 168.06 9.80024C168.13 9.80024 168.19 9.75024 168.22 9.69024C168.76 8.45024 170.34 8.50024 171 9.57024C171.69 10.8002 170.45 12.3702 169.14 12.2502C167.48 12.1902 166.45 11.4602 165.89 10.0002C165.7 9.51024 165.76 8.76024 165.81 8.26024C165.91 6.11024 167.76 4.26024 169.91 4.18024C170.03 4.18024 170.16 4.18024 170.29 4.17024C172.97 4.20024 175.51 6.58024 175.51 9.25024V9.73024C175.47 13.5802 172.37 16.6902 168.53 16.7402L166.02 16.7702H165.39C164.2 16.7702 163.05 16.3002 162.21 15.4502L159.06 12.3002C158.97 12.2102 158.8 12.2702 158.8 12.4102V20.7002L158.68 20.8602C158.11 21.5802 157.08 22.6802 156.26 23.0902C156.11 23.1602 156.03 23.3002 155.99 23.4102L151.63 34.4602H154.04L162.91 25.8502C162.91 25.8502 163 25.7902 163.06 25.7902H167.69C169.01 25.7902 170.32 25.6902 171.63 25.5002L174.62 25.0602C174.77 25.0402 174.92 25.0902 175.03 25.2102L183.41 34.6102H186.67L181.38 23.8802L181.35 23.8602ZM179.02 8.56024V7.51024C179.02 6.75024 179.65 6.14024 180.42 6.16024L182.1 6.22024L179.02 8.56024Z" fill="black"/>
<path d="M185.13 10.6702L185.3 7.93018L183.55 9.68018L184.43 12.2802C184.46 12.3502 184.56 12.3602 184.6 12.3002L184.68 12.1702C184.95 11.7102 185.11 11.2002 185.14 10.6702H185.13Z" fill="black"/>
<path d="M172.05 27.0703L172.1 34.4903H173.83L176.72 28.9903L174.56 26.5703C174.45 26.4503 174.29 26.3903 174.13 26.4303L172.24 26.8303C172.13 26.8503 172.05 26.9503 172.05 27.0703Z" fill="black"/>
<path d="M160.13 30.3101L163.55 34.5001L166.02 34.4801L163.63 27.3501C163.58 27.2001 163.39 27.1501 163.28 27.2601L160.14 30.3101H160.13Z" fill="black"/>
<path d="M0 2.9899C1.76 2.7099 3.52 2.4999 5.27 2.3599C7.02 2.2199 8.84 2.1499 10.71 2.1499C13.08 2.1499 15.16 2.5399 16.95 3.3199C18.74 4.0999 20.13 5.1899 21.13 6.5799C22.13 7.9799 22.64 9.5799 22.64 11.3899C22.64 13.1999 22.3 14.7299 21.61 16.0599C20.92 17.3899 20.03 18.4799 18.91 19.3499C17.79 20.2199 16.57 20.8599 15.25 21.2999C13.93 21.7399 12.61 21.9499 11.29 21.9499C10.37 21.9499 9.49 21.8399 8.65 21.6199C7.81 21.3999 7.05 21.0799 6.35 20.6599V19.8599C7.02 20.0599 7.64 20.2099 8.21 20.3199C8.78 20.4299 9.3 20.4899 9.78 20.4899C11.59 20.4899 12.96 19.7799 13.88 18.3599C14.8 16.9399 15.26 14.9399 15.26 12.3699C15.26 10.5599 15.1 8.9799 14.78 7.6399C14.46 6.2999 14.01 5.2599 13.42 4.5199C12.83 3.7799 12.12 3.4099 11.29 3.4099C10.59 3.4099 10.04 3.7599 9.64 4.4599C9.24 5.1599 9.03 6.1499 9.03 7.4299V29.5299C9.03 30.5599 9.23 31.4499 9.64 32.1899C10.05 32.9299 10.64 33.4799 11.42 33.8399V33.9699H0V33.8399C0.81 33.4799 1.41 32.9299 1.8 32.1899C2.19 31.4499 2.39 30.5699 2.39 29.5299V7.4299C2.39 6.3999 2.19 5.5099 1.8 4.7699C1.41 4.0299 0.81 3.4799 0 3.1199L0 2.9899ZM9.04 20.8599L16.41 20.8199C16.91 22.0999 17.44 23.4399 18 24.8199C18.56 26.1999 19.15 27.5799 19.78 28.9599C20.41 30.3399 21.06 31.6999 21.75 33.0399C22.43 34.3799 23.17 35.6499 23.95 36.8499L23.87 36.9799C21.75 36.1099 19.73 34.9399 17.8 33.4399C15.87 31.9499 14.16 30.1499 12.65 28.0399C11.14 25.9299 9.94 23.5399 9.05 20.8599H9.04Z" fill="black"/>
<path d="M22.73 29.6901C22.73 28.4901 23.1 27.3801 23.84 26.3601C24.58 25.3401 25.69 24.4601 27.19 23.7201C28.68 22.9801 30.56 22.4401 32.82 22.1101V22.9001C31.82 23.0401 31.05 23.3801 30.52 23.9301C29.99 24.4701 29.63 25.1401 29.45 25.9201C29.27 26.7001 29.18 27.5001 29.18 28.3001C29.18 29.3001 29.33 30.0601 29.62 30.5601C29.91 31.0601 30.32 31.3101 30.85 31.3101C31.13 31.3101 31.42 31.2501 31.73 31.1401C32.04 31.0301 32.37 30.8501 32.73 30.6001L32.69 31.3501H32.61C31.88 32.1301 31.2 32.7501 30.56 33.2101C29.92 33.6701 29.3 34.0001 28.7 34.2101C28.1 34.4201 27.51 34.5201 26.92 34.5201C26.19 34.5201 25.51 34.3301 24.87 33.9501C24.23 33.5701 23.71 33.0201 23.32 32.3001C22.93 31.5701 22.73 30.7001 22.73 29.6601V29.6901ZM32.64 30.7001C32.64 29.7801 32.64 28.7501 32.66 27.6001C32.67 26.4601 32.7 25.2701 32.72 24.0401C32.75 22.8101 32.78 21.6001 32.8 20.4001C32.83 19.2001 32.85 18.1001 32.86 17.0901C32.87 16.0901 32.88 15.2501 32.88 14.5801C32.88 14.1601 32.81 13.8201 32.67 13.5501C32.53 13.2801 32.34 13.1501 32.08 13.1501C31.75 13.1501 31.44 13.3201 31.18 13.6701C30.91 14.0201 30.66 14.4701 30.41 15.0301C30.16 15.5901 29.9 16.1701 29.64 16.7901C29.37 17.4001 29.07 17.9901 28.72 18.5501C28.37 19.1101 27.97 19.5601 27.53 19.9101C27.09 20.2601 26.57 20.4301 25.98 20.4301C25.28 20.4301 24.7 20.1801 24.22 19.6801C23.75 19.1801 23.51 18.4901 23.51 17.6301C23.51 16.7101 23.77 15.8901 24.28 15.1601C24.8 14.4301 25.48 13.8301 26.33 13.3401C27.18 12.8501 28.12 12.4801 29.16 12.2101C30.19 11.9501 31.22 11.8101 32.26 11.8101C33.77 11.8101 35.03 12.0001 36.05 12.3801C37.07 12.7601 37.84 13.3201 38.35 14.0701C38.87 14.8201 39.12 15.7701 39.12 16.9201C39.12 17.8401 39.11 18.8701 39.08 20.0201C39.05 21.1601 39.02 22.3401 39 23.5601C38.97 24.7701 38.94 25.9601 38.92 27.1201C38.89 28.2801 38.88 29.3301 38.88 30.2801C38.88 30.9801 39.03 31.5101 39.34 31.8901C39.65 32.2701 40.01 32.4501 40.43 32.4501C40.63 32.4501 40.83 32.4201 41.04 32.3501C41.25 32.2801 41.44 32.1901 41.61 32.0801L41.74 32.3701C41.41 32.8501 40.95 33.2501 40.38 33.5801C39.81 33.9101 39.2 34.1701 38.56 34.3301C37.92 34.5001 37.29 34.5801 36.68 34.5801C35.98 34.5801 35.33 34.4501 34.71 34.2001C34.1 33.9501 33.59 33.5401 33.2 32.9901C32.81 32.4301 32.63 31.6701 32.66 30.6901L32.64 30.7001Z" fill="black"/>
<path d="M41.3501 33.84C41.9101 33.39 42.3501 32.84 42.6901 32.17C43.0301 31.5 43.1901 30.76 43.1901 29.95V18.86C43.1901 17.77 43.0401 16.92 42.7501 16.31C42.4601 15.7 41.9901 15.22 41.3501 14.89V14.76C42.3001 14.73 43.2801 14.57 44.3001 14.28C45.3201 13.99 46.2801 13.6 47.1901 13.11C48.1001 12.62 48.8101 12.1 49.3501 11.54H49.4801V13.93C49.4801 14.32 49.4801 14.72 49.4601 15.12C49.4501 15.53 49.4201 15.84 49.4001 16.06L49.4801 16.1C49.9801 15.51 50.6401 14.89 51.4501 14.22C52.2601 13.55 53.1201 12.98 54.0401 12.5C54.9601 12.02 55.8101 11.79 56.5901 11.79C57.7301 11.79 58.6201 12.2 59.2501 13C59.8801 13.81 60.1901 14.87 60.1901 16.18V29.95C60.1901 30.76 60.3201 31.51 60.5701 32.21C60.8201 32.91 61.1801 33.45 61.6601 33.84V33.97H52.2401V33.84C52.8001 33.28 53.2201 32.7 53.5001 32.08C53.7801 31.47 53.9201 30.77 53.9201 29.99V18.52C53.9201 17.66 53.8101 17.01 53.5901 16.57C53.3701 16.14 53.0201 15.91 52.5401 15.88C52.1801 15.85 51.7001 15.92 51.1001 16.07C50.5001 16.22 49.9601 16.45 49.4901 16.76V29.99C49.4901 30.77 49.6401 31.47 49.9501 32.08C50.2601 32.69 50.6801 33.28 51.2101 33.84V33.97H41.3801V33.84H41.3501Z" fill="black"/>
<path d="M70.2299 0.649902V29.9499C70.2299 30.8699 70.3699 31.6499 70.6499 32.2899C70.9299 32.9299 71.3199 33.4499 71.8199 33.8399V33.9699H62.2799V33.8399C62.6999 33.5299 63.0799 33.0699 63.4299 32.4599C63.7799 31.8499 63.9499 31.1099 63.9499 30.2399V7.9699C63.9499 7.1599 63.7799 6.3799 63.4499 5.6299C63.1199 4.8799 62.6699 4.3299 62.1099 3.9999V3.8699C63.0599 3.8399 64.0399 3.6799 65.0599 3.3899C66.0799 3.0999 67.0399 2.7099 67.9499 2.2199C68.8599 1.7299 69.5699 1.2099 70.1099 0.649902H70.2399H70.2299ZM67.4199 26.4299L66.2899 25.3799L74.9099 16.0899C75.3599 15.5899 75.5899 15.1099 75.6199 14.6699C75.6499 14.2199 75.5399 13.8099 75.2899 13.4399C75.0399 13.0599 74.6999 12.7599 74.2899 12.5399V12.4099H81.9099V12.5399C81.1299 12.8999 80.3099 13.4099 79.4599 14.0699C78.6099 14.7299 77.6799 15.5799 76.6799 16.6399L67.4299 26.4299H67.4199ZM70.1399 22.4999L75.0799 17.7299L79.9799 29.9499C80.3399 30.8399 80.7499 31.6399 81.2199 32.3399C81.6799 33.0399 82.1199 33.5399 82.5399 33.8499V33.9799H72.5399V33.8499C73.0099 33.5999 73.2899 33.2999 73.3799 32.9499C73.4599 32.5999 73.4399 32.1799 73.3199 31.6699C73.1899 31.1699 73.0199 30.5999 72.7999 29.9499L70.1599 22.4999H70.1399Z" fill="black"/>
<path d="M81.6901 33.96V33.83C82.2501 33.5 82.6901 32.99 83.0101 32.32C83.3301 31.65 83.4901 30.86 83.4901 29.93V18.84C83.4901 18.03 83.3701 17.25 83.1301 16.5C82.8901 15.75 82.4001 15.2 81.6401 14.87V14.74C82.5901 14.71 83.5901 14.55 84.6301 14.26C85.6701 13.97 86.6701 13.58 87.6001 13.09C88.5301 12.6 89.2701 12.08 89.8001 11.52H89.9201V29.94C89.9201 30.86 90.0601 31.66 90.3401 32.35C90.6201 33.03 91.0101 33.53 91.5101 33.84V33.97H81.6801L81.6901 33.96ZM86.4201 10.32C85.7501 10.32 85.1401 10.13 84.5801 9.76C84.0201 9.38 83.5801 8.88 83.2601 8.25C82.9401 7.62 82.7801 6.93 82.7801 6.18C82.7801 5.43 82.9401 4.69 83.2601 4.07C83.5801 3.44 84.0201 2.94 84.5801 2.56C85.1401 2.18 85.7501 2 86.4201 2C87.0901 2 87.7401 2.19 88.2801 2.56C88.8201 2.94 89.2601 3.44 89.6001 4.07C89.9301 4.7 90.1001 5.4 90.1001 6.18C90.1001 6.96 89.9301 7.62 89.6001 8.25C89.2701 8.88 88.8301 9.38 88.2801 9.76C87.7401 10.14 87.1101 10.32 86.4201 10.32Z" fill="black"/>
<path d="M92.2002 33.84C92.7602 33.39 93.2002 32.84 93.5402 32.17C93.8802 31.5 94.0402 30.76 94.0402 29.95V18.86C94.0402 17.77 93.8902 16.92 93.6002 16.31C93.3102 15.7 92.8402 15.22 92.2002 14.89V14.76C93.1502 14.73 94.1302 14.57 95.1502 14.28C96.1702 13.99 97.1302 13.6 98.0402 13.11C98.9502 12.62 99.6602 12.1 100.2 11.54H100.33V13.93C100.33 14.32 100.33 14.72 100.31 15.12C100.3 15.53 100.27 15.84 100.25 16.06L100.33 16.1C100.83 15.51 101.49 14.89 102.3 14.22C103.11 13.55 103.97 12.98 104.89 12.5C105.81 12.02 106.66 11.79 107.44 11.79C108.58 11.79 109.47 12.2 110.1 13C110.73 13.81 111.04 14.87 111.04 16.18V29.95C111.04 30.76 111.17 31.51 111.42 32.21C111.67 32.91 112.03 33.45 112.51 33.84V33.97H103.09V33.84C103.65 33.28 104.07 32.7 104.35 32.08C104.63 31.47 104.77 30.77 104.77 29.99V18.52C104.77 17.66 104.66 17.01 104.44 16.57C104.22 16.14 103.87 15.91 103.39 15.88C103.03 15.85 102.55 15.92 101.95 16.07C101.35 16.22 100.81 16.45 100.34 16.76V29.99C100.34 30.77 100.49 31.47 100.8 32.08C101.11 32.69 101.53 33.28 102.06 33.84V33.97H92.2302V33.84H92.2002Z" fill="black"/>
<path d="M122.04 42.9601C120.98 42.9601 119.91 42.9001 118.82 42.7701C117.73 42.6501 116.73 42.4201 115.81 42.1001C114.89 41.7801 114.15 41.3501 113.59 40.8001C113.03 40.2601 112.75 39.5801 112.75 38.7701C112.75 38.2401 112.95 37.7501 113.34 37.3101C113.73 36.8701 114.27 36.4601 114.97 36.1001C115.67 35.7401 116.48 35.4101 117.42 35.1201C118.35 34.8301 119.37 34.5801 120.45 34.3901L121.12 34.7201C119.67 35.0301 118.68 35.5401 118.15 36.2501C117.62 36.9601 117.36 37.7101 117.36 38.4901C117.36 39.5501 117.81 40.3501 118.7 40.9001C119.59 41.4401 120.89 41.7001 122.59 41.6701C123.59 41.5901 124.44 41.4401 125.12 41.2301C125.8 41.0201 126.32 40.7101 126.67 40.3101C127.02 39.9001 127.19 39.4001 127.19 38.7801C127.19 38.1101 126.9 37.5701 126.33 37.1701C125.76 36.7701 125.01 36.4201 124.09 36.1501C123.17 35.8701 122.18 35.6001 121.12 35.3301C120.06 35.0601 119.03 34.7501 118.04 34.3901C117.05 34.0301 116.19 33.5501 115.47 32.9501C114.74 32.3501 114.27 31.5901 114.05 30.6701L114.09 30.5501C114.98 30.2201 115.82 29.8201 116.6 29.3801C117.38 28.9401 118.13 28.4201 118.84 27.8501C119.55 27.2801 120.21 26.6401 120.83 25.9501L121.16 26.2801C121.1 26.4501 121.04 26.6101 120.97 26.7801C120.9 26.9501 120.85 27.1101 120.82 27.2601C120.79 27.4101 120.78 27.5601 120.78 27.7001C120.78 28.0601 120.99 28.3601 121.41 28.6001C121.83 28.8401 122.38 29.0501 123.06 29.2301C123.74 29.4101 124.5 29.6001 125.32 29.7901C126.14 29.9901 126.97 30.2201 127.79 30.5001C128.61 30.7801 129.37 31.1401 130.05 31.5901C130.73 32.0401 131.29 32.6001 131.7 33.2901C132.12 33.9701 132.33 34.8001 132.33 35.7801C132.33 36.9201 132.08 37.9401 131.58 38.8301C131.08 39.7201 130.37 40.4801 129.47 41.0901C128.56 41.7001 127.47 42.1701 126.21 42.4901C124.94 42.8101 123.55 42.9701 122.05 42.9701L122.04 42.9601ZM113.54 19.2701C113.54 17.9301 113.9 16.7001 114.61 15.5901C115.32 14.4701 116.29 13.5801 117.52 12.9101C118.75 12.2401 120.1 11.9101 121.58 11.9101C123.06 11.9101 124.45 12.2401 125.68 12.9101C126.91 13.5801 127.88 14.4701 128.61 15.5901C129.34 16.7101 129.7 17.9301 129.7 19.2701C129.7 20.6101 129.34 21.8401 128.61 22.9501C127.88 24.0601 126.91 24.9601 125.68 25.6301C124.45 26.3001 123.09 26.6301 121.58 26.6301C120.07 26.6301 118.75 26.3001 117.52 25.6301C116.29 24.9601 115.32 24.0701 114.61 22.9501C113.9 21.8301 113.54 20.6101 113.54 19.2701ZM119.78 19.2701C119.78 21.1401 119.93 22.6301 120.24 23.7301C120.55 24.8301 120.99 25.3801 121.58 25.3801C122.17 25.3801 122.66 24.8301 122.98 23.7301C123.3 22.6301 123.46 21.1401 123.46 19.2701C123.46 17.4001 123.31 15.8801 123 14.7901C122.69 13.7001 122.22 13.1601 121.58 13.1601C120.94 13.1601 120.51 13.7101 120.22 14.8101C119.93 15.9101 119.78 17.4001 119.78 19.2701ZM126.73 15.1701C127.04 14.4401 127.42 13.7301 127.88 13.0101C128.34 12.3001 128.86 11.7101 129.43 11.2501C130 10.7901 130.58 10.5601 131.17 10.5601C131.76 10.5601 132.28 10.8101 132.74 11.3101C133.2 11.8101 133.43 12.4301 133.43 13.1501C133.43 13.9601 133.21 14.6101 132.78 15.1001C132.35 15.5901 131.87 15.8301 131.34 15.8301C130.86 15.8301 130.47 15.7001 130.17 15.4301C129.86 15.1701 129.59 14.9001 129.35 14.6401C129.11 14.3801 128.83 14.2401 128.49 14.2401C128.24 14.2401 127.98 14.3201 127.72 14.4901C127.45 14.6601 127.21 14.9401 126.99 15.3301L126.74 15.1601L126.73 15.1701Z" fill="black"/>
<path d="M147.28 27.14C147.28 28.62 146.92 29.92 146.21 31.03C145.5 32.15 144.51 33.01 143.24 33.62C141.97 34.23 140.51 34.54 138.87 34.54C137.84 34.54 136.69 34.46 135.44 34.31C134.18 34.16 132.83 33.86 131.38 33.41L133.93 26.46H134.06C134.65 27.97 135.27 29.21 135.94 30.18C136.61 31.15 137.33 31.88 138.1 32.36C138.87 32.84 139.64 33.07 140.42 33.07C141.31 33.07 142.01 32.83 142.51 32.36C143.01 31.89 143.26 31.3 143.26 30.6C143.26 29.9 143.01 29.26 142.51 28.76C142.01 28.26 141.37 27.8 140.59 27.4C139.81 27 138.99 26.58 138.12 26.17C137.45 25.84 136.79 25.47 136.15 25.06C135.51 24.66 134.93 24.17 134.41 23.62C133.89 23.06 133.48 22.41 133.18 21.67C132.87 20.93 132.72 20.06 132.72 19.05C132.72 18.04 132.92 17.06 133.31 16.16C133.7 15.27 134.26 14.49 134.98 13.84C135.7 13.19 136.56 12.67 137.55 12.31C138.54 11.95 139.63 11.77 140.84 11.77C141.43 11.77 142.01 11.79 142.6 11.83C143.19 11.87 143.78 11.93 144.38 12.02C144.98 12.1 145.57 12.22 146.16 12.35L144.32 18.42H144.2C143.89 17.39 143.48 16.49 142.96 15.72C142.44 14.95 141.87 14.35 141.24 13.9C140.61 13.45 139.95 13.23 139.25 13.23C138.47 13.23 137.84 13.48 137.37 13.98C136.9 14.48 136.66 15.07 136.66 15.74C136.66 16.49 136.95 17.12 137.54 17.62C138.13 18.12 138.86 18.58 139.76 18.98C140.65 19.38 141.56 19.84 142.48 20.34C143.32 20.76 144.1 21.26 144.82 21.85C145.54 22.44 146.14 23.15 146.6 24.01C147.06 24.87 147.29 25.9 147.29 27.13L147.28 27.14Z" fill="black"/>
<path d="M151.56 21.7499C150.74 21.7499 150.01 21.5099 149.38 21.0299C148.74 20.5499 148.24 19.8999 147.88 19.0899C147.52 18.2699 147.33 17.3499 147.33 16.3299C147.33 15.3099 147.51 14.3599 147.88 13.5499C148.24 12.7399 148.74 12.0999 149.38 11.6199C150.02 11.1399 150.74 10.8999 151.56 10.8999C152.38 10.8999 153.11 11.1399 153.74 11.6199C154.38 12.0999 154.88 12.7399 155.24 13.5499C155.6 14.3599 155.79 15.2899 155.79 16.3299C155.79 17.3699 155.61 18.2699 155.24 19.0899C154.88 19.9099 154.37 20.5599 153.74 21.0299C153.1 21.5099 152.37 21.7499 151.56 21.7499ZM151.56 21.0699C152.29 21.0699 152.91 20.8499 153.44 20.4199C153.96 19.9899 154.37 19.4099 154.67 18.6999C154.96 17.9799 155.11 17.1899 155.11 16.3299C155.11 15.4699 154.96 14.6699 154.67 13.9599C154.37 13.2399 153.96 12.6699 153.44 12.2399C152.92 11.8099 152.29 11.5899 151.56 11.5899C150.83 11.5899 150.23 11.8099 149.7 12.2399C149.16 12.6699 148.75 13.2499 148.45 13.9599C148.15 14.6799 148.01 15.4699 148.01 16.3299C148.01 17.1899 148.16 17.9799 148.45 18.6999C148.74 19.4199 149.16 19.9899 149.7 20.4199C150.23 20.8499 150.85 21.0699 151.56 21.0699ZM149.48 13.3199C149.82 13.2799 150.17 13.2399 150.52 13.1999C150.87 13.1599 151.23 13.1499 151.6 13.1499C152.4 13.1499 152.99 13.3199 153.37 13.6599C153.76 13.9999 153.95 14.4399 153.95 14.9899C153.95 15.4499 153.83 15.8299 153.59 16.1499C153.35 16.4699 153.06 16.6999 152.72 16.8499C152.38 16.9999 152.04 17.0699 151.7 17.0699C151.54 17.0699 151.38 17.0499 151.21 16.9999C151.04 16.9599 150.89 16.8899 150.75 16.7999V16.5899C150.89 16.6099 151.01 16.6399 151.13 16.6599C151.24 16.6799 151.35 16.6899 151.44 16.6899C151.8 16.6899 152.08 16.5599 152.26 16.2999C152.44 16.0399 152.53 15.6599 152.53 15.1599C152.53 14.6599 152.46 14.2299 152.31 13.9299C152.16 13.6399 151.96 13.4899 151.71 13.4899C151.57 13.4899 151.47 13.5599 151.39 13.6999C151.31 13.8399 151.27 14.0299 151.27 14.2799V18.4799C151.27 18.6799 151.3 18.8599 151.37 19.0099C151.44 19.1599 151.55 19.2699 151.71 19.3299V19.4299H149.49V19.3299C149.65 19.2599 149.77 19.1499 149.85 19.0099C149.93 18.8599 149.97 18.6899 149.97 18.4799V14.2799C149.97 14.0799 149.93 13.8999 149.85 13.7499C149.77 13.5999 149.65 13.4899 149.49 13.4299V13.3299L149.48 13.3199ZM151.29 16.8399H152.72C152.9 17.3399 153.12 17.8799 153.37 18.4399C153.62 18.9999 153.89 19.5299 154.19 20.0099C153.55 19.7599 152.97 19.3699 152.45 18.8299C151.93 18.2899 151.54 17.6299 151.29 16.8299V16.8399Z" fill="black"/>
</g>
<defs>
<clipPath id="clip0_53_2954">
<rect width="187.01" height="42.96" fill="white"/>
</clipPath>
</defs>
</svg>
