<svg width="600" height="155" viewBox="0 0 600 155" fill="none" xmlns="http://www.w3.org/2000/svg">
<g style="mix-blend-mode:screen" opacity="0.5" clip-path="url(#clip0_0_21)">
<path d="M383.037 50.1762L387.631 35.8563C388.038 34.5722 388.103 33.2069 387.794 31.9065L385.676 22.918C385.643 22.8042 385.676 22.6904 385.757 22.6091L394.88 14.7258C394.88 14.7258 394.977 14.547 394.945 14.4658L394.358 12.7103C394.081 11.8814 393.332 11.2799 392.452 11.2149L379.779 10.1259C378.297 9.99586 376.912 9.37821 375.821 8.37045L367.252 0.454652C366.992 0.210839 366.666 0.0808051 366.307 0.0808051C364.776 0.0482967 360.443 -0.0167201 358.391 0.0808051C344.039 0.698465 335.748 19.2283 347.33 28.9158C351.761 32.4917 358.912 33.2719 362.984 30.3624C366.307 28.038 368.067 23.7794 367.057 19.7971C366.063 15.7011 361.714 12.8241 357.56 13.8969C354.725 14.5145 352.559 17.6191 353.113 20.3173C353.145 20.4798 353.292 20.5936 353.455 20.5936C353.862 20.5936 354.611 20.5936 355.002 20.5936C355.149 20.5936 355.279 20.4961 355.344 20.3498C356.485 17.7491 359.824 17.8466 361.192 20.0897C362.642 22.6741 360.02 25.9737 357.267 25.7299C353.764 25.5999 351.598 24.072 350.409 21C350.001 19.9597 350.132 18.383 350.246 17.3428C350.441 12.8078 354.367 8.93934 358.879 8.76055C359.124 8.76055 359.401 8.76055 359.677 8.74429C365.314 8.80931 370.689 13.8156 370.689 19.4396V20.4636C370.608 28.5582 364.076 35.1086 355.963 35.2061L350.669 35.2711H349.35C346.841 35.2711 344.414 34.2796 342.638 32.4917L335.992 25.86C335.797 25.6649 335.455 25.7949 335.455 26.0875V43.5283L335.194 43.8534C334.005 45.365 331.806 47.6731 330.079 48.5346C329.77 48.6809 329.59 48.9734 329.509 49.201L320.305 72.4445H325.388L344.088 54.3211C344.17 54.2398 344.284 54.191 344.398 54.191H354.155C356.925 54.191 359.71 53.996 362.447 53.5896L368.735 52.6631C369.06 52.6144 369.37 52.7281 369.582 52.972L387.24 72.7371H394.114L382.956 50.16L383.037 50.1762ZM378.117 18.0092V15.7986C378.117 14.1894 379.453 12.9054 381.066 12.9704L384.601 13.1004L378.117 18.0092Z" fill="#07374F"/>
<path d="M391.003 22.4464L391.361 16.6924L387.68 20.3658L389.537 25.8272C389.586 25.9898 389.797 26.006 389.879 25.8597L390.042 25.5834C390.612 24.6244 390.938 23.5354 391.019 22.4301L391.003 22.4464Z" fill="#07374F"/>
<path d="M363.44 56.9384L363.538 72.5425H367.187L373.279 60.9695L368.735 55.8819C368.507 55.6218 368.164 55.5081 367.822 55.5893L363.848 56.4346C363.603 56.4833 363.44 56.6946 363.44 56.9384Z" fill="#07374F"/>
<path d="M338.305 63.765L345.505 72.5748L350.702 72.526L345.668 57.5234C345.554 57.2146 345.163 57.117 344.919 57.3446L338.289 63.765H338.305Z" fill="#07374F"/>
<path d="M0.749268 6.28963C4.44704 5.70448 8.1611 5.26562 11.8589 4.97304C15.5566 4.68047 19.3847 4.53418 23.3268 4.53418C28.3278 4.53418 32.7097 5.36314 36.4727 7.00482C40.2356 8.64649 43.184 10.9383 45.3017 13.8641C47.4194 16.7898 48.4782 20.1707 48.4782 23.9905C48.4782 27.8102 47.7615 31.0123 46.3117 33.808C44.8782 36.6037 42.9723 38.8955 40.6266 40.716C38.2808 42.5365 35.7071 43.9018 32.9052 44.8121C30.1034 45.7223 27.3341 46.1774 24.5649 46.1774C22.6264 46.1774 20.7694 45.9499 19.0101 45.4785C17.2508 45.0071 15.6218 44.3407 14.1557 43.4467V41.7725C15.5729 42.1789 16.8761 42.504 18.0816 42.7478C19.287 42.9916 20.3947 43.1054 21.3884 43.1054C25.2165 43.1054 28.0997 41.61 30.0382 38.6192C31.9767 35.6285 32.9541 31.4349 32.9541 26.0222C32.9541 22.2025 32.612 18.8866 31.9441 16.0747C31.26 13.2627 30.3151 11.0684 29.0771 9.52422C27.8391 7.98007 26.3405 7.18361 24.5812 7.18361C23.1151 7.18361 21.9422 7.91505 21.0952 9.37793C20.2481 10.8408 19.8083 12.9376 19.8083 15.6358V62.1228C19.8083 64.3009 20.2318 66.1538 21.0952 67.7142C21.9422 69.2746 23.1965 70.4287 24.8418 71.1926V71.4527H0.749268V71.1926C2.45969 70.4287 3.714 69.2746 4.54478 67.7142C5.37555 66.1538 5.7828 64.3009 5.7828 62.1228V15.6195C5.7828 13.4577 5.37555 11.5885 4.54478 10.0281C3.714 8.4677 2.45969 7.31365 0.749268 6.5497V6.28963ZM19.8083 43.8856L35.3324 43.8043C36.3912 46.5025 37.4989 49.2982 38.6881 52.2077C39.8609 55.1172 41.1152 58.0267 42.4347 60.92C43.7542 63.8132 45.1388 66.6902 46.5886 69.5022C48.0221 72.3142 49.5696 74.9961 51.2149 77.5155L51.0357 77.7756C46.5723 75.9551 42.3044 73.4682 38.2483 70.3312C34.1921 67.1941 30.5758 63.4069 27.3993 58.9695C24.2228 54.5321 21.6979 49.5095 19.8083 43.8693V43.8856Z" fill="#07374F"/>
<path d="M48.6573 62.4641C48.6573 59.9447 49.4393 57.6041 50.9868 55.4586C52.5506 53.313 54.8963 51.46 58.0402 49.9159C61.1842 48.3555 65.1426 47.2339 69.8992 46.535V48.2092C67.7815 48.5018 66.1688 49.2169 65.0448 50.371C63.9208 51.5088 63.1715 52.9067 62.7968 54.5483C62.4059 56.19 62.2267 57.8642 62.2267 59.5709C62.2267 61.6839 62.5362 63.2606 63.1552 64.3171C63.7742 65.3736 64.6376 65.8938 65.7616 65.8938C66.348 65.8938 66.967 65.78 67.6186 65.5362C68.2702 65.3086 68.9707 64.9185 69.7363 64.3984L69.6548 65.9913H69.4756C67.9444 67.6329 66.5109 68.9333 65.1589 69.9085C63.8068 70.8838 62.5036 71.5827 61.233 72.0216C59.9624 72.4604 58.7244 72.688 57.4864 72.688C55.9552 72.688 54.5217 72.2979 53.1696 71.5015C51.8176 70.705 50.7261 69.5509 49.9117 68.0231C49.0809 66.4952 48.6736 64.6422 48.6736 62.4804L48.6573 62.4641ZM69.5571 64.5772C69.5571 62.6429 69.5571 60.4649 69.606 58.0592C69.6385 55.6536 69.6711 53.1667 69.7363 50.5823C69.8014 47.9979 69.8503 45.446 69.9155 42.9266C69.9806 40.4072 70.0132 38.0828 70.0458 35.9698C70.0784 33.8567 70.0946 32.1013 70.0946 30.6872C70.0946 29.8094 69.948 29.0943 69.6548 28.5254C69.3616 27.9727 68.9544 27.6964 68.4168 27.6964C67.7163 27.6964 67.081 28.0702 66.5272 28.8017C65.9733 29.5331 65.4195 30.4921 64.8982 31.6624C64.3769 32.8327 63.8231 34.068 63.2692 35.3521C62.7154 36.6362 62.0638 37.8715 61.3308 39.0418C60.5977 40.2121 59.7507 41.1711 58.8221 41.9026C57.8936 42.634 56.7859 43.0078 55.5642 43.0078C54.0981 43.0078 52.8601 42.4715 51.8664 41.4149C50.8728 40.3584 50.3678 38.928 50.3678 37.1076C50.3678 35.1733 50.9053 33.4341 51.9967 31.9062C53.0882 30.3783 54.5217 29.1105 56.3135 28.0702C58.1054 27.0462 60.0927 26.2498 62.2756 25.6971C64.4584 25.1445 66.6249 24.8682 68.8078 24.8682C71.9843 24.8682 74.6395 25.2583 76.7897 26.0547C78.94 26.8512 80.5527 28.0377 81.6441 29.6144C82.7355 31.191 83.273 33.1903 83.273 35.5959C83.273 37.5302 83.2405 39.7082 83.1916 42.1139C83.1264 44.5195 83.0776 47.0064 83.0124 49.5583C82.9473 52.1102 82.8984 54.6133 82.8332 57.0352C82.7681 59.4733 82.7518 61.6839 82.7518 63.6832C82.7518 65.1461 83.0776 66.2839 83.7292 67.0641C84.3808 67.8605 85.1464 68.2506 86.026 68.2506C86.4333 68.2506 86.8568 68.1856 87.3129 68.0393C87.7527 67.893 88.1437 67.698 88.5021 67.4704L88.7627 68.0881C88.0622 69.0796 87.1011 69.941 85.8957 70.64C84.6903 71.3389 83.4034 71.8753 82.0513 72.2166C80.6993 72.5742 79.3798 72.753 78.0766 72.753C76.6105 72.753 75.2259 72.493 73.9227 71.9566C72.6358 71.4202 71.577 70.575 70.7462 69.4047C69.9155 68.2344 69.5408 66.6252 69.606 64.5609L69.5571 64.5772Z" fill="#07374F"/>
<path d="M87.9156 71.1772C89.0885 70.2344 90.0333 69.0641 90.7338 67.65C91.4342 66.2359 91.7926 64.6918 91.7926 62.9851V39.6603C91.7926 37.3685 91.4831 35.5805 90.8641 34.2964C90.2451 33.0123 89.2677 32.0046 87.9156 31.3056V31.0456C89.9193 30.9806 91.9881 30.6555 94.1383 30.0378C96.2886 29.4202 98.3085 28.6074 100.231 27.5672C102.137 26.5432 103.652 25.4379 104.776 24.2676H105.036V29.2901C105.036 30.1191 105.036 30.9481 104.987 31.7933C104.955 32.6385 104.906 33.3049 104.857 33.7763L105.036 33.8576C106.095 32.6222 107.48 31.3056 109.174 29.8915C110.884 28.4774 112.709 27.2746 114.647 26.2831C116.586 25.2916 118.377 24.7877 120.023 24.7877C122.434 24.7877 124.307 25.6329 125.626 27.3396C126.946 29.0463 127.614 31.2731 127.614 34.0363V63.0013C127.614 64.708 127.874 66.2847 128.412 67.7475C128.95 69.2104 129.699 70.3645 130.709 71.1772V71.4372H110.852V71.1772C112.024 70.0069 112.904 68.7716 113.491 67.4712C114.077 66.1871 114.37 64.708 114.37 63.0663V38.9451C114.37 37.1246 114.142 35.7593 113.67 34.8491C113.197 33.9388 112.464 33.4512 111.471 33.4024C110.705 33.3374 109.695 33.4837 108.424 33.7925C107.154 34.1176 106.03 34.6052 105.036 35.2392V63.0501C105.036 64.6918 105.362 66.1709 106.014 67.455C106.665 68.7391 107.545 69.9744 108.652 71.1609V71.421H87.9156V71.1609V71.1772Z" fill="#07374F"/>
<path d="M148.79 1.36523V62.9849C148.79 64.9191 149.084 66.5608 149.67 67.9099C150.256 69.259 151.087 70.348 152.146 71.1608V71.4208H132.028V71.1608C132.908 70.5106 133.722 69.5516 134.455 68.2513C135.188 66.9672 135.563 65.4068 135.563 63.5863V16.7742C135.563 15.0675 135.205 13.4258 134.504 11.8492C133.804 10.2725 132.859 9.11849 131.686 8.41956V8.15949C133.69 8.09447 135.759 7.76939 137.909 7.15173C140.059 6.53407 142.079 5.72136 144.001 4.68109C145.907 3.65708 147.422 2.55179 148.546 1.38149H148.807L148.79 1.36523ZM142.877 55.5892L140.499 53.3949L158.678 33.8574C159.623 32.8008 160.112 31.8093 160.177 30.8666C160.242 29.9239 159.998 29.0624 159.476 28.2659C158.955 27.4695 158.238 26.8356 157.359 26.3804V26.1204H173.42V26.3804C171.775 27.1444 170.049 28.2172 168.257 29.5988C166.465 30.9804 164.51 32.7846 162.392 35.0114L142.894 55.6055L142.877 55.5892ZM148.611 47.3158L159.02 37.287L169.348 62.9849C170.114 64.8704 170.977 66.5283 171.954 68.0074C172.932 69.4703 173.844 70.5268 174.74 71.177V71.4371H153.661V71.177C154.655 70.6406 155.241 70.023 155.42 69.2753C155.6 68.5438 155.551 67.6498 155.29 66.5933C155.029 65.5368 154.655 64.334 154.182 62.9849L148.627 47.3158H148.611Z" fill="#07374F"/>
<path d="M172.964 71.437V71.1769C174.137 70.478 175.066 69.4214 175.75 68.0073C176.434 66.5932 176.76 64.919 176.76 62.9848V39.66C176.76 37.9533 176.516 36.3116 176.011 34.735C175.506 33.1421 174.463 32.0043 172.883 31.3054V31.0453C174.887 30.9803 176.988 30.6552 179.187 30.0375C181.386 29.4199 183.471 28.6072 185.459 27.5669C187.43 26.5429 188.977 25.4376 190.085 24.2673H190.346V63.001C190.346 64.9353 190.639 66.6257 191.225 68.0561C191.812 69.4865 192.642 70.543 193.701 71.1769V71.437H172.964ZM182.934 21.6991C181.517 21.6991 180.23 21.309 179.057 20.5126C177.884 19.7161 176.955 18.6596 176.271 17.343C175.587 16.0264 175.261 14.5635 175.261 12.9869C175.261 11.4102 175.603 9.86607 176.271 8.54948C176.939 7.23289 177.868 6.17637 179.057 5.37992C180.23 4.58346 181.533 4.19336 182.934 4.19336C184.335 4.19336 185.719 4.58346 186.86 5.37992C188 6.17637 188.928 7.23289 189.645 8.54948C190.346 9.86607 190.704 11.3452 190.704 12.9869C190.704 14.6286 190.346 16.0264 189.645 17.343C188.945 18.6596 188.016 19.7161 186.86 20.5126C185.703 21.309 184.4 21.6991 182.934 21.6991Z" fill="#07374F"/>
<path d="M195.102 71.1772C196.275 70.2344 197.22 69.0641 197.92 67.65C198.621 66.2359 198.979 64.6918 198.979 62.9851V39.6603C198.979 37.3685 198.67 35.5805 198.051 34.2964C197.432 33.0123 196.454 32.0046 195.102 31.3056V31.0456C197.106 30.9806 199.175 30.6555 201.325 30.0378C203.475 29.4202 205.495 28.6074 207.417 27.5672C209.323 26.5432 210.838 25.4379 211.962 24.2676H212.223V29.2901C212.223 30.1191 212.223 30.9481 212.174 31.7933C212.141 32.6385 212.092 33.3049 212.044 33.7763L212.223 33.8576C213.282 32.6222 214.666 31.3056 216.36 29.8915C218.071 28.4774 219.895 27.2746 221.834 26.2831C223.772 25.2916 225.564 24.7877 227.209 24.7877C229.62 24.7877 231.493 25.6329 232.813 27.3396C234.132 29.0463 234.8 31.2731 234.8 34.0363V63.0013C234.8 64.708 235.061 66.2847 235.598 67.7475C236.136 69.2104 236.885 70.3645 237.895 71.1772V71.4372H218.038V71.1772C219.211 70.0069 220.091 68.7716 220.677 67.4712C221.264 66.1871 221.557 64.708 221.557 63.0663V38.9451C221.557 37.1246 221.329 35.7593 220.856 34.8491C220.384 33.9388 219.651 33.4512 218.657 33.4024C217.892 33.3374 216.882 33.4837 215.611 33.7925C214.34 34.1176 213.216 34.6052 212.223 35.2392V63.0501C212.223 64.6918 212.548 66.1709 213.2 67.455C213.852 68.7391 214.731 69.9744 215.839 71.1609V71.421H195.102V71.1609V71.1772Z" fill="#07374F"/>
<path d="M258.013 90.3739C255.781 90.3739 253.517 90.2439 251.22 89.9838C248.923 89.7237 246.806 89.2524 244.867 88.5697C242.929 87.887 241.365 86.993 240.192 85.839C239.019 84.7012 238.433 83.2708 238.433 81.5641C238.433 80.4426 238.84 79.4186 239.671 78.4758C240.485 77.5331 241.642 76.6879 243.108 75.9239C244.574 75.16 246.301 74.4773 248.272 73.8596C250.243 73.242 252.377 72.7219 254.674 72.3155L256.091 73.0144C253.028 73.6646 250.943 74.7374 249.836 76.2328C248.712 77.7282 248.158 79.3048 248.158 80.9465C248.158 83.1733 249.103 84.8637 250.976 86.0015C252.866 87.1393 255.586 87.692 259.186 87.627C261.304 87.4482 263.079 87.1393 264.529 86.7005C265.963 86.2616 267.054 85.6114 267.787 84.7662C268.52 83.921 268.895 82.8482 268.895 81.5479C268.895 80.1338 268.292 79.0122 267.087 78.167C265.881 77.3218 264.301 76.5904 262.362 76.0052C260.424 75.4201 258.339 74.8512 256.091 74.2823C253.843 73.7134 251.693 73.0632 249.608 72.2992C247.523 71.5353 245.714 70.5275 244.183 69.2597C242.652 67.9919 241.658 66.399 241.186 64.4647L241.267 64.2047C243.157 63.5057 244.916 62.6768 246.561 61.734C248.207 60.7913 249.787 59.7185 251.285 58.5157C252.784 57.3129 254.185 55.98 255.472 54.5172L256.172 55.2161C256.058 55.5737 255.928 55.915 255.781 56.2726C255.635 56.6302 255.537 56.9553 255.472 57.2804C255.407 57.6055 255.39 57.9143 255.39 58.2069C255.39 58.9708 255.83 59.6047 256.71 60.1086C257.59 60.6125 258.746 61.0513 260.196 61.4252C261.629 61.8153 263.226 62.2054 264.953 62.6117C266.679 63.0181 268.422 63.522 270.165 64.1071C271.892 64.6923 273.488 65.4562 274.922 66.399C276.355 67.3417 277.528 68.5283 278.408 69.9586C279.288 71.389 279.727 73.1445 279.727 75.1925C279.727 77.5981 279.206 79.7437 278.147 81.6129C277.088 83.4984 275.606 85.075 273.684 86.3591C271.778 87.6432 269.481 88.6347 266.81 89.3011C264.138 89.9838 261.206 90.3089 258.029 90.3089L258.013 90.3739ZM240.094 40.5386C240.094 37.7266 240.844 35.1422 242.342 32.7853C243.841 30.4447 245.877 28.5592 248.467 27.1451C251.057 25.731 253.908 25.032 257.019 25.032C260.131 25.032 263.079 25.731 265.669 27.1451C268.259 28.5592 270.312 30.4284 271.843 32.7853C273.374 35.1259 274.14 37.7103 274.14 40.5386C274.14 43.3668 273.374 45.9349 271.843 48.2918C270.312 50.6324 268.259 52.5179 265.669 53.932C263.079 55.3461 260.196 56.0451 257.019 56.0451C253.843 56.0451 251.041 55.3461 248.467 53.932C245.877 52.5179 243.841 50.6487 242.342 48.2918C240.844 45.9512 240.094 43.3668 240.094 40.5386ZM253.24 40.5386C253.24 44.4721 253.566 47.5929 254.218 49.9172C254.869 52.2416 255.798 53.3956 257.036 53.3956C258.274 53.3956 259.316 52.2416 259.984 49.9172C260.668 47.5929 260.994 44.4721 260.994 40.5386C260.994 36.605 260.668 33.403 260.017 31.1274C259.365 28.8355 258.372 27.6977 257.019 27.6977C255.667 27.6977 254.771 28.8518 254.152 31.1761C253.533 33.5005 253.224 36.6213 253.224 40.5548L253.24 40.5386ZM267.885 31.9076C268.536 30.3797 269.335 28.868 270.312 27.3727C271.289 25.8773 272.364 24.6419 273.57 23.683C274.775 22.7077 275.997 22.2363 277.235 22.2363C278.473 22.2363 279.564 22.7727 280.542 23.8292C281.519 24.8858 281.992 26.1698 281.992 27.6977C281.992 29.4044 281.536 30.7698 280.623 31.7938C279.711 32.8178 278.701 33.3379 277.577 33.3379C276.583 33.3379 275.753 33.0616 275.101 32.509C274.449 31.9563 273.879 31.3874 273.374 30.8348C272.869 30.2822 272.267 30.0058 271.566 30.0058C271.029 30.0058 270.491 30.1846 269.937 30.5422C269.383 30.8998 268.862 31.485 268.39 32.2977L267.852 31.9401L267.885 31.9076Z" fill="#07374F"/>
<path d="M311.199 57.0848C311.199 60.1894 310.45 62.9201 308.951 65.2769C307.452 67.6175 305.367 69.438 302.68 70.7383C300.008 72.0224 296.929 72.6726 293.46 72.6726C291.277 72.6726 288.866 72.5101 286.227 72.185C283.588 71.8599 280.721 71.226 277.675 70.2995L283.05 55.687H283.311C284.549 58.8565 285.869 61.4735 287.286 63.5215C288.703 65.5695 290.218 67.0974 291.831 68.1052C293.443 69.0967 295.072 69.6006 296.734 69.6006C298.623 69.6006 300.089 69.0967 301.148 68.1052C302.207 67.1137 302.728 65.8783 302.728 64.3992C302.728 62.9201 302.191 61.5872 301.148 60.5307C300.089 59.4742 298.737 58.5152 297.092 57.67C295.447 56.8248 293.704 55.947 291.879 55.0693C290.462 54.3704 289.078 53.5902 287.726 52.7287C286.374 51.8835 285.152 50.8595 284.06 49.6892C282.969 48.5189 282.106 47.1535 281.454 45.5931C280.802 44.0327 280.477 42.2122 280.477 40.0992C280.477 37.9861 280.884 35.9056 281.715 34.0201C282.529 32.1346 283.718 30.5092 285.25 29.1276C286.781 27.746 288.589 26.6732 290.674 25.9093C292.759 25.1453 295.072 24.7715 297.597 24.7715C298.835 24.7715 300.073 24.8202 301.311 24.9015C302.549 24.9828 303.787 25.1291 305.058 25.2916C306.328 25.4704 307.566 25.698 308.805 25.9905L304.928 38.7501H304.667C304.015 36.572 303.152 34.6865 302.061 33.0774C300.969 31.4682 299.764 30.1841 298.444 29.2414C297.125 28.2986 295.724 27.8273 294.258 27.8273C292.612 27.8273 291.293 28.3637 290.283 29.4039C289.289 30.4605 288.784 31.6958 288.784 33.0936C288.784 34.6865 289.403 36.0031 290.641 37.0597C291.879 38.1162 293.427 39.0752 295.317 39.9204C297.19 40.7656 299.112 41.7246 301.051 42.7811C302.81 43.6589 304.455 44.7154 305.986 45.9507C307.518 47.186 308.772 48.6977 309.733 50.4856C310.71 52.2736 311.183 54.4679 311.183 57.0523L311.199 57.0848Z" fill="#07374F"/>
<path d="M320.24 45.7548C318.513 45.7548 316.982 45.2509 315.63 44.2431C314.294 43.2354 313.235 41.87 312.47 40.1471C311.704 38.4241 311.313 36.4899 311.313 34.3281C311.313 32.1663 311.704 30.1832 312.47 28.4766C313.235 26.7861 314.294 25.4208 315.63 24.413C316.966 23.4052 318.513 22.9014 320.24 22.9014C321.967 22.9014 323.498 23.4052 324.85 24.413C326.186 25.4208 327.245 26.7699 328.01 28.4766C328.776 30.1832 329.167 32.1337 329.167 34.3281C329.167 36.5224 328.776 38.4241 328.01 40.1471C327.245 41.87 326.186 43.2354 324.85 44.2431C323.514 45.2509 321.967 45.7548 320.24 45.7548ZM320.24 44.3081C321.771 44.3081 323.091 43.853 324.198 42.9428C325.306 42.0326 326.169 40.8297 326.788 39.3181C327.407 37.8065 327.717 36.1485 327.717 34.3281C327.717 32.5076 327.407 30.8497 326.788 29.338C326.169 27.8264 325.306 26.6236 324.198 25.7133C323.091 24.8031 321.771 24.348 320.24 24.348C318.709 24.348 317.454 24.8031 316.314 25.7133C315.19 26.6236 314.311 27.8264 313.692 29.338C313.073 30.8497 312.763 32.5076 312.763 34.3281C312.763 36.1485 313.073 37.8065 313.692 39.3181C314.311 40.8297 315.19 42.0326 316.314 42.9428C317.438 43.853 318.741 44.3081 320.24 44.3081ZM315.858 28.0214C316.575 27.9239 317.308 27.8426 318.057 27.7776C318.807 27.7126 319.556 27.6638 320.321 27.6638C321.999 27.6638 323.237 28.0214 324.068 28.7366C324.883 29.4518 325.29 30.3945 325.29 31.5323C325.29 32.4913 325.045 33.3041 324.54 33.9705C324.036 34.6369 323.433 35.1245 322.7 35.4496C321.983 35.7584 321.266 35.921 320.533 35.921C320.191 35.921 319.849 35.8722 319.491 35.7747C319.132 35.6772 318.807 35.5309 318.513 35.3521V34.9132C318.807 34.962 319.067 35.0107 319.312 35.0595C319.556 35.1083 319.768 35.1245 319.963 35.1245C320.729 35.1245 321.299 34.8482 321.69 34.2956C322.081 33.7429 322.26 32.9465 322.26 31.8899C322.26 30.8334 322.097 29.9232 321.788 29.3055C321.478 28.6879 321.055 28.379 320.533 28.379C320.24 28.379 320.012 28.5253 319.849 28.8016C319.686 29.0942 319.588 29.5006 319.588 30.0207V38.8467C319.588 39.2693 319.654 39.6432 319.8 39.952C319.947 40.2608 320.191 40.4884 320.517 40.6347V40.846H315.842V40.6347C316.184 40.4884 316.428 40.2608 316.591 39.952C316.754 39.6432 316.835 39.2693 316.835 38.8467V30.0207C316.835 29.5981 316.754 29.2242 316.591 28.9154C316.428 28.6066 316.168 28.379 315.842 28.2327V28.0214H315.858ZM319.67 35.4171H322.683C323.074 36.4736 323.514 37.5952 324.052 38.798C324.573 40.0008 325.16 41.0898 325.779 42.0976C324.443 41.5774 323.205 40.7485 322.113 39.6269C321.006 38.5054 320.191 37.1075 319.67 35.4333V35.4171Z" fill="#07374F"/>
<path d="M-6.76811e-05 153.326C1.17279 152.741 2.16647 151.88 2.94838 150.726C3.73028 149.572 4.13753 147.897 4.13753 145.671V95.4939C4.13753 93.6735 3.81173 92.1131 3.16014 90.7802C2.50855 89.4474 1.44972 88.4721 -0.0163574 87.8382V87.5781H29.1911C30.5432 87.5781 31.6998 87.3506 32.6772 86.9117C33.6545 86.4729 34.4039 85.8064 34.9251 84.9287H35.1858L36.9451 101.037L36.5867 101.215C34.9414 98.7448 33.2473 96.6155 31.5206 94.795C29.7776 92.9745 27.8717 91.5604 25.7866 90.5202C23.7015 89.4961 21.2743 88.976 18.5051 88.976C15.4426 88.976 13.3738 89.6099 12.2824 90.8615C11.191 92.1293 10.6534 94.1123 10.6534 96.8105V116.186H23.3594C25.1839 116.186 26.8454 115.649 28.3441 114.56C29.8427 113.471 31.1296 111.764 32.1885 109.408H32.4491V124.898H32.1885C31.0645 122.85 29.7776 121.159 28.3115 119.843C26.8454 118.526 25.2165 117.86 23.4572 117.86H10.6697V145.671C10.6697 147.897 11.0607 149.588 11.8589 150.726C12.6571 151.863 13.6344 152.741 14.8073 153.326V153.586H-6.76811e-05V153.326Z" fill="#07374F"/>
<path d="M46.4095 114.593C46.4095 115.292 46.4095 115.991 46.3606 116.657C46.3281 117.34 46.3118 117.876 46.3118 118.283V118.364C46.9634 116.478 47.843 114.804 48.9507 113.309C50.0747 111.813 51.3127 110.611 52.6974 109.7C54.082 108.79 55.4503 108.335 56.8024 108.335C58.1544 108.335 59.2133 108.79 60.1581 109.7C61.1029 110.611 61.5753 111.716 61.5753 113C61.5753 114.17 61.2332 115.113 60.5653 115.812C59.8811 116.511 59.0504 116.868 58.0567 116.868C57.4051 116.868 56.835 116.706 56.33 116.381C55.825 116.056 55.3526 115.714 54.9128 115.324C54.4729 114.95 54.0331 114.593 53.5933 114.268C53.1535 113.943 52.6648 113.78 52.1435 113.78C51.0847 113.78 50.091 114.3 49.1462 115.324C48.2014 116.348 47.2892 117.811 46.4095 119.68V146.532C46.4095 147.946 46.7027 149.214 47.2892 150.368C47.8756 151.506 48.6412 152.498 49.586 153.31V153.57H37.0592V153.31C38.0529 152.498 38.8837 151.506 39.5352 150.368C40.1868 149.231 40.5126 147.946 40.5126 146.532V118.981C40.5126 117.275 40.252 115.974 39.7144 115.064C39.1769 114.154 38.2972 113.374 37.0755 112.724V112.464C38.1995 112.464 39.3072 112.285 40.4312 111.943C41.5389 111.586 42.5977 111.114 43.6077 110.529C44.6014 109.944 45.4973 109.261 46.2466 108.498H46.4258V114.577L46.4095 114.593Z" fill="#07374F"/>
<path d="M61.1354 131.498C61.1354 128.393 61.5752 125.435 62.4548 122.655C63.3345 119.876 64.5236 117.389 66.0223 115.211C67.521 113.033 69.2802 111.359 71.3165 110.156C73.3527 108.953 75.5029 108.352 77.7998 108.352C80.0966 108.352 82.312 108.969 84.2831 110.205C86.2542 111.44 87.9972 113.114 89.5284 115.227C91.0596 117.34 92.2488 119.795 93.0959 122.574C93.9429 125.37 94.3827 128.344 94.3827 131.514C94.3827 134.683 93.9429 137.674 93.0633 140.486C92.1836 143.298 90.9945 145.801 89.4958 147.963C87.9972 150.141 86.2379 151.832 84.2505 153.067C82.2469 154.302 80.0966 154.92 77.8161 154.92C75.5355 154.92 73.369 154.286 71.3816 153.034C69.378 151.767 67.6187 150.076 66.0875 147.931C64.5562 145.785 63.3508 143.314 62.4711 140.486C61.5915 137.674 61.1517 134.683 61.1517 131.514L61.1354 131.498ZM68.0259 131.498C68.0259 135.789 68.4006 139.576 69.1336 142.892C69.8667 146.208 70.9744 148.808 72.4405 150.677C73.9065 152.563 75.6984 153.489 77.8161 153.489C79.9337 153.489 81.7093 152.53 83.1591 150.629C84.5926 148.727 85.684 146.126 86.4171 142.843C87.1501 139.56 87.5248 135.772 87.5248 131.481C87.5248 127.19 87.1827 123.435 86.5148 120.217C85.8306 116.983 84.7718 114.431 83.3383 112.561C81.9048 110.692 80.0641 109.749 77.8324 109.749C75.7147 109.749 73.9065 110.692 72.4079 112.561C70.9092 114.447 69.8015 116.999 69.1011 120.217C68.4006 123.452 68.0422 127.206 68.0422 131.481L68.0259 131.498Z" fill="#07374F"/>
<path d="M98.6344 153.327C99.6932 152.514 100.524 151.522 101.143 150.385C101.762 149.247 102.072 147.963 102.072 146.549V118.998C102.072 117.291 101.811 115.991 101.273 115.08C100.736 114.17 99.8561 113.39 98.6344 112.74V112.48C99.7584 112.48 100.866 112.317 101.99 111.992C103.098 111.667 104.157 111.212 105.167 110.627C106.16 110.042 107.056 109.343 107.806 108.514H107.985V116.608C107.985 117.372 107.952 118.022 107.903 118.543C109.19 116.787 110.64 115.129 112.22 113.569C113.8 112.008 115.462 110.757 117.205 109.782C118.931 108.806 120.626 108.335 122.271 108.335C124.682 108.335 126.604 109.196 128.054 110.936C129.487 112.675 130.22 114.853 130.22 117.502V118.64C131.507 116.82 132.941 115.129 134.504 113.585C136.068 112.025 137.697 110.773 139.408 109.798C141.118 108.823 142.796 108.351 144.441 108.351C146.917 108.351 148.856 109.229 150.273 110.984C151.69 112.74 152.391 114.95 152.391 117.584V146.549C152.391 147.963 152.635 149.231 153.14 150.385C153.645 151.522 154.362 152.514 155.306 153.327V153.587H143.301V153.327C144.425 152.449 145.223 151.457 145.728 150.336C146.233 149.214 146.477 147.995 146.477 146.646V119.713C146.477 117.827 146.021 116.267 145.109 114.999C144.197 113.731 142.828 113.114 141.004 113.114C139.766 113.114 138.218 113.585 136.329 114.528C134.439 115.471 132.419 117.145 130.236 119.55V146.581C130.236 147.995 130.465 149.247 130.937 150.368C131.409 151.49 132.142 152.481 133.136 153.359V153.619H121.131V153.359C122.189 152.481 122.988 151.49 123.509 150.368C124.03 149.247 124.307 148.028 124.307 146.679V119.745C124.307 117.86 123.851 116.3 122.939 115.032C122.026 113.764 120.658 113.146 118.834 113.146C117.596 113.146 116.048 113.618 114.207 114.56C112.35 115.503 110.282 117.177 107.985 119.583V146.695C107.985 148.044 108.245 149.279 108.783 150.385C109.32 151.506 110.102 152.498 111.161 153.375V153.635H98.6344V153.375V153.327Z" fill="#07374F"/>
<path d="M198.947 154.464C195.77 154.464 192.708 153.765 189.775 152.351C186.827 150.937 184.188 148.824 181.842 146.012C179.497 143.2 177.623 139.705 176.239 135.544C174.854 131.383 174.17 126.572 174.17 121.11C174.17 116.007 174.773 111.325 175.978 107.067C177.184 102.808 178.91 99.1347 181.142 96.0139C183.374 92.9093 186.143 90.5037 189.433 88.797C192.724 87.0903 196.454 86.2451 200.641 86.2451C202.938 86.2451 205.234 86.4727 207.564 86.944C209.893 87.4154 212.141 88.0818 214.308 88.9758L210.512 102.272H210.333C209.861 99.5736 209.079 97.2004 207.987 95.1362C206.896 93.0881 205.479 91.4627 203.703 90.2924C201.944 89.1221 199.794 88.537 197.269 88.537C193.62 88.537 190.655 89.7723 188.358 92.2267C186.061 94.681 184.384 98.2407 183.325 102.873C182.266 107.506 181.728 113.048 181.728 119.517C181.728 130.31 183.162 138.567 186.045 144.256C188.928 149.945 193.278 152.79 199.11 152.79C201.814 152.79 203.915 152.026 205.414 150.498C206.912 148.97 207.662 146.89 207.662 144.24V120.119C207.662 118.298 207.303 116.738 206.603 115.405C205.902 114.089 204.844 113.097 203.426 112.463V112.203H218.331V112.463C216.914 113.113 215.872 114.089 215.204 115.405C214.536 116.722 214.194 118.298 214.194 120.119V145.378C214.194 147.263 214.471 148.759 215.025 149.913C215.578 151.051 216.426 151.896 217.533 152.416V152.676C215.937 152.969 214.161 153.261 212.19 153.554C210.219 153.846 208.118 154.074 205.886 154.22C203.654 154.366 201.325 154.448 198.914 154.448L198.947 154.464Z" fill="#07374F"/>
<path d="M221.524 131.498C221.524 128.393 221.964 125.435 222.844 122.655C223.723 119.876 224.912 117.389 226.411 115.211C227.91 113.033 229.669 111.359 231.705 110.156C233.741 108.953 235.892 108.352 238.189 108.352C240.485 108.352 242.701 108.969 244.672 110.205C246.643 111.44 248.386 113.114 249.917 115.227C251.448 117.34 252.638 119.795 253.485 122.574C254.332 125.37 254.772 128.344 254.772 131.514C254.772 134.683 254.332 137.674 253.452 140.486C252.572 143.298 251.383 145.801 249.885 147.963C248.386 150.141 246.627 151.832 244.639 153.067C242.636 154.302 240.485 154.92 238.205 154.92C235.924 154.92 233.758 154.286 231.77 153.034C229.767 151.767 228.007 150.076 226.476 147.931C224.945 145.785 223.74 143.314 222.86 140.486C221.98 137.674 221.54 134.683 221.54 131.514L221.524 131.498ZM228.398 131.498C228.398 135.789 228.773 139.576 229.506 142.892C230.239 146.208 231.347 148.808 232.813 150.677C234.279 152.563 236.071 153.489 238.189 153.489C240.306 153.489 242.082 152.53 243.532 150.629C244.965 148.727 246.057 146.126 246.79 142.843C247.523 139.56 247.897 135.772 247.897 131.481C247.897 127.19 247.555 123.435 246.887 120.217C246.203 116.983 245.144 114.431 243.711 112.561C242.277 110.692 240.437 109.749 238.205 109.749C236.087 109.749 234.279 110.692 232.78 112.561C231.282 114.447 230.174 116.999 229.474 120.217C228.773 123.452 228.415 127.206 228.415 131.481L228.398 131.498Z" fill="#07374F"/>
<path d="M259.284 131.498C259.284 128.393 259.724 125.435 260.603 122.655C261.483 119.876 262.672 117.389 264.171 115.211C265.669 113.033 267.429 111.359 269.465 110.156C271.501 108.953 273.651 108.352 275.948 108.352C278.245 108.352 280.46 108.969 282.432 110.205C284.403 111.44 286.146 113.114 287.677 115.227C289.208 117.34 290.397 119.795 291.244 122.574C292.091 125.37 292.531 128.344 292.531 131.514C292.531 134.683 292.091 137.674 291.212 140.486C290.332 143.298 289.143 145.801 287.644 147.963C286.146 150.141 284.386 151.832 282.399 153.067C280.395 154.302 278.245 154.92 275.965 154.92C273.684 154.92 271.517 154.286 269.53 153.034C267.526 151.767 265.767 150.076 264.236 147.931C262.705 145.785 261.499 143.314 260.62 140.486C259.74 137.674 259.3 134.683 259.3 131.514L259.284 131.498ZM266.158 131.498C266.158 135.789 266.533 139.576 267.266 142.892C267.999 146.208 269.107 148.808 270.573 150.677C272.039 152.563 273.831 153.489 275.948 153.489C278.066 153.489 279.841 152.53 281.291 150.629C282.725 148.727 283.816 146.126 284.549 142.843C285.282 139.56 285.657 135.772 285.657 131.481C285.657 127.19 285.315 123.435 284.647 120.217C283.963 116.983 282.904 114.431 281.47 112.561C280.037 110.692 278.196 109.749 275.965 109.749C273.847 109.749 272.039 110.692 270.54 112.561C269.041 114.447 267.934 116.999 267.233 120.217C266.533 123.452 266.174 127.206 266.174 131.481L266.158 131.498Z" fill="#07374F"/>
<path d="M310.271 155.001C307.795 155.001 305.579 154.123 303.608 152.367C301.637 150.612 300.057 148.239 298.884 145.281C297.711 142.322 297.125 138.925 297.125 135.105C297.125 131.757 297.548 128.539 298.412 125.418C299.259 122.313 300.513 119.501 302.158 117.014C303.804 114.528 305.807 112.545 308.153 111.065C310.499 109.603 313.235 108.871 316.363 108.871C317.601 108.871 318.741 108.969 319.8 109.18C320.859 109.391 321.853 109.635 322.797 109.928V95.3964C322.797 93.7547 322.537 92.3244 321.999 91.1216C321.478 89.9187 320.729 89.0248 319.8 88.4396V88.1795C320.859 88.1795 321.918 88.0007 322.977 87.6432C324.035 87.2856 325.045 86.8304 326.023 86.229C327 85.6439 327.831 84.9612 328.531 84.1973H328.711V143.883C328.711 145.768 328.939 147.264 329.411 148.418C329.883 149.555 330.682 150.433 331.789 151.018V151.278C330.258 151.278 328.727 151.603 327.196 152.254C325.664 152.904 324.28 153.716 323.058 154.724H322.797V150.758C322.797 149.994 322.797 149.198 322.846 148.385C322.879 147.556 322.911 146.825 322.977 146.191L322.797 146.109C321.853 147.572 320.761 148.986 319.491 150.336C318.22 151.685 316.819 152.806 315.255 153.684C313.691 154.562 312.03 155.001 310.271 155.001ZM313.724 150.254C315.434 150.254 316.949 149.864 318.269 149.068C319.588 148.271 321.103 146.971 322.814 145.151V117.34C322.814 114.999 322.244 113.195 321.087 111.976C319.93 110.757 318.367 110.123 316.363 110.123C314.017 110.123 311.867 111.098 309.928 113.032C307.99 114.966 306.442 117.632 305.302 121.046C304.162 124.443 303.576 128.376 303.576 132.846C303.641 138.307 304.569 142.566 306.394 145.654C308.218 148.743 310.662 150.271 313.724 150.271V150.254Z" fill="#07374F"/>
<path d="M353.504 146.466V111.52H348.03V111.081C350.734 109.911 353.048 108.22 354.953 106.026C356.859 103.832 358.342 101.231 359.417 98.2402H359.677V109.683H369.565V111.536H359.677V145.865C359.677 147.507 360.052 148.807 360.785 149.782C361.518 150.758 362.626 151.229 364.092 151.229C365.379 151.229 366.584 150.953 367.708 150.4C368.832 149.847 369.907 149.1 370.966 148.157L371.227 148.417C369.94 150.237 368.376 151.782 366.552 153.033C364.727 154.301 362.789 154.919 360.736 154.919C359.319 154.919 358.081 154.577 356.99 153.911C355.898 153.244 355.051 152.269 354.432 151.001C353.813 149.734 353.504 148.222 353.504 146.466Z" fill="#07374F"/>
<path d="M371.064 131.498C371.064 128.393 371.504 125.435 372.383 122.655C373.263 119.876 374.452 117.389 375.951 115.211C377.45 113.033 379.209 111.359 381.245 110.156C383.281 108.953 385.432 108.352 387.728 108.352C390.025 108.352 392.241 108.969 394.212 110.205C396.183 111.44 397.926 113.114 399.457 115.227C400.988 117.34 402.177 119.795 403.024 122.574C403.872 125.37 404.311 128.344 404.311 131.514C404.311 134.683 403.872 137.674 402.992 140.486C402.112 143.298 400.923 145.801 399.424 147.963C397.926 150.141 396.166 151.832 394.179 153.067C392.175 154.302 390.025 154.92 387.745 154.92C385.464 154.92 383.298 154.286 381.31 153.034C379.307 151.767 377.547 150.076 376.016 147.931C374.485 145.785 373.279 143.314 372.4 140.486C371.52 137.674 371.08 134.683 371.08 131.514L371.064 131.498ZM377.938 131.498C377.938 135.789 378.313 139.576 379.046 142.892C379.779 146.208 380.887 148.808 382.353 150.677C383.819 152.563 385.611 153.489 387.728 153.489C389.846 153.489 391.622 152.53 393.071 150.629C394.505 148.727 395.596 146.126 396.329 142.843C397.062 139.56 397.437 135.772 397.437 131.481C397.437 127.19 397.095 123.435 396.427 120.217C395.743 116.983 394.684 114.431 393.251 112.561C391.817 110.692 389.976 109.749 387.745 109.749C385.627 109.749 383.819 110.692 382.32 112.561C380.822 114.447 379.714 116.999 379.013 120.217C378.313 123.452 377.955 127.206 377.955 131.481L377.938 131.498Z" fill="#07374F"/>
<path d="M448.343 154.464C445.166 154.464 442.104 153.765 439.172 152.351C436.223 150.937 433.584 148.824 431.238 146.012C428.893 143.2 427.019 139.705 425.635 135.544C424.25 131.383 423.566 126.572 423.566 121.11C423.566 116.007 424.169 111.325 425.374 107.067C426.58 102.808 428.306 99.1347 430.538 96.0139C432.77 92.9093 435.539 90.5037 438.829 88.797C442.12 87.0903 445.85 86.2451 450.037 86.2451C452.334 86.2451 454.63 86.4727 456.96 86.944C459.289 87.4154 461.537 88.0818 463.704 88.9758L459.908 102.272H459.729C459.257 99.5736 458.475 97.2004 457.383 95.1362C456.292 93.0881 454.875 91.4627 453.099 90.2924C451.34 89.1221 449.19 88.537 446.665 88.537C443.016 88.537 440.051 89.7723 437.754 92.2267C435.457 94.681 433.78 98.2407 432.721 102.873C431.662 107.506 431.124 113.048 431.124 119.517C431.124 130.31 432.558 138.567 435.441 144.256C438.324 149.945 442.674 152.79 448.506 152.79C451.21 152.79 453.311 152.026 454.81 150.498C456.308 148.97 457.058 146.89 457.058 144.24V120.119C457.058 118.298 456.699 116.738 455.999 115.405C455.298 114.089 454.24 113.097 452.822 112.463V112.203H467.727V112.463C466.31 113.113 465.268 114.089 464.6 115.405C463.932 116.722 463.59 118.298 463.59 120.119V145.378C463.59 147.263 463.867 148.759 464.421 149.913C464.974 151.051 465.822 151.896 466.929 152.416V152.676C465.333 152.969 463.557 153.261 461.586 153.554C459.615 153.846 457.514 154.074 455.282 154.22C453.05 154.366 450.721 154.448 448.31 154.448L448.343 154.464Z" fill="#07374F"/>
<path d="M472.077 120.574C472.077 115.942 472.614 111.553 473.706 107.408C474.797 103.263 476.345 99.6223 478.332 96.4527C480.319 93.2832 482.681 90.7963 485.385 88.9758C488.089 87.1554 491.087 86.2451 494.377 86.2451C497.668 86.2451 500.779 87.1554 503.516 88.9758C506.253 90.7963 508.615 93.2832 510.618 96.4527C512.622 99.6223 514.153 103.28 515.212 107.408C516.271 111.553 516.808 115.925 516.808 120.574C516.808 125.223 516.271 129.595 515.179 133.74C514.088 137.885 512.54 141.526 510.504 144.695C508.468 147.865 506.106 150.352 503.402 152.172C500.698 153.993 497.717 154.903 494.491 154.903C491.266 154.903 488.285 153.993 485.581 152.172C482.877 150.352 480.515 147.865 478.479 144.695C476.442 141.526 474.878 137.868 473.755 133.74C472.631 129.595 472.077 125.223 472.077 120.574ZM479.831 120.574C479.831 125.678 480.14 130.261 480.759 134.309C481.378 138.356 482.307 141.786 483.545 144.614C484.783 147.426 486.314 149.588 488.138 151.083C489.963 152.578 492.08 153.326 494.491 153.326C497.733 153.326 500.421 152.026 502.571 149.409C504.721 146.792 506.334 143.037 507.425 138.145C508.517 133.252 509.054 127.384 509.054 120.59C509.054 113.796 508.533 107.944 507.507 103.068C506.481 98.1919 504.884 94.4372 502.75 91.804C500.6 89.1709 497.847 87.838 494.508 87.838C491.168 87.838 488.48 89.1546 486.298 91.804C484.115 94.4372 482.502 98.2082 481.443 103.068C480.384 107.944 479.847 113.78 479.847 120.59L479.831 120.574Z" fill="#07374F"/>
<path d="M521.923 142.501L539.663 87.123H540.64L558.999 142.322C560.172 145.719 561.279 148.255 562.306 149.897C563.332 151.538 564.472 152.692 565.694 153.326V153.586H549.811V153.326C550.691 152.969 551.392 152.286 551.88 151.262C552.385 150.238 552.662 148.954 552.711 147.426C552.776 145.898 552.483 144.175 551.831 142.225L537.187 96.5342L538.506 94.7788L524.041 142.404C523.504 144.224 523.373 145.882 523.65 147.377C523.911 148.873 524.448 150.141 525.23 151.165C526.028 152.189 526.892 152.904 527.837 153.326V153.586H514.772V153.326C515.603 152.92 516.434 152.205 517.281 151.165C518.128 150.141 518.991 148.873 519.838 147.377C520.685 145.882 521.386 144.257 521.907 142.485L521.923 142.501ZM527.038 127.97H550.952V129.725H527.038V127.97Z" fill="#07374F"/>
<path d="M566.834 87.5625H591.09C592.262 87.5625 593.338 87.335 594.315 86.8961C595.292 86.4572 596.042 85.7908 596.563 84.9131H596.824L600 100.94L599.56 101.2C598.387 99.0867 597.117 97.1037 595.765 95.2507C594.413 93.3978 593.012 91.9186 591.578 90.7971C590.128 89.6756 588.646 89.1229 587.115 89.1229C585.47 89.1229 584.248 89.513 583.45 90.2607C582.652 91.0247 582.261 92.26 582.261 93.9504V146.061C582.261 147.524 582.537 148.857 583.091 150.027C583.645 151.198 584.639 152.287 586.04 153.278V153.538H571.835V153.278C573.301 152.287 574.311 151.198 574.881 150.027C575.435 148.857 575.712 147.54 575.712 146.061V93.9504C575.712 92.2437 575.321 91.0084 574.523 90.2607C573.725 89.4968 572.487 89.1229 570.776 89.1229C569.245 89.1229 567.763 89.6756 566.329 90.7971C564.879 91.9186 563.527 93.3978 562.224 95.2507C560.937 97.1037 559.667 99.0867 558.429 101.2L557.891 100.94L561.068 84.9131H561.426C561.947 85.9046 562.697 86.6035 563.625 86.9774C564.57 87.3512 565.629 87.5463 566.802 87.5463L566.834 87.5625Z" fill="#07374F"/>
</g>
<defs>
<clipPath id="clip0_0_21">
<rect width="600" height="155" fill="white"/>
</clipPath>
</defs>
</svg>
