<svg width="56" height="56" viewBox="0 0 56 56" fill="none" xmlns="http://www.w3.org/2000/svg">
<g clip-path="url(#clip0_0_145)">
<path d="M54.669 1.76733H1.21008V54.6199H54.669V1.76733Z" stroke="#FFA400" stroke-width="2" stroke-miterlimit="10"/>
<path d="M1.40857 15.9795H54.6739" stroke="#FFA400" stroke-width="2" stroke-miterlimit="10"/>
<path d="M36.8585 9.15112H48.4506" stroke="#FFA400" stroke-width="2" stroke-linecap="round" stroke-linejoin="round"/>
<path d="M22.9897 11.4279C24.0857 11.4279 24.9741 10.539 24.9741 9.44258C24.9741 8.34613 24.0857 7.45728 22.9897 7.45728C21.8937 7.45728 21.0052 8.34613 21.0052 9.44258C21.0052 10.539 21.8937 11.4279 22.9897 11.4279Z" stroke="#FFA400" stroke-width="2" stroke-miterlimit="10"/>
<path d="M16.3157 11.4279C17.4117 11.4279 18.3002 10.539 18.3002 9.44258C18.3002 8.34613 17.4117 7.45728 16.3157 7.45728C15.2198 7.45728 14.3313 8.34613 14.3313 9.44258C14.3313 10.539 15.2198 11.4279 16.3157 11.4279Z" stroke="#FFA400" stroke-width="2" stroke-miterlimit="10"/>
<path d="M9.61323 11.4279C10.7092 11.4279 11.5977 10.539 11.5977 9.44258C11.5977 8.34613 10.7092 7.45728 9.61323 7.45728C8.51725 7.45728 7.62878 8.34613 7.62878 9.44258C7.62878 10.539 8.51725 11.4279 9.61323 11.4279Z" stroke="#FFA400" stroke-width="2" stroke-miterlimit="10"/>
<path d="M38.1684 30.24H18.324C17.2414 30.24 16.3638 31.118 16.3638 32.2011V43.7255C16.3638 44.8086 17.2414 45.6866 18.324 45.6866H38.1684C39.2511 45.6866 40.1287 44.8086 40.1287 43.7255V32.2011C40.1287 31.118 39.2511 30.24 38.1684 30.24Z" stroke="#FFA400" stroke-width="2" stroke-miterlimit="10"/>
<path d="M24.6826 35.9051V25.3491C24.6826 23.1217 26.4735 21.3301 28.6999 21.3301C30.9264 21.3301 32.7172 23.1217 32.7172 25.3491V35.9051" stroke="#FFA400" stroke-width="2" stroke-miterlimit="10"/>
</g>
<defs>
<clipPath id="clip0_0_145">
<rect width="56" height="56" fill="white"/>
</clipPath>
</defs>
</svg>
