<svg width="21" height="21" viewBox="0 0 21 21" fill="none" xmlns="http://www.w3.org/2000/svg">
<path fill-rule="evenodd" clip-rule="evenodd" d="M10.4174 1.86935C11.8045 1.81713 13.1936 1.85559 14.5758 1.98447C15.2462 1.976 15.9123 2.09346 16.5394 2.33077C17.4045 2.73397 18.0998 3.42926 18.503 4.29438C18.7403 4.92148 18.8578 5.58756 18.8493 6.258C18.8493 7.29595 18.9644 7.64414 18.9644 10.4164C19.0166 11.8036 18.9782 13.1927 18.8493 14.5748C18.8578 15.2453 18.7403 15.9113 18.503 16.5384C18.0986 17.4044 17.4016 18.0998 16.5347 18.5021C15.9076 18.7394 15.2415 18.8568 14.571 18.8484C13.5331 18.8484 13.1849 18.9635 10.4126 18.9635C9.02547 19.0157 7.63638 18.9772 6.25423 18.8484C5.58378 18.8568 4.91771 18.7394 4.29061 18.5021C3.42661 18.097 2.73302 17.4004 2.33171 16.5347C2.09441 15.9076 1.97694 15.2415 1.98541 14.571C1.98541 13.5331 1.8703 13.1849 1.8703 10.4126C1.81828 9.02704 1.85673 7.63953 1.98541 6.25894C1.97694 5.5885 2.09441 4.92243 2.33171 4.29533C2.53156 3.86573 2.80346 3.47351 3.13565 3.13565C3.40653 2.73171 3.81837 2.44335 4.29061 2.32699C4.9195 2.09071 5.58722 1.97484 6.25894 1.98541C7.6411 1.85653 9.03019 1.81807 10.4174 1.8703V1.86935ZM10.4174 0.0227419C8.99186 -0.0285462 7.56455 0.00958683 6.14383 0.136917C5.27571 0.135072 4.41456 0.291761 3.60273 0.599277C2.90161 0.827772 2.267 1.22428 1.75423 1.75423C1.22428 2.267 0.827772 2.90161 0.599277 3.60273C0.236459 4.3982 0.0775529 5.27154 0.136917 6.14383C0.00927208 7.56453 -0.0291761 8.99184 0.0217983 10.4174C-0.0291761 11.8429 0.00927208 13.2702 0.136917 14.6909C0.135072 15.559 0.291761 16.4202 0.599277 17.232C0.827495 17.9338 1.22402 18.5691 1.75423 19.0824C2.26674 19.6122 2.901 20.0087 3.60179 20.2373C4.41361 20.5448 5.27477 20.7015 6.14288 20.6997C7.56359 20.8273 8.9909 20.8658 10.4164 20.8148C11.8419 20.8658 13.2692 20.8273 14.6899 20.6997C15.5581 20.7015 16.4192 20.5448 17.231 20.2373C17.9269 19.9976 18.5589 19.6026 19.0793 19.0822C19.5997 18.5618 19.9948 17.9297 20.2345 17.2339C20.542 16.422 20.6987 15.5609 20.6969 14.6928C20.6969 13.5378 20.812 13.1915 20.812 10.4192C20.8629 8.99373 20.8245 7.56642 20.6969 6.14571C20.6987 5.2776 20.542 4.41644 20.2345 3.60462C20.0071 2.9031 19.6116 2.26785 19.0824 1.75423C18.5691 1.22402 17.9338 0.827495 17.232 0.599277C16.4202 0.291761 15.559 0.135072 14.6909 0.136917C13.2702 0.00927208 11.8429 -0.0291761 10.4174 0.0217983V0.0227419ZM10.4174 5.10399C9.71639 5.09238 9.02026 5.22188 8.37036 5.48479C7.72047 5.7477 7.13009 6.13865 6.63437 6.63437C6.13865 7.13009 5.7477 7.72047 5.48479 8.37036C5.22188 9.02026 5.09238 9.71639 5.10399 10.4174C5.10399 11.4682 5.41561 12.4955 5.99945 13.3693C6.58329 14.2431 7.41313 14.9241 8.38402 15.3263C9.35491 15.7284 10.4233 15.8336 11.4539 15.6286C12.4846 15.4236 13.4314 14.9176 14.1745 14.1745C14.9176 13.4314 15.4236 12.4846 15.6286 11.4539C15.8336 10.4233 15.7284 9.35491 15.3263 8.38402C14.9241 7.41313 14.2431 6.58329 13.3693 5.99945C12.4955 5.41561 11.4682 5.10399 10.4174 5.10399ZM10.4174 13.8794C9.96005 13.8877 9.50577 13.8038 9.08163 13.6326C8.65749 13.4614 8.27221 13.2065 7.9488 12.8831C7.62538 12.5597 7.37047 12.1744 7.19929 11.7503C7.02811 11.3261 6.94417 10.8718 6.95248 10.4145C6.94417 9.95722 7.02811 9.50294 7.19929 9.0788C7.37047 8.65466 7.62538 8.26938 7.9488 7.94596C8.27221 7.62255 8.65749 7.36764 9.08163 7.19646C9.50577 7.02528 9.96005 6.94134 10.4174 6.94965C10.8747 6.94134 11.3289 7.02528 11.7531 7.19646C12.1772 7.36764 12.5625 7.62255 12.8859 7.94596C13.2093 8.26938 13.4642 8.65466 13.6354 9.0788C13.8066 9.50294 13.8905 9.95722 13.8822 10.4145C13.8905 10.8718 13.8066 11.3261 13.6354 11.7503C13.4642 12.1744 13.2093 12.5597 12.8859 12.8831C12.5625 13.2065 12.1772 13.4614 11.7531 13.6326C11.3289 13.8038 10.8747 13.8877 10.4174 13.8794ZM15.961 3.60273C15.7098 3.60273 15.4642 3.67722 15.2553 3.81678C15.0465 3.95634 14.8837 4.15469 14.7876 4.38677C14.6914 4.61885 14.6663 4.87422 14.7153 5.12059C14.7643 5.36696 14.8853 5.59326 15.0629 5.77089C15.2405 5.94851 15.4668 6.06947 15.7132 6.11848C15.9596 6.16748 16.2149 6.14233 16.447 6.0462C16.6791 5.95007 16.8774 5.78729 17.017 5.57842C17.1565 5.36956 17.231 5.124 17.231 4.87281C17.2281 4.53688 17.0933 4.21554 16.8558 3.97799C16.6182 3.74045 16.2969 3.60569 15.961 3.60273Z" fill="white"/>
</svg>
