<svg width="21" height="21" viewBox="0 0 21 21" fill="none" xmlns="http://www.w3.org/2000/svg">
<path fill-rule="evenodd" clip-rule="evenodd" d="M18.6667 21H2.33333C1.04467 21 0 19.9553 0 18.6667V2.33333C0 1.04467 1.04467 0 2.33333 0H18.6667C19.9553 0 21 1.04467 21 2.33333V18.6667C21 19.9553 19.9553 21 18.6667 21ZM14.967 18.0837H18.0833V11.6819C18.0833 8.9733 16.5479 7.66364 14.4032 7.66364C12.2576 7.66364 11.3546 9.33451 11.3546 9.33451V7.97255H8.35135V18.0837H11.3546V12.7759C11.3546 11.3538 12.0092 10.5075 13.2622 10.5075C14.4141 10.5075 14.967 11.3207 14.967 12.7759V18.0837ZM2.91663 4.78279C2.91663 5.81314 3.74556 6.64858 4.76852 6.64858C5.79148 6.64858 6.61992 5.81314 6.61992 4.78279C6.61992 3.75243 5.79148 2.91699 4.76852 2.91699C3.74556 2.91699 2.91663 3.75243 2.91663 4.78279ZM6.34937 18.0837H3.21779V7.97255H6.34937V18.0837Z" fill="white"/>
</svg>
