<svg width="21" height="15" viewBox="0 0 21 15" fill="none" xmlns="http://www.w3.org/2000/svg">
<path d="M20.3253 2.28381C20.0865 1.38485 19.3831 0.67686 18.4899 0.436593C16.8711 0 10.3795 0 10.3795 0C10.3795 0 3.88802 0 2.2691 0.436593C1.37596 0.676898 0.672526 1.38485 0.43378 2.28381C0 3.91322 0 7.31284 0 7.31284C0 7.31284 0 10.7125 0.43378 12.3419C0.672526 13.2408 1.37596 13.9193 2.2691 14.1596C3.88802 14.5962 10.3795 14.5962 10.3795 14.5962C10.3795 14.5962 16.871 14.5962 18.4899 14.1596C19.3831 13.9193 20.0865 13.2408 20.3253 12.3419C20.759 10.7125 20.759 7.31284 20.759 7.31284C20.759 7.31284 20.759 3.91322 20.3253 2.28381ZM8.25642 10.3994V4.22624L13.6821 7.31291L8.25642 10.3994Z" fill="white"/>
</svg>
